<?xml version="1.0" encoding="utf-8"?>
<!-- Generator: Adobe Illustrator 23.0.3, SVG Export Plug-In . SVG Version: 6.00 Build 0)  -->
<svg version="1.1" id="graph_giraffe" xmlns="http://www.w3.org/2000/svg" xmlns:xlink="http://www.w3.org/1999/xlink" x="0px"
	 y="0px" viewBox="0 0 144 124.56" style="enable-background:new 0 0 144 124.56;" xml:space="preserve">
<style type="text/css">
	.st0{fill:#161938;}
	.st1{fill:#EF5023;}
	.st2{fill:#FFFFFF;}
	.st3{fill:#757575;}
	.st4{fill:#4F4F4F;}
	.st5{fill:#FCB913;}
	.st6{fill:#AD5B26;}
	.st7{fill:#E9B1BC;}
	.st8{fill:#CCA92C;}
	.st9{fill:#813E1C;}
	.st10{fill:#C43B27;}
	.st11{fill:#CD8C9B;}
	.st12{fill:#E1E2E0;}
	.st13{fill:#3C3F6F;}
</style>
<g>
	<g>
		<g>
			<g id="XMLID_1_">
				<g>
					<path class="st0" d="M72.63,62.7c-0.29,0.74-0.68,1.44-1.18,2.03c-1.13-0.89-2.53-1.23-3.95-1.14
						c-1.36,0.08-2.83,0.44-3.7,1.56c-0.62-0.66-1.02-1.49-1.02-2.39c1.02,0.22,2.06,0.34,3.08,0.4
						C68.08,63.28,70.43,63.24,72.63,62.7z"/>
					<path class="st1" d="M71.06,65.15c-0.82,0.82-1.87,1.4-3.11,1.57c-1.26,0.18-2.71-0.31-3.76-1.2c0.03-0.02,0.06-0.04,0.09-0.08
						c0.76-0.98,2.22-1.25,3.39-1.3C68.88,64.11,70.1,64.39,71.06,65.15z"/>
					<path class="st2" d="M85.7,41.84c-0.03,2.3-1.46,4.4-3.64,5.18c-2.17,0.77-4.63,0.09-6.1-1.68c-1.47-1.77-1.66-4.35-0.48-6.32
						c1.17-1.96,3.51-3.02,5.75-2.58C83.82,36.93,85.66,39.22,85.7,41.84z"/>
					<path class="st2" d="M61.06,41.84c-0.03,2.3-1.46,4.4-3.65,5.18c-2.17,0.77-4.63,0.09-6.1-1.68c-1.47-1.77-1.66-4.35-0.48-6.32
						c1.17-1.96,3.51-3.02,5.76-2.58C59.18,36.93,61.03,39.22,61.06,41.84z"/>
					<path class="st3" d="M92.3,34.73c0.06,0.55,0.06,1.13-0.08,1.67c-0.08,0.07-0.11,0.19-0.09,0.29c-0.14,0.39-0.36,0.74-0.7,1.02
						c-0.23,0.2-0.53,0.37-0.84,0.43c-0.62,0.1-1.03-0.38-1.31-0.87c-0.53-0.95-0.77-2.11-1.12-3.13c-0.51-1.48-1.1-2.93-1.87-4.29
						c-0.59-1.15-1.4-2.09-2.27-3.02c-0.41-0.44-0.86-0.92-1.16-1.47c-0.01-0.05-0.03-0.1-0.08-0.14c-0.18-0.35-0.3-0.73-0.31-1.14
						c-0.02-0.74,0.43-1.52,1.18-1.69c0.44-0.1,0.89,0,1.31,0.2c0.04,0.03,0.08,0.05,0.12,0.06c0.26,0.13,0.5,0.3,0.72,0.46
						c1.22,0.91,2.27,2.18,3.15,3.41C90.69,28.9,91.97,31.79,92.3,34.73z"/>
					<path class="st3" d="M89.77,20.48c-0.42,0.07-0.84,0.16-1.26,0.27c-0.62-3.46-2.41-6.67-4.65-9.34
						c-2.58-3.06-5.93-5.51-9.71-6.85C66.89,2,58.3,3.96,53.12,9.66c-0.37,0.33-0.7,0.72-0.96,1.15c-2.18,2.83-3.61,6.2-4.36,9.69
						c-0.48-0.2-0.98-0.38-1.48-0.53c1.87-7.66,7.59-14.23,15.27-16.41c4.35-1.23,9.07-1.15,13.32,0.43
						c3.81,1.41,7.15,3.93,9.79,6.99C87.03,13.67,89.04,16.95,89.77,20.48z"/>
					<path class="st3" d="M51.92,22.21c0.8,1.23-0.18,2.61-1.01,3.5c-0.98,1.04-1.93,2.02-2.61,3.29c-1.2,2.03-1.88,4.24-2.69,6.44
						c-0.34,0.92-0.99,2.21-2.14,1.63c-0.89-0.45-1.28-1.44-1.3-2.39c-0.03-1.4,0.42-2.88,0.89-4.18c0.53-1.45,1.24-2.84,2.09-4.12
						c0.83-1.25,1.82-2.39,2.92-3.42C48.98,22.11,50.91,20.67,51.92,22.21z"/>
					<path class="st4" d="M95.71,22.55c2.64,2.16,3.17,6.29,1.74,9.3c-0.05,0.1-0.1,0.19-0.15,0.29c-0.06,0.1-0.12,0.2-0.17,0.3
						c-0.97,1.66-2.5,2.88-4.25,3.67c0.01-0.08,0.02-0.15,0.03-0.23c0.15-1.61-0.38-3.38-0.93-4.87c-0.59-1.61-1.37-3.15-2.35-4.56
						c-0.96-1.38-2.11-2.78-3.46-3.8c-0.12-0.09-0.26-0.18-0.39-0.27c1.91-0.9,4.18-1.65,6.28-1.39
						C93.38,21.14,94.68,21.7,95.71,22.55z"/>
					<path class="st4" d="M48.85,21.59c-1.2,0.73-2.2,1.91-3.05,2.96c-2.12,2.6-3.71,5.84-4.15,9.19c-0.07,0.5-0.08,1.02,0,1.52
						c-1.84-0.79-3.46-2.05-4.46-3.81c-0.83-1.45-1.09-3.14-0.99-4.8c0.19-3.26,2.44-5.88,5.65-6.51c0.43-0.09,0.86-0.12,1.3-0.13
						c0.04,0.01,0.09,0.01,0.13,0C45.19,20.05,47.17,20.78,48.85,21.59z"/>
					<path class="st5" d="M78.6,51.39c1.87,2.68,0.9,6.23-1.38,8.32c-2.54,2.34-6.09,2.92-9.42,2.92c-3.22,0-6.95-0.3-9.49-2.52
						c-1.1-0.96-1.93-2.25-2.25-3.68c-0.15-0.69-0.18-1.42-0.03-2.11c0.14-0.67,0.57-1.31,0.49-2.01c-0.04-0.4-0.23-0.76-0.29-1.16
						c-0.06-0.43-0.04-0.87,0.05-1.29c0.18-0.79,0.61-1.54,1.24-2.06c1.34-1.1,3.39-0.94,4.65,0.21c0.11,0.1,0.23,0.09,0.33,0.04
						c0.06,0.01,0.12,0,0.18-0.04c2.69-1.63,6.19-1.52,8.78,0.26c0.08,0.05,0.21,0.06,0.29,0c1.44-1.07,3.48-1.86,5.23-1.04
						c1.37,0.65,2.34,2.41,1.61,3.86C78.56,51.19,78.54,51.3,78.6,51.39z M77.82,51c0-0.04,0-0.07-0.01-0.1
						c0.01-1.23-0.64-2.46-1.92-2.76c-1.31-0.3-2.04,0.62-1.98,1.85c0.06,1.2,0.73,2.4,1.78,3.02C76.95,53.75,77.74,52.01,77.82,51z
						 M61.25,49.99c0.06-1.23-0.67-2.16-1.98-1.85c-1.28,0.3-1.93,1.53-1.92,2.76c-0.01,0.03-0.01,0.06-0.01,0.1
						c0.07,1.02,0.87,2.74,2.13,2.01C60.52,52.4,61.19,51.19,61.25,49.99z"/>
					<path class="st5" d="M45.88,57.25c0.16,0.43,0.32,0.86,0.48,1.29c-0.15,0.06-0.3,0.13-0.45,0.22
						c-0.25-0.41-0.48-0.83-0.69-1.26C45.45,57.43,45.67,57.35,45.88,57.25z"/>
					<path class="st5" d="M89.07,57.78c0.12,0.05,0.23,0.1,0.35,0.14c-0.26,0.4-0.54,0.78-0.84,1.14c-0.06-0.03-0.12-0.05-0.18-0.07
						C88.6,58.57,88.87,58.19,89.07,57.78z"/>
					<path class="st6" d="M55.18,60.09c-0.08,1.79-2.8,1.81-2.8,0C52.37,58.28,55.09,58.3,55.18,60.09z"/>
					<path class="st6" d="M49.86,59.62c0.99,0.9,1.25,2.3,0.76,3.51c-0.99-0.58-1.93-1.22-2.77-1.99c-0.62-0.56-1.15-1.2-1.61-1.9
						C47.4,58.6,48.85,58.69,49.86,59.62z"/>
					<path class="st6" d="M48.13,52.4c0.23,2.11-1.15,4.02-3.15,4.57c-0.04-0.08-0.08-0.17-0.12-0.25
						c-0.88-1.95-1.39-4.08-1.36-6.23c0.01-0.62,0.07-1.24,0.17-1.84c0.03,0.01,0.06,0.01,0.09,0.01
						C45.94,48.62,47.89,50.19,48.13,52.4z"/>
					<path class="st6" d="M91.2,49.14c0.24,0.98,0.37,1.99,0.3,3.04c-0.11,1.89-0.81,3.65-1.77,5.26c-0.03-0.02-0.06-0.04-0.1-0.06
						c-2.08-0.7-3.36-2.89-2.82-5.05C87.31,50.31,89.18,49.05,91.2,49.14z"/>
					<path class="st0" d="M143.22,62.3c-0.66,1.15-1.33,2.3-1.99,3.44c-1.78,3.08-3.55,6.16-5.33,9.24c-2.4,4.16-4.8,8.32-7.2,12.48
						c-2.6,4.5-5.2,9-7.8,13.51c-2.34,4.05-4.68,8.1-7.01,12.15c-1.63,2.82-3.25,5.63-4.88,8.45c-0.41,0.7-0.81,1.41-1.22,2.11
						c-0.02,0.03-0.12,0.17-0.18,0.27c-0.53-0.11-1.24,0.01-1.76,0.01c-1.22,0-2.44,0-3.66,0c-3.84,0-7.68,0-11.52,0
						c-4.53,0-9.05,0-13.58,0c-0.09-1.86-0.28-3.71-0.61-5.54c-0.01-0.04-0.02-0.07-0.03-0.09c0.28-1.23,0.44-2.49,0.48-3.79
						c0.03-0.93,0.01-1.86-0.03-2.79c0,0,0.01,0,0.01-0.01c1.68-1.2,3.36-2.4,5.03-3.6c1.23,1.32,3.1,1.94,4.91,1.59
						c2.48-0.48,4.23-2.7,4.27-5.2c-0.04-2.23-1.41-4.23-3.52-4.99c-0.73-0.26-1.5-0.35-2.24-0.28c-0.05-2.93-0.09-5.86-0.14-8.8
						c0-0.05-0.01-0.09-0.03-0.12c0.17-0.02,0.34-0.04,0.5-0.07c2.48-0.48,4.23-2.7,4.27-5.2c-0.03-1.6-0.74-3.09-1.93-4.08
						c2.2-2.35,4.41-4.69,6.61-7.04c0.26-0.28,0.53-0.56,0.79-0.84c1.23,1.15,2.97,1.68,4.67,1.36c2.48-0.48,4.23-2.7,4.27-5.2
						c-0.02-1.05-0.33-2.05-0.88-2.89c2.32-2.23,4.64-4.46,6.96-6.7c0.06-0.05,0.08-0.12,0.09-0.18c0.74,0.4,1.61,0.56,2.47,0.4
						c1.74-0.33,2.94-1.88,2.98-3.61c-0.04-1.53-0.95-2.9-2.39-3.45c-0.08-0.03-0.17-0.06-0.25-0.08c0.02-0.03,0.03-0.07,0.03-0.12
						c0.22-3.36,0.44-6.71,0.66-10.06c0-0.03,0-0.06-0.01-0.09c0.05-0.01,0.1-0.01,0.15-0.02c1.74-0.33,2.94-1.88,2.98-3.61
						c-0.03-1.53-0.94-2.9-2.39-3.44c-0.29-0.11-0.59-0.18-0.89-0.21c-0.04-3.49-0.09-6.97-0.13-10.46c0-0.02,0-0.04-0.01-0.06
						c2.26-0.63,3.83-2.75,3.87-5.1c-0.01-0.97-0.29-1.91-0.76-2.71l0.15-0.08c0.89,1.55,1.79,3.1,2.68,4.65
						c3.44,5.95,6.87,11.9,10.31,17.85c2.98,5.16,5.96,10.33,8.94,15.49c0.99,1.71,1.97,3.41,2.96,5.12c0.3,0.52,0.6,1.04,0.9,1.56
						C142.9,61.72,143.03,62.09,143.22,62.3z"/>
					<path class="st0" d="M111.1,6.65c1.95,3.39,3.91,6.77,5.87,10.16l-0.15,0.08c-0.61-1.03-1.57-1.86-2.76-2.28
						c-1.15-0.41-2.39-0.39-3.51,0c-1.66-2.67-3.33-5.33-4.99-8c0.41-0.44,0.66-1.04,0.68-1.68c-0.05-1.35-1.09-2.48-2.48-2.48
						c-0.42,0-0.82,0.11-1.17,0.3c-0.39-0.71-0.79-1.42-1.18-2.13c1.97,0,3.93,0,5.89,0c0.1,0,0.21,0,0.31,0
						C108.78,2.63,109.94,4.64,111.1,6.65z"/>
					<path class="st0" d="M113.45,42.54c0,0.02-0.01,0.03-0.01,0.05c-0.22,3.36-0.44,6.71-0.66,10.06c0,0,0,0,0,0
						c-1.24-0.16-2.54,0.33-3.34,1.32c-0.02,0.03-0.04,0.05-0.06,0.08c-0.02-0.05-0.06-0.1-0.12-0.14
						c-2.61-1.63-5.21-3.26-7.82-4.89c0,0,0,0,0,0c0.21-0.46,0.33-0.98,0.34-1.51c-0.01-0.49-0.11-0.96-0.29-1.39
						c3.14-1.53,6.27-3.05,9.41-4.58c0.01,0,0.01-0.01,0.02-0.01C111.61,42.17,112.51,42.53,113.45,42.54z"/>
					<path class="st0" d="M113.15,24.82c0.04,3.46,0.09,6.92,0.13,10.37c-1.02,0.05-2.02,0.53-2.68,1.34
						c-0.12,0.14-0.22,0.29-0.31,0.45c-2.84-0.98-5.68-1.96-8.53-2.95c0.05-0.18,0.07-0.37,0.08-0.57
						c-0.05-1.35-1.09-2.48-2.48-2.48c-0.19,0-0.38,0.02-0.56,0.07c3.23-2.08,5.48-5.25,6.67-8.89c0.2-0.6,0.37-1.21,0.51-1.83
						c0.02,0,0.04,0.01,0.06,0.01c0.33,0,0.67,0,1,0c0.1,0.69,0.33,1.37,0.7,1.99C108.88,24.18,111.04,25.16,113.15,24.82z"/>
					<path class="st0" d="M110.53,41.09c-3.1,1.51-6.2,3.01-9.29,4.52c-0.41-0.69-1.05-1.24-1.84-1.54
						c-0.13-0.05-0.26-0.09-0.4-0.12c0.18-2.67,0.36-5.34,0.54-8.01c0.91-0.06,1.65-0.6,2.03-1.36c2.83,0.98,5.65,1.95,8.47,2.93
						c-0.41,1.05-0.34,2.27,0.26,3.26C110.37,40.88,110.45,40.99,110.53,41.09z"/>
					<path class="st0" d="M110.09,59.24c-0.02,0.01-0.04,0.03-0.06,0.04c-2.3,2.21-4.6,4.42-6.89,6.63c-0.59-0.72-1.37-1.3-2.3-1.63
						c-1.53-0.55-3.23-0.33-4.57,0.5c-1.76-2.8-3.52-5.6-5.28-8.41c-0.01-0.01-0.02-0.02-0.03-0.04c0.7-1.52,1.1-3.12,1.12-4.77
						c0,0,0,0,0,0c0.97-0.71,1.93-1.42,2.9-2.13c0.8,1.29,2.34,1.97,3.84,1.68c1.01-0.19,1.83-0.79,2.36-1.6
						c2.6,1.63,5.21,3.26,7.81,4.88c0.05,0.03,0.09,0.04,0.14,0.04c-0.65,1.14-0.66,2.6,0.03,3.74
						C109.39,58.61,109.72,58.96,110.09,59.24z"/>
					<path class="st0" d="M105.13,6.99c1.63,2.61,3.26,5.22,4.89,7.84c-0.7,0.33-1.32,0.81-1.82,1.42c-0.82,1-1.22,2.27-1.18,3.53
						c-0.29,0-0.59,0-0.88,0c0.1-0.47,0.19-0.94,0.26-1.41c0.1-0.65,0.18-1.3,0.24-1.96c0.04-0.4,0.06-0.8,0.09-1.2
						c0.01-0.27,0.1-0.62-0.05-0.86c-0.2-0.31-0.71-0.35-1.04-0.43c-0.77-0.18-1.54-0.35-2.32-0.46c-1.44-0.19-2.89-0.21-4.33-0.02
						c-3.02,0.39-6.06,1.5-8.73,3.01c-0.41-1.75-0.82-3.51-1.23-5.26c1.57-0.44,2.64-1.91,2.68-3.54c0-0.09-0.01-0.19-0.02-0.28
						c2.88-0.43,5.76-0.86,8.63-1.29c0.4-0.06,0.79-0.12,1.19-0.18c0.39,0.88,1.27,1.5,2.27,1.5C104.28,7.4,104.74,7.25,105.13,6.99
						z"/>
					<path class="st5" d="M105.75,14.54c0.33,0.08,0.41,0.09,0.39,0.46c-0.01,0.34-0.04,0.67-0.06,1.01
						c-0.06,0.74-0.14,1.47-0.25,2.2c-0.18,1.19-0.44,2.36-0.8,3.5c-0.6,1.93-1.5,3.78-2.73,5.39c-1.06,1.38-2.36,2.55-3.82,3.49
						c0.25-1,0.32-2.05,0.25-3.09c-0.01-0.14-0.02-0.28-0.04-0.42c2.66-2.63,4.63-6.19,4.63-10c0.34-0.01,0.69-0.02,1.03-0.02
						c0.37,0,0.37-0.58,0-0.58c-4.9,0.01-9.87,1.13-14.07,3.71c-0.19-0.89-0.47-1.77-0.81-2.62c0.01,0,0.02-0.01,0.02-0.01
						c2.48-1.56,5.3-2.7,8.16-3.31C100.39,13.66,103.07,13.86,105.75,14.54z M102.35,14.64c0,0-0.49-0.29-1.09-0.29
						c-0.6,0-1.09,0.28-1.09,0.28s0.49,0.29,1.09,0.29C101.86,14.92,102.35,14.64,102.35,14.64z M99.61,15.92
						c0.47-0.07,0.8-0.4,0.8-0.4s-0.42-0.23-0.89-0.16s-0.8,0.4-0.8,0.4S99.14,15.98,99.61,15.92z M97.7,15.37
						c0.51-0.11,0.87-0.48,0.87-0.48s-0.47-0.19-0.99-0.08c-0.51,0.11-0.87,0.48-0.87,0.48S97.19,15.48,97.7,15.37z M95.89,16.92
						c0.53-0.15,0.89-0.55,0.89-0.55s-0.51-0.15-1.04,0c-0.53,0.15-0.89,0.55-0.89,0.55S95.36,17.07,95.89,16.92z"/>
					<path class="st0" d="M100.79,0.67c0.45,0.81,0.89,1.61,1.34,2.42c-0.51,0.46-0.83,1.12-0.83,1.84c0,0.14,0.01,0.29,0.04,0.43
						c-2.9,0.43-5.79,0.87-8.69,1.3c-0.35,0.05-0.71,0.1-1.06,0.16c-0.29-1.17-1.11-2.16-2.28-2.6c-1.46-0.55-3.16-0.09-4.14,1.12
						c-0.02,0.02-0.04,0.05-0.06,0.07c-0.01-0.01-0.03-0.02-0.05-0.03c-2.54-1.54-5.08-3.08-7.62-4.62
						c-0.07-0.04-0.14-0.09-0.21-0.13c0.49,0,0.98,0,1.47,0c6.17,0,12.35,0,18.52,0c1.18,0,2.36,0,3.54,0
						C100.77,0.64,100.78,0.65,100.79,0.67z"/>
					<path class="st7" d="M102.75,17.1c-0.02,3.51-1.77,6.78-4.17,9.27c-0.62-2.96-2.88-5.29-5.95-5.88c-0.49-0.1-1-0.13-1.5-0.13
						C94.66,18.33,98.69,17.32,102.75,17.1z"/>
					<path class="st0" d="M98.96,35.92c-0.18,2.65-0.35,5.3-0.53,7.94c-1.19-0.1-2.41,0.39-3.18,1.33c-0.85,1.05-1.05,2.5-0.55,3.74
						c-0.88,0.65-1.77,1.3-2.65,1.95c-0.03-0.58-0.11-1.16-0.24-1.75c-0.26-1.18-0.71-2.3-1.17-3.42c-0.36-0.86-0.78-1.75-0.92-2.68
						c-0.14-0.87-0.03-1.8-0.08-2.68c-0.04-0.67-0.1-1.33-0.18-1.99c0.58,0.43,1.3,0.45,1.98,0.05c0.62-0.37,1.03-0.95,1.26-1.61
						c1.63-0.67,3.11-1.67,4.21-3.03C97.05,34.85,97.9,35.73,98.96,35.92z"/>
					<path class="st0" d="M90.66,56.95c1.71,2.72,3.42,5.44,5.13,8.17c-0.3,0.24-0.58,0.51-0.83,0.81c-0.21,0.26-0.4,0.54-0.55,0.83
						c-2.67-1.57-5.35-3.14-8.02-4.72c0.61-0.47,1.19-0.98,1.72-1.54c0.73-0.76,1.37-1.6,1.94-2.49
						C90.27,57.66,90.47,57.31,90.66,56.95z"/>
					<path class="st0" d="M95.02,72.7c-2.2,2.34-4.39,4.67-6.59,7.01c-0.29,0.31-0.59,0.63-0.88,0.94
						c-0.34-0.23-0.72-0.42-1.12-0.56c-1.4-0.5-2.95-0.36-4.24,0.31c-0.01-0.02-0.02-0.04-0.04-0.06c-2.21-2.58-4.42-5.16-6.62-7.74
						c-0.04-0.04-0.07-0.07-0.11-0.08c0.19-2.01,0.43-4.02,0.71-6.02c0.96-0.31,1.94-0.54,2.9-0.83c2.44-0.76,4.83-1.79,6.9-3.28
						c0.02,0.05,0.06,0.09,0.12,0.12c2.71,1.59,5.41,3.18,8.12,4.78c-0.61,1.52-0.51,3.3,0.36,4.73
						C94.67,72.26,94.84,72.49,95.02,72.7z"/>
					<path class="st5" d="M91.05,48.56c-2.26-0.04-4.34,1.5-4.83,3.77c-0.45,2.1,0.56,4.17,2.35,5.2c-0.21,0.45-0.5,0.85-0.71,1.3
						c-1.8-0.38-3.55,0.64-4.19,2.26c-0.22-0.05-0.44-0.1-0.66-0.15c0.02-0.12,0.04-0.25,0.04-0.37c0-1.07-0.9-1.98-1.98-1.98
						c-1.08,0-1.89,0.86-1.97,1.9c0,0.02-0.01,0.05-0.01,0.08c0,0.03,0,0.05,0.01,0.08c0.08,1.04,0.89,1.9,1.97,1.9
						c0.75,0,1.41-0.43,1.74-1.06c0.23,0.05,0.46,0.1,0.68,0.15c-0.1,0.47-0.12,0.97-0.03,1.5c0.01,0.03,0.02,0.06,0.03,0.08
						c-0.92,0.5-1.88,0.93-2.87,1.3c-1.25,0.47-2.54,0.83-3.82,1.19c-0.34,0.09-0.69,0.18-1.03,0.3c-0.03,0-0.05,0.01-0.08,0.03
						c-0.41,0.14-0.79,0.32-1.13,0.61c-0.88,0.76-1.49,1.79-2.37,2.56c-1.38,1.2-3.15,1.64-4.95,1.53c-1.71-0.1-3.18-0.8-4.45-1.92
						c-0.82-0.72-1.61-1.68-2.7-1.98c-1.05-0.29-2.1-0.52-3.14-0.87c-1.59-0.54-3.15-1.17-4.65-1.92c-0.4-0.2-0.79-0.4-1.18-0.62
						c0.29-0.68,0.38-1.42,0.27-2.12c0,0,0.01,0,0.01,0c0.19-0.08,0.38-0.16,0.56-0.24c0.03-0.01,0.05-0.03,0.06-0.05
						c0.33,0.63,1,1.07,1.75,1.07c1.08,0,1.89-0.86,1.97-1.9c0.01-0.02,0.01-0.05,0.01-0.08c0-0.03,0-0.05-0.01-0.08
						c-0.08-1.04-0.89-1.9-1.97-1.9c-1.07,0-1.98,0.9-1.98,1.98c0,0.15,0.02,0.29,0.05,0.43c-0.06,0-0.12,0.01-0.18,0.03
						c-0.14,0.06-0.28,0.12-0.42,0.18c-0.19-0.57-0.51-1.09-0.98-1.52c-0.93-0.85-2.19-1.13-3.36-0.85
						c-0.17-0.45-0.34-0.9-0.51-1.35c0-0.01-0.01-0.02-0.01-0.03c1.59-0.97,2.55-2.8,2.3-4.74c-0.32-2.44-2.47-4.19-4.9-4.16
						c0.35-1.59,1.01-3.11,1.91-4.48c0.94-1.43,0.92-3.28,1.02-4.93c0.13-2.16,0.26-4.37,0.94-6.45c1.82-5.6,7.16-9.13,12.64-10.53
						c1.13-0.29,2.27-0.5,3.42-0.65c0.36-0.05,0.37-0.62,0-0.58c-0.63,0.08-1.26,0.19-1.89,0.31c0.01-0.06,0-0.12-0.02-0.17
						c0.03-0.04,0.05-0.09,0.05-0.16c0.08-2.88,1.53-5.59,3.83-7.28c-0.44,1.14-0.66,2.34-0.65,3.58c0,0.24,0.32,0.4,0.49,0.2
						c1.91-2.13,4.51-3.56,7.34-3.99c0.04,2.08-1.1,4.04-2.95,5.02c-0.29,0.15-0.09,0.63,0.22,0.53c1.21-0.39,2.42-0.45,3.58-0.01
						c-1.03,0.45-1.88,1.19-2.45,2.11c-0.02,0.02-0.03,0.04-0.04,0.07c-0.6,1.01-0.84,2.21-0.6,3.46c0.07,0.36,0.63,0.21,0.56-0.15
						c-0.21-1.04-0.01-2.05,0.47-2.9c3.88,0.58,7.7,1.93,10.71,4.52c0.12,0.23,0.26,0.45,0.41,0.65c0.43,0.57,0.94,1.06,1.41,1.58
						c0.64,0.7,1.19,1.46,1.63,2.31c0.83,1.46,1.43,3.02,1.96,4.6c0.3,0.91,0.52,1.94,1.01,2.79c0,0.02,0,0.05,0,0.08
						c0.14,0.88,0.23,1.76,0.28,2.65c0.05,0.83,0,1.66,0.05,2.49c0.06,0.87,0.4,1.71,0.72,2.51C90.28,46.35,90.73,47.44,91.05,48.56
						z M86.28,41.84c-0.03-2.51-1.57-4.78-3.92-5.68c-2.41-0.92-5.22-0.16-6.85,1.83c-1.6,1.96-1.82,4.78-0.52,6.96
						c0.33,0.55,0.74,1.03,1.21,1.44c-1.58-0.27-3.29,0.38-4.58,1.29c-2.73-1.78-6.37-1.85-9.16-0.19c-0.84-0.7-1.93-1.06-3.01-0.99
						c1.34-1.13,2.18-2.84,2.21-4.67c-0.03-2.51-1.57-4.78-3.92-5.68c-2.41-0.92-5.22-0.16-6.85,1.83c-1.6,1.96-1.82,4.78-0.52,6.96
						c1.3,2.17,3.85,3.31,6.33,2.86c0.02,0,0.04-0.01,0.06-0.01c-0.52,0.58-0.89,1.3-1.03,2.08c-0.14,0.75-0.04,1.45,0.17,2.17
						c0.26,0.85-0.37,1.75-0.47,2.61c-0.19,1.56,0.33,3.15,1.22,4.43c1.35,1.93,3.38,2.98,5.58,3.54c0,0,0,0,0,0.01
						c-0.11,2.77,3.06,4.97,5.65,4.69c2.7-0.3,4.63-2.32,5.45-4.8c1.26-0.38,2.45-0.93,3.53-1.74c1.46-1.09,2.63-2.59,3.1-4.37
						c0.46-1.75,0.25-3.66-0.75-5.19c0.53-1.23,0.14-2.61-0.72-3.58c0.91,0.27,1.89,0.34,2.85,0.17
						C84.18,47.29,86.24,44.72,86.28,41.84z M84.49,49.08c0.04-0.01,0.06-0.02,0.06-0.02s-0.05-0.09-0.12-0.2
						c-0.07-0.11-0.15-0.24-0.26-0.34c-0.11-0.1-0.25-0.16-0.37-0.21c-0.12-0.05-0.21-0.09-0.21-0.09s-0.01,0.02-0.02,0.07
						c-0.01,0.04-0.01,0.1-0.01,0.18c0.01,0.15,0.07,0.35,0.23,0.49c0.16,0.14,0.37,0.18,0.51,0.17
						C84.39,49.11,84.45,49.1,84.49,49.08z M84.05,33.66c0.27,0.26,0.68-0.15,0.41-0.41c-1.28-1.22-2.89-2.03-4.64-2.3
						c-1.63-0.25-3.54-0.11-4.82,1.04c-0.28,0.25,0.13,0.65,0.41,0.41c1.2-1.07,3.11-1.12,4.61-0.83
						C81.53,31.87,82.93,32.59,84.05,33.66z M82.97,49.61c0.04-0.01,0.06-0.01,0.06-0.01s-0.03-0.09-0.07-0.21
						c-0.04-0.12-0.07-0.25-0.14-0.35c-0.07-0.11-0.18-0.19-0.27-0.27c-0.1-0.08-0.17-0.14-0.17-0.14s-0.01,0.02-0.04,0.05
						c-0.02,0.04-0.05,0.09-0.07,0.16c-0.04,0.13-0.04,0.34,0.08,0.51c0.12,0.17,0.31,0.25,0.45,0.26
						C82.87,49.62,82.93,49.62,82.97,49.61z M81.59,50.96c0.05,0,0.08,0,0.08,0s-0.01-0.03-0.03-0.07
						c-0.02-0.04-0.05-0.11-0.08-0.18c-0.06-0.14-0.13-0.32-0.22-0.48c-0.1-0.16-0.22-0.3-0.31-0.43c-0.05-0.06-0.09-0.11-0.12-0.15
						c-0.03-0.04-0.05-0.06-0.05-0.06s-0.02,0.02-0.04,0.07c-0.02,0.04-0.05,0.11-0.07,0.2c-0.04,0.17-0.03,0.43,0.1,0.66
						c0.14,0.23,0.36,0.36,0.53,0.41C81.47,50.95,81.54,50.96,81.59,50.96z M80.78,25.77c0,0-0.01-0.03-0.02-0.09
						c-0.01-0.06-0.04-0.14-0.09-0.23c-0.09-0.19-0.27-0.42-0.55-0.57c-0.27-0.15-0.57-0.18-0.78-0.16
						c-0.1,0.01-0.19,0.03-0.24,0.05c-0.06,0.02-0.09,0.03-0.09,0.03s0.03,0.02,0.07,0.06c0.04,0.03,0.11,0.08,0.19,0.14
						c0.16,0.11,0.35,0.26,0.57,0.38c0.22,0.12,0.45,0.21,0.63,0.28c0.09,0.03,0.17,0.06,0.22,0.08
						C80.75,25.76,80.78,25.77,80.78,25.77z M79.32,26.58c0,0-0.02-0.04-0.05-0.12c-0.03-0.07-0.09-0.18-0.17-0.3
						c-0.16-0.24-0.43-0.54-0.81-0.76c-0.38-0.22-0.78-0.29-1.07-0.31c-0.14-0.01-0.26,0-0.34,0.01c-0.08,0.01-0.12,0.02-0.12,0.02
						s0.04,0.03,0.1,0.07c0.07,0.04,0.16,0.1,0.28,0.18c0.23,0.15,0.53,0.34,0.87,0.53c0.34,0.19,0.66,0.35,0.9,0.48
						c0.12,0.06,0.22,0.11,0.29,0.15C79.28,26.56,79.32,26.58,79.32,26.58z M77.41,23.79c0,0-0.36-0.39-0.9-0.52
						c-0.53-0.13-1.03,0.03-1.03,0.03s0.36,0.38,0.89,0.52S77.41,23.79,77.41,23.79z M71.92,67.7c0.3-0.22,0.01-0.72-0.29-0.5
						c-2.15,1.56-5.1,1.66-7.34,0.24c-0.31-0.2-0.6,0.3-0.29,0.5C66.39,69.46,69.61,69.37,71.92,67.7z M69.14,40.69
						c0.01-0.17,0.01-0.38-0.04-0.6c-0.05-0.22-0.15-0.41-0.23-0.56c-0.08-0.15-0.15-0.24-0.15-0.24s-0.07,0.1-0.13,0.27
						c-0.06,0.17-0.1,0.41-0.04,0.67c0.06,0.25,0.2,0.45,0.33,0.58c0.13,0.13,0.23,0.18,0.23,0.18S69.13,40.86,69.14,40.69z
						 M68.21,38.12c0-0.18-0.04-0.36-0.07-0.51c-0.03-0.15-0.06-0.26-0.06-0.26s-0.02,0.01-0.06,0.04
						c-0.04,0.03-0.09,0.07-0.15,0.13c-0.11,0.12-0.23,0.34-0.23,0.58c0,0.25,0.11,0.46,0.22,0.59c0.06,0.06,0.11,0.11,0.15,0.14
						c0.04,0.03,0.06,0.04,0.06,0.04s0.03-0.11,0.06-0.26C68.16,38.48,68.2,38.31,68.21,38.12z M67.3,40.84
						c0.05-0.27,0.01-0.53-0.06-0.71c-0.06-0.18-0.13-0.28-0.13-0.28s-0.07,0.11-0.15,0.27c-0.08,0.16-0.17,0.38-0.22,0.62
						c-0.05,0.24-0.04,0.47-0.03,0.65c0.01,0.18,0.04,0.3,0.04,0.3s0.11-0.07,0.23-0.21C67.11,41.33,67.25,41.11,67.3,40.84z
						 M66.94,37.39c0.03-0.21-0.03-0.41-0.1-0.54c-0.07-0.14-0.14-0.22-0.14-0.22s-0.07,0.08-0.15,0.21
						c-0.08,0.13-0.16,0.3-0.18,0.49c-0.02,0.19,0.02,0.37,0.06,0.51c0.04,0.14,0.09,0.24,0.09,0.24s0.09-0.06,0.19-0.18
						C66.81,37.78,66.92,37.6,66.94,37.39z M66,39.91c0.02-0.3-0.06-0.56-0.15-0.75c-0.09-0.18-0.18-0.28-0.18-0.28
						s-0.05,0.12-0.11,0.31s-0.12,0.42-0.13,0.69c-0.02,0.26,0.02,0.51,0.05,0.7c0.03,0.19,0.07,0.32,0.07,0.32s0.1-0.09,0.21-0.26
						C65.87,40.46,65.98,40.21,66,39.91z M58.81,32.44c0.33,0.17,0.62-0.33,0.29-0.5c-3.09-1.58-6.86-0.81-9.04,1.91
						c-0.23,0.29,0.18,0.7,0.41,0.41C52.48,31.75,55.94,30.97,58.81,32.44z M55.92,25.29c0.48-0.33,0.7-0.83,0.7-0.83
						s-0.55,0.03-1.03,0.36c-0.48,0.33-0.7,0.83-0.7,0.83S55.44,25.61,55.92,25.29z M55.64,27.22c0.44-0.22,0.68-0.66,0.68-0.66
						s-0.49-0.07-0.93,0.15c-0.44,0.22-0.68,0.66-0.68,0.66S55.19,27.44,55.64,27.22z M53.89,26.58c0.12-0.15,0.2-0.26,0.2-0.26
						s-0.03,0-0.09-0.01c-0.06,0-0.15,0-0.25,0.02c-0.2,0.03-0.48,0.13-0.72,0.33c-0.23,0.21-0.36,0.47-0.42,0.67
						c-0.03,0.1-0.04,0.19-0.05,0.24c-0.01,0.06-0.01,0.09-0.01,0.09s0.12-0.07,0.28-0.17c0.16-0.1,0.37-0.24,0.57-0.41
						C53.61,26.91,53.77,26.72,53.89,26.58z M52.23,48.77c0.33-0.38,0.39-0.87,0.39-0.87s-0.48,0.12-0.82,0.5
						c-0.33,0.38-0.39,0.87-0.39,0.87S51.9,49.15,52.23,48.77z M50.85,47.98c0.29-0.29,0.32-0.73,0.32-0.73s-0.44,0.04-0.72,0.33
						c-0.29,0.29-0.32,0.73-0.32,0.73S50.56,48.27,50.85,47.98z M50,46.99c0.08-0.12,0.12-0.22,0.12-0.22s-0.1-0.03-0.25-0.03
						c-0.15,0-0.34,0.03-0.51,0.13c-0.17,0.11-0.28,0.27-0.35,0.4c-0.07,0.13-0.09,0.24-0.09,0.24s0.11,0.01,0.25,0
						c0.14-0.01,0.32-0.05,0.48-0.15C49.81,47.26,49.93,47.11,50,46.99z"/>
					<path class="st0" d="M88.45,11.3c0.42,1.82,0.85,3.64,1.27,5.45c-0.15,0.09-0.31,0.18-0.46,0.28c-0.84-1.94-2-3.75-3.27-5.38
						c-2.53-3.24-5.8-5.98-9.57-7.66c-8.21-3.67-18.2-1.72-24.49,4.68c-0.44,0.45-0.86,0.91-1.26,1.39
						c-0.01-0.01-0.03-0.01-0.04-0.02c-0.78-0.24-1.56-0.48-2.34-0.72c0.13-0.38,0.21-0.79,0.22-1.21c-0.02-1.09-0.5-2.1-1.29-2.78
						c1.5-1.56,2.99-3.12,4.49-4.68c0.01-0.01,0.02-0.02,0.03-0.03c2.13,0,4.26,0,6.39,0c5.99,0,11.99,0,17.98,0
						c2.52,1.53,5.04,3.05,7.55,4.58c0.37,0.22,0.73,0.44,1.1,0.66c0.01,0.01,0.02,0.01,0.03,0.01c-0.62,1.13-0.62,2.55,0.06,3.67
						C85.61,10.78,87.03,11.46,88.45,11.3z"/>
					<path class="st5" d="M87.49,19c0.19,0.62,0.35,1.26,0.46,1.9c-0.98,0.31-1.94,0.71-2.82,1.14c-0.2-0.08-0.4-0.15-0.6-0.19
						C85.44,20.82,86.43,19.87,87.49,19z"/>
					<path class="st6" d="M84.01,62.92c-0.39-2.41,1.98-4.25,4.19-3.41C87,60.88,85.58,62.01,84.01,62.92z"/>
					<path class="st0" d="M87.31,18.45c-0.04,0.01-0.08,0.03-0.12,0.06c-1.2,0.96-2.29,2.02-3.28,3.19
						c-0.03,0.03-0.04,0.06-0.05,0.09c-0.52,0.02-1.02,0.23-1.42,0.72c-0.5,0.61-0.6,1.33-0.46,2.04c-0.58-0.44-1.18-0.84-1.8-1.2
						c0-0.03,0-0.06,0-0.09c-0.27-1.36-0.33-2.75-0.13-4.13c0.08-0.56,0.18-1.13,0.37-1.66c0.25-0.71,0.78-0.86,1.39-1.18
						c1.68-0.87,1.9-3.11,1.27-4.71c-0.06-0.15-0.13-0.3-0.2-0.44C84.78,13.25,86.38,15.74,87.31,18.45z"/>
					<path class="st0" d="M84.63,90.47c0.05,2.96,0.09,5.92,0.14,8.88c-1.18,0.24-2.27,0.87-3.05,1.83
						c-0.52,0.64-0.88,1.39-1.06,2.18c-1.7-0.95-3.4-1.91-5.1-2.86c-0.57-5.2-0.83-10.44-0.79-15.67c1.53,0.02,3.07,0.04,4.6,0.07
						c-0.04,1.01,0.21,2.03,0.75,2.92c0.97,1.59,2.71,2.54,4.53,2.55C84.63,90.4,84.63,90.43,84.63,90.47z"/>
					<path class="st5" d="M82.81,12.95c0.08,0.87-0.13,1.85-0.77,2.47c-0.62,0.6-1.55,0.64-1.99,1.45
						c-0.47,0.85-0.57,1.98-0.65,2.93c-0.09,1.07-0.03,2.13,0.15,3.18c-1.8-0.97-3.76-1.65-5.77-2.1c0.69-0.53,1.26-1.18,1.69-1.96
						c0.47-0.87,0.75-1.82,1.15-2.73c0.05-0.11,0.06-0.26-0.04-0.35c-1.2-1.03-2.04-2.88-1.49-4.45c0.6-1.71,2.72-2.6,4.41-2.26
						C81.27,9.49,82.65,11.16,82.81,12.95z"/>
					<path class="st6" d="M82.47,60.56c0,1.81-2.72,1.8-2.8,0C79.74,58.77,82.46,58.75,82.47,60.56z"/>
					<path class="st0" d="M75.34,73.27c2.12,2.47,4.24,4.95,6.35,7.42c-0.42,0.28-0.81,0.63-1.14,1.03c-0.62,0.76-1,1.66-1.13,2.6
						c-1.55-0.02-3.1-0.04-4.65-0.07c0.02-1.47,0.06-2.94,0.12-4.4C74.99,77.66,75.14,75.46,75.34,73.27z"/>
					<path class="st0" d="M81.57,107.7c-1.57,1.13-3.15,2.25-4.72,3.37c-0.17-2.44-0.56-4.87-0.89-7.29
						c-0.12-0.86-0.22-1.71-0.32-2.57c1.61,0.9,3.22,1.81,4.83,2.71c0.03,0.02,0.06,0.03,0.09,0.03c-0.13,1.14,0.1,2.32,0.72,3.33
						C81.37,107.42,81.46,107.56,81.57,107.7z"/>
					<path class="st0" d="M80.49,8.86C80.03,8.66,79.53,8.53,79,8.5c-1.74-0.11-3.65,0.84-4.38,2.47c-0.78,1.74,0.06,3.92,1.39,5.16
						c-0.31,0.74-0.56,1.52-0.91,2.24c-0.06,0.11-0.12,0.22-0.18,0.33l-0.18-0.1c0.04-0.12,0-0.26-0.12-0.33
						c-1.03-0.56-2.12-0.75-3.23-0.63c1.39-1.25,2.18-3.12,2.03-5.01c-0.01-0.14-0.12-0.31-0.29-0.29c-2.84,0.37-5.48,1.66-7.5,3.67
						c0.08-1.21,0.4-2.38,0.96-3.48c0.13-0.25-0.13-0.54-0.39-0.39c-2.87,1.68-4.73,4.76-4.91,8.07c-0.71-0.52-1.27-1.16-1.65-1.98
						c-0.32-0.68-0.53-1.41-0.81-2.1c1.21-1.13,1.97-2.96,1.58-4.61c-0.41-1.72-2.17-2.85-3.85-3.02c-0.54-0.06-1.08-0.01-1.58,0.13
						c1.53-1.37,3.29-2.49,5.3-3.27c3.83-1.47,8.25-1.77,12.22-0.72C75.45,5.43,78.16,6.92,80.49,8.86z"/>
					<path class="st8" d="M76.51,123.95c-0.24,0-0.47,0-0.71,0c-0.59,0-1.18,0-1.77,0c0.91-1.36,1.59-2.81,2.06-4.33
						C76.31,121.06,76.44,122.5,76.51,123.95z"/>
					<path class="st5" d="M76.34,112.41c0.07,2.01-0.02,4.04-0.48,6c-0.47,2.02-1.34,3.86-2.52,5.55c-1.12,0-2.23,0-3.35,0
						c-0.06-1.17-0.21-2.34-0.59-3.45c-0.12-0.35-0.68-0.2-0.56,0.15c0.37,1.07,0.51,2.18,0.57,3.3c-0.95,0-1.89,0-2.84,0
						c0.37-1.22,0.01-2.5-0.81-3.34c1.11-1.68,2.23-3.36,3.34-5.05c0.1,0.05,0.21,0.1,0.32,0.14c0.56,0.21,1.15,0.25,1.72,0.14
						c0.26,1.5,0.52,3.01,0.79,4.51c-0.53,0.21-0.88,0.71-0.95,1.3c-0.01,0.03-0.01,0.05-0.01,0.09c0,0.03,0,0.06,0.01,0.09
						c0.08,0.77,0.67,1.4,1.48,1.4c0.81,0,1.49-0.68,1.49-1.49c0-0.79-0.64-1.45-1.42-1.48c-0.01,0-0.02,0-0.03,0
						c-0.26-1.52-0.53-3.04-0.79-4.57c0.52-0.19,0.99-0.52,1.36-0.96c1.64-1.96,0.36-4.84-1.9-5.28c0.22-1.97,0.45-3.95,0.67-5.92
						c0-0.01,0-0.02,0-0.02c0.95-0.1,1.86-0.56,2.48-1.32c0.33-0.41,0.56-0.88,0.69-1.38c0.02,0.21,0.04,0.41,0.07,0.62
						C75.51,105.08,76.2,108.72,76.34,112.41z"/>
					<path class="st0" d="M74.75,18.6l0.18,0.1c-0.47,0.83-1.11,1.5-1.92,2.02c-0.34-0.07-0.67-0.12-1.01-0.18
						c0.62-0.82,1.52-1.45,2.56-1.75C74.65,18.77,74.72,18.69,74.75,18.6z"/>
					<path class="st5" d="M75.51,66.72c-0.63,4.58-1.04,9.19-1.22,13.81c-0.05,0.02-0.1,0.04-0.14,0.06c0,0,0-0.01,0-0.01
						c-0.97-1.98-1.94-3.96-2.91-5.93c1.23-1.05,1.53-2.97,0.55-4.42c0.7-0.46,1.31-1.04,1.87-1.69
						C74.21,67.87,74.72,67.1,75.51,66.72z"/>
					<path class="st5" d="M74.75,98.21c-0.04-0.08-0.08-0.16-0.13-0.23c-0.79-1.31-2.34-1.99-3.84-1.71
						c-0.37,0.07-0.72,0.2-1.04,0.37c-0.67-0.83-1.34-1.66-2-2.49c0.19-0.15,0.37-0.32,0.52-0.52c0.76-0.94,1-2.2,0.68-3.33
						c1.08-0.71,2.15-1.42,3.23-2.13c0.07-0.04,0.1-0.1,0.12-0.17c0.52,0.6,1.18,1.08,1.95,1.38c0,0.07,0,0.14,0,0.21
						C74.31,92.47,74.49,95.34,74.75,98.21z"/>
					<path class="st6" d="M74.27,81.16c-0.09,2.53-0.1,5.07-0.05,7.6c-1.54-0.69-2.55-2.24-2.49-3.96
						C71.79,83.18,72.81,81.79,74.27,81.16z"/>
					<path class="st6" d="M71.48,96.78c1.68,0,3.09,1.41,3.09,3.09c0,1.68-1.41,3.1-3.09,3.09c-1.72,0-3.05-1.4-3.09-3.09
						C68.43,98.19,69.77,96.78,71.48,96.78z"/>
					<path class="st5" d="M70.76,74.97c0.96,1.95,1.92,3.91,2.88,5.86c-1.07,0.59-1.88,1.55-2.25,2.7c-2.18-1.05-4.36-2.1-6.54-3.16
						c0.27-0.55,0.41-1.17,0.37-1.83c-0.05-0.67-0.27-1.28-0.62-1.79c0.02-0.01,0.04-0.03,0.06-0.05c0.75-0.75,1.51-1.49,2.26-2.24
						c0.68,0.67,1.66,1.05,2.74,0.88C70.06,75.28,70.43,75.15,70.76,74.97z"/>
					<path class="st6" d="M70.56,109.98c1.46,0,2.69,1.22,2.68,2.68c0,1.46-1.22,2.68-2.68,2.68c-1.49,0-2.64-1.22-2.68-2.68
						C67.92,111.19,69.07,109.98,70.56,109.98z"/>
					<path class="st6" d="M71.56,121.75c0.06-1.17,1.82-1.18,1.82,0S71.62,122.92,71.56,121.75z"/>
					<path class="st5" d="M71.99,87.63c-0.04,0-0.08,0.02-0.12,0.05c-1.05,0.69-2.09,1.38-3.14,2.07c-0.05-0.11-0.11-0.22-0.17-0.32
						c-0.79-1.31-2.34-1.99-3.84-1.71c-0.1,0.02-0.19,0.04-0.29,0.07c-0.47-1.89-0.94-3.79-1.41-5.68c0.61-0.27,1.14-0.7,1.52-1.24
						c2.23,1.08,4.46,2.15,6.69,3.23c-0.04,0.23-0.07,0.47-0.08,0.71C71.11,85.84,71.43,86.82,71.99,87.63z"/>
					<path class="st6" d="M71.29,70.51c1.21,1.66,0.2,4.11-1.9,4.29c-1.98,0.17-3.31-1.75-2.76-3.55c1.16,0.16,2.37,0.08,3.47-0.25
						C70.51,70.89,70.91,70.71,71.29,70.51z"/>
					<path class="st5" d="M71.26,103.53c0,0,0,0.01,0,0.01c-0.22,1.95-0.44,3.91-0.67,5.87c-0.19,0-0.38,0.01-0.58,0.04
						c-0.61,0.1-1.15,0.37-1.58,0.75c-0.02-0.04-0.04-0.07-0.08-0.11c-1.86-1.49-3.71-2.99-5.57-4.48c-0.01,0-0.01-0.01-0.02-0.01
						c0.79-0.89,1.23-2.05,1.23-3.23c0.04,0.01,0.07,0.01,0.12,0c1.35-0.32,2.7-0.65,4.06-0.97c0.39,0.86,1.1,1.56,2.03,1.91
						C70.54,103.44,70.9,103.51,71.26,103.53z"/>
					<path class="st5" d="M67.29,94.51c0.66,0.82,1.31,1.63,1.97,2.45c-0.88,0.68-1.42,1.76-1.45,2.91
						c0.01,0.34,0.06,0.66,0.15,0.98c-1.34,0.32-2.67,0.64-4.01,0.96c-0.04-0.32-0.12-0.64-0.23-0.96
						c-0.11-0.31-0.26-0.62-0.44-0.91c-0.43-0.67-1-1.21-1.67-1.58c0-0.01,0.01-0.01,0.01-0.02c0.76-1.22,1.52-2.45,2.28-3.67
						c0.07,0.03,0.15,0.07,0.22,0.09c1.04,0.39,2.2,0.27,3.14-0.28C67.28,94.49,67.28,94.5,67.29,94.51z"/>
					<path class="st5" d="M68.62,115.27c-1.1,1.66-2.19,3.32-3.29,4.97c-0.5-0.35-1.13-0.57-1.83-0.57c-0.71,0-1.34,0.22-1.84,0.58
						c-0.83-1.2-1.65-2.4-2.48-3.6c-0.02-0.02-0.03-0.04-0.05-0.06c0.35-0.19,0.67-0.45,0.94-0.76c0.47-0.56,0.69-1.19,0.73-1.82
						c2.21-0.17,4.42-0.35,6.63-0.52C67.62,114.2,68.03,114.83,68.62,115.27z"/>
					<path class="st5" d="M67.95,110.5c0.04,0.03,0.09,0.05,0.13,0.06c-0.48,0.57-0.76,1.31-0.78,2.1c0,0.09,0.01,0.17,0.02,0.26
						c-2.18,0.17-4.36,0.34-6.55,0.51c-0.21-1.72-1.78-3.24-3.76-2.9c-1.21,0.2-2.13,1.06-2.52,2.15c-1.32-0.58-2.65-1.17-3.97-1.75
						c0.26-1.11,0.12-2.32-0.43-3.36c1.75-0.87,3.5-1.74,5.24-2.61c1.17,1.8,3.5,2.72,5.65,1.88c0.52-0.2,0.98-0.49,1.37-0.84
						c0,0.01,0.01,0.01,0.01,0.02C64.24,107.51,66.09,109,67.95,110.5z"/>
					<path class="st6" d="M65.42,88.23c1.69,0,3.09,1.41,3.09,3.09c0,1.68-1.41,3.1-3.09,3.09c-1.72,0-3.05-1.4-3.09-3.09
						C62.37,89.64,63.7,88.23,65.42,88.23z"/>
					<path class="st5" d="M66.54,74.03c-0.76,0.76-1.53,1.51-2.3,2.27c0,0-0.01,0.01-0.01,0.01c-0.8-0.85-1.99-1.3-3.22-1.15
						c-0.3-2.62-0.73-5.23-1.25-7.82c0.01,0,0.01,0,0.02,0c0.54,0.12,0.98,0.42,1.4,0.78c1.07,0.91,2.02,1.93,3.32,2.53
						c0.49,0.22,1.01,0.39,1.54,0.5C65.75,72.18,65.97,73.23,66.54,74.03z"/>
					<path class="st6" d="M63.5,120.25c1.91,0,3.16,1.97,2.48,3.71c-1.65,0-3.3,0-4.96,0C60.34,122.22,61.59,120.25,63.5,120.25z"/>
					<path class="st6" d="M64.64,78.7c0.04,1.8-1.43,3.16-3.17,3.16c-0.04-1.55-0.12-3.1-0.25-4.65c-0.04-0.5-0.09-0.99-0.15-1.48
						C62.88,75.49,64.6,76.81,64.64,78.7z"/>
					<path class="st5" d="M62.48,82.3c0.47,1.89,0.94,3.79,1.41,5.69c-1.27,0.59-2.1,1.9-2.14,3.33c0.03,1.25,0.64,2.39,1.65,3.06
						c-0.76,1.22-1.52,2.44-2.27,3.66c-0.01,0.02-0.02,0.04-0.03,0.06c-0.46-0.19-0.94-0.31-1.45-0.35
						c1.51-3.37,1.76-7.25,1.83-10.9c0.03-1.47,0.03-2.94,0.01-4.41C61.83,82.44,62.16,82.39,62.48,82.3z"/>
					<path class="st6" d="M63.08,100.76c0.66,1.47,0.37,3.25-0.7,4.44c-1.06,1.18-2.73,1.65-4.25,1.21
						c-1.54-0.45-2.63-1.77-2.91-3.33c1.08-0.74,2.07-1.59,2.87-2.65c0.51-0.67,0.94-1.38,1.31-2.12
						C60.98,98.37,62.42,99.29,63.08,100.76z"/>
					<path class="st5" d="M58.68,116.94c0.85,1.23,1.69,2.46,2.54,3.68c-0.81,0.84-1.16,2.12-0.8,3.33c-0.04,0-0.09,0-0.13,0
						c-1.9,0-3.79,0-5.69,0c0.38-1.28-0.02-2.63-0.94-3.46c0.82-1.28,1.63-2.56,2.45-3.83c0.1,0.05,0.21,0.1,0.32,0.14
						c0.72,0.27,1.5,0.26,2.2,0.01C58.63,116.85,58.65,116.9,58.68,116.94z"/>
					<path class="st0" d="M60.73,78.83c0.14,2.11,0.21,4.24,0.19,6.37c-0.01,1.51-0.03,3.06-0.12,4.61
						c-0.05-0.05-0.12-0.09-0.21-0.07c-3.76,0.43-7.52,0.87-11.28,1.3c-0.16-1.37-1.04-2.57-2.36-3.07
						c-0.21-0.08-0.42-0.13-0.63-0.17c0.09-1.41,0.18-2.82,0.26-4.23c0-0.05,0-0.09-0.02-0.13c0.14-0.01,0.28-0.04,0.42-0.06
						c2.44-0.47,4.17-2.64,4.26-5.08C54.41,78.47,57.57,78.65,60.73,78.83z"/>
					<path class="st0" d="M60.69,78.25c-3.15-0.18-6.3-0.35-9.44-0.53c-0.01,0-0.01,0-0.02,0c-0.2-1.99-1.47-3.74-3.36-4.48
						c1-3.1,2-6.2,3-9.3c2.36,1.34,4.95,2.34,7.53,3.07c0.26,0.07,0.53,0.14,0.79,0.2c-0.02,0.05-0.02,0.1-0.01,0.16
						C59.92,70.98,60.42,74.6,60.69,78.25z"/>
					<path class="st0" d="M60.59,90.32c0.08-0.01,0.14-0.04,0.19-0.09c-0.23,3.13-0.84,6.23-2.5,8.91c-0.17,0.28-0.35,0.55-0.54,0.8
						c-2.87-2.42-5.74-4.84-8.61-7.25c-0.01-0.01-0.01-0.01-0.02-0.01c0.12-0.34,0.2-0.69,0.23-1.06
						C53.08,91.18,56.83,90.75,60.59,90.32z"/>
					<path class="st5" d="M59.27,18.78c0.47,0.89,1.17,1.57,1.99,2.12c-2.06,0.45-4.09,1.14-5.96,2.1c0.31-1.84,0.29-3.82-0.29-5.6
						c-0.28-0.87-0.82-1.18-1.6-1.56c-0.87-0.42-1.31-1.29-1.39-2.23c-0.06-0.78,0.12-1.56,0.48-2.25c0.38-0.5,0.79-0.99,1.21-1.45
						c0.3-0.23,0.62-0.42,0.97-0.56c1.67-0.67,3.77-0.04,4.78,1.46c1.08,1.63,0.16,3.9-1.19,5.06c-0.1,0.09-0.09,0.24-0.04,0.35
						C58.61,17.05,58.84,17.96,59.27,18.78z"/>
					<path class="st6" d="M57.56,111.06c1.46,0,2.69,1.22,2.68,2.68c0,1.46-1.22,2.68-2.68,2.68c-1.49,0-2.64-1.22-2.68-2.68
						C54.91,112.28,56.06,111.06,57.56,111.06z"/>
					<path class="st0" d="M48.85,93.21c2.84,2.39,5.68,4.79,8.53,7.18c-0.66,0.81-1.43,1.5-2.32,2.1c-1.25,0.83-2.56,1.56-3.87,2.29
						c-1.5,0.84-3.01,1.67-4.5,2.52c-0.32-3.56-0.65-7.11-0.97-10.67c-0.05-0.51-0.09-1.03-0.14-1.54c0.26,0.01,0.53-0.01,0.79-0.06
						C47.46,94.82,48.34,94.13,48.85,93.21z"/>
					<path class="st5" d="M55.62,116.35c-0.81,1.26-1.61,2.52-2.42,3.79c-0.48-0.3-1.04-0.47-1.68-0.47c-2.28,0-3.69,2.24-3.08,4.28
						c-0.52,0-1.05,0-1.57,0c-2.92,0-5.83,0-8.75,0c-0.48,0-1.2-0.13-1.69-0.02c-0.06-0.11-0.18-0.26-0.21-0.31
						c-0.08-0.15-0.17-0.29-0.25-0.44c1.15-0.75,2.31-1.5,3.46-2.25c0.34,0.4,0.78,0.71,1.31,0.91c1.28,0.48,2.76,0.07,3.63-0.97
						c1.43-1.72,0.63-4.13-1.1-5.01c0.28-0.59,0.56-1.17,0.84-1.76c1.22,0.54,2.66,0.58,3.98-0.08c1.12-0.56,1.89-1.49,2.27-2.55
						c1.33,0.59,2.66,1.17,3.98,1.76c0,0,0,0,0,0c-0.03,0.16-0.05,0.33-0.05,0.5C54.33,114.79,54.81,115.75,55.62,116.35z"/>
					<path class="st5" d="M55.06,104.45c-1.75,0.87-3.51,1.75-5.26,2.62c-0.14-0.21-0.31-0.4-0.49-0.59
						c0.61-0.34,1.22-0.68,1.83-1.02c1.19-0.66,2.41-1.3,3.55-2.04C54.78,103.79,54.9,104.13,55.06,104.45z"/>
					<path class="st0" d="M54.71,18.6c0.29,1.54,0.26,3.12-0.04,4.66c-0.01,0.03-0.01,0.05-0.01,0.07c-0.85,0.47-1.65,1-2.41,1.59
						c0.43-0.71,0.68-1.52,0.45-2.34c-0.31-1.16-1.31-1.69-2.37-1.56c-0.53-0.58-1.09-1.13-1.67-1.65c0.62-2.3,1.55-4.51,2.8-6.5
						c-0.12,1.14,0.16,2.31,1.04,3.07c0.43,0.37,1,0.48,1.44,0.82C54.49,17.17,54.59,17.97,54.71,18.6z"/>
					<path class="st6" d="M51.52,120.25c1.91,0,3.16,1.97,2.48,3.71c-1.65,0-3.3,0-4.96,0C48.36,122.22,49.61,120.25,51.52,120.25z"
						/>
					<path class="st0" d="M50.96,0.62c-1.38,1.44-2.76,2.89-4.15,4.33c-0.01,0.01-0.03,0.03-0.04,0.05
						c-0.2-0.12-0.41-0.23-0.64-0.32c-1.46-0.55-3.16-0.09-4.14,1.12c-0.97,1.19-1.1,2.91-0.3,4.22c0.52,0.86,1.38,1.45,2.33,1.68
						C44.01,11.73,44,11.76,44,11.81c0.02,1.45,0.05,2.9,0.07,4.36c-2.03-1.08-4.23-1.9-6.46-2.41c-2.91-0.67-5.78-0.49-8.66,0.23
						c-0.09,0.02-0.19,0.05-0.29,0.08c1.15-2,2.3-3.99,3.46-5.99c0.98-1.69,1.95-3.38,2.93-5.08c0.31-0.53,0.62-1.07,0.92-1.6
						c0.13-0.22,0.38-0.52,0.45-0.77c0.3,0.06,0.68,0,0.98,0c1.51,0,3.02,0,4.53,0C44.95,0.62,47.95,0.62,50.96,0.62z"/>
					<path class="st0" d="M50.36,63.65c-1.01,3.14-2.02,6.28-3.04,9.41c-1.38-0.37-2.86-0.14-4.07,0.57
						c0.03-0.07,0.03-0.15-0.01-0.23c-3.12-6.73-6.24-13.47-9.36-20.2c-0.04-0.09-0.11-0.13-0.18-0.14
						c0.67-0.74,1.14-1.67,1.33-2.67c2.64,0.39,5.28,0.77,7.92,1.16c0.04,0.73,0.15,1.46,0.3,2.18c0.44,2.03,1.3,3.97,2.41,5.72
						c0.9,1.43,2.14,2.53,3.53,3.48C49.58,63.17,49.97,63.41,50.36,63.65z"/>
					<path class="st0" d="M48.06,9.86c0.74,0.23,1.48,0.45,2.22,0.68c-1.67,2.11-2.98,4.51-3.86,7.05
						c-0.57-0.39-1.16-0.76-1.77-1.11c-0.03-1.56-0.05-3.12-0.07-4.68c0-0.01,0-0.02,0-0.03c0.32,0.03,0.65,0.01,0.97-0.05
						C46.66,11.52,47.56,10.8,48.06,9.86z"/>
					<path class="st5" d="M49.7,21.17c-0.05,0.02-0.1,0.03-0.14,0.05c-0.03,0.01-0.07,0.03-0.1,0.05c-0.02-0.03-0.05-0.05-0.09-0.07
						c-0.33-0.16-0.67-0.32-1.01-0.48c0.05-0.24,0.11-0.49,0.17-0.73C48.92,20.37,49.32,20.77,49.7,21.17z"/>
					<path class="st6" d="M48.81,106.8c2.03,1.99,1.58,5.46-1.01,6.73c-2.37,1.17-5.13-0.23-5.82-2.68c2.2-1.47,4.5-2.78,6.81-4.07
						C48.8,106.79,48.8,106.79,48.81,106.8z"/>
					<path class="st0" d="M46.55,34.46c0,0.02-0.01,0.04-0.01,0.06c-0.36,2.26-0.28,4.57-0.63,6.83c-0.06,0.38-0.13,0.76-0.26,1.13
						c-0.16,0.44-0.44,0.8-0.68,1.2c-0.66,1.07-1.19,2.22-1.54,3.43c-0.36,1.25-0.52,2.55-0.49,3.84c-2.61-0.38-5.22-0.76-7.82-1.14
						c0.01-0.12,0.02-0.23,0.02-0.35c-0.04-2.23-1.41-4.23-3.52-4.99c2.91-2.5,5.82-5,8.73-7.5c0.43-0.37,0.85-0.73,1.28-1.1
						c0.07,0.03,0.13,0.06,0.2,0.08c0.15,0.41,0.37,0.8,0.7,1.13c0.58,0.59,1.5,0.98,2.28,0.55C45.86,37.03,46.18,35.55,46.55,34.46
						z"/>
					<path class="st5" d="M46.17,18.11c0.02,0.02,0.05,0.03,0.07,0.04c-0.18,0.55-0.33,1.1-0.47,1.67
						c-0.83-0.22-1.67-0.35-2.51-0.36c-3.93-2.05-8.36-2.96-12.77-2.97c-0.37,0-0.37,0.57,0,0.58c0.34,0,0.69,0.01,1.03,0.02
						c0.01,3.55,1.71,6.87,4.09,9.44c-0.12,1.31,0.04,2.66,0.47,3.88c-2.92-1.97-4.99-4.9-6.12-8.25c-0.37-1.11-0.65-2.26-0.86-3.41
						c-0.12-0.71-0.22-1.42-0.29-2.14c-0.03-0.33-0.06-0.66-0.08-0.98c-0.01-0.17-0.02-0.34-0.03-0.51
						c-0.01-0.27-0.08-0.37,0.14-0.5c0.14-0.08,0.37-0.09,0.53-0.13c0.35-0.08,0.69-0.17,1.04-0.24c0.79-0.16,1.58-0.27,2.39-0.32
						c1.37-0.09,2.75,0.01,4.1,0.28C40.19,14.84,43.42,16.21,46.17,18.11z M39.73,16.52c0,0-0.37-0.4-0.93-0.56
						c-0.56-0.16-1.08-0.01-1.08-0.01s0.37,0.4,0.93,0.56C39.21,16.67,39.73,16.52,39.73,16.52z M37.33,15.04
						c0,0-0.38-0.34-0.89-0.4c-0.51-0.07-0.96,0.16-0.96,0.16s0.38,0.34,0.89,0.41C36.87,15.27,37.33,15.04,37.33,15.04z
						 M36.44,16.17c0,0-0.48-0.37-1.12-0.48c-0.65-0.11-1.22,0.08-1.22,0.08s0.47,0.37,1.12,0.48
						C35.87,16.36,36.44,16.17,36.44,16.17z M34.35,14.71c0,0-0.42-0.3-0.96-0.32c-0.53-0.02-0.98,0.25-0.98,0.25
						s0.42,0.3,0.96,0.32C33.91,14.98,34.35,14.71,34.35,14.71z"/>
					<path class="st0" d="M46.12,107.43c0.01,0.07,0.03,0.12,0.06,0.16c-1.24,0.71-2.47,1.45-3.68,2.23
						c-2.21-1.17-4.42-2.35-6.63-3.52c0.26-0.52,0.4-1.1,0.42-1.71c-0.02-0.94-0.36-1.82-0.94-2.51c2.3-2.3,4.61-4.61,6.91-6.91
						c0.33-0.33,0.65-0.65,0.98-0.98c0.5,0.43,1.11,0.72,1.75,0.84c0,0.01,0,0.03,0,0.04c0.33,3.6,0.66,7.2,0.98,10.8
						C46.03,106.39,46.08,106.91,46.12,107.43z"/>
					<path class="st0" d="M42.24,81.94c1,0.98,2.38,1.54,3.79,1.53c-0.01,0.03-0.02,0.06-0.02,0.09c-0.09,1.39-0.17,2.79-0.26,4.18
						c-1.11-0.02-2.22,0.46-2.94,1.35c-0.57,0.71-0.85,1.6-0.82,2.48c-0.03-0.01-0.05-0.01-0.08-0.01
						c-4.45-0.03-8.9-0.06-13.36-0.09c-0.06,0-0.11,0.02-0.15,0.04c-0.16-0.46-0.41-0.89-0.73-1.25
						C32.52,87.49,37.38,84.71,42.24,81.94z"/>
					<path class="st6" d="M42.88,116.3c0.97,0.41,1.68,1.38,1.67,2.48c0,1.46-1.22,2.68-2.68,2.68c-1.49,0-2.64-1.22-2.68-2.68
						c0.04-1.47,1.19-2.68,2.68-2.68c0.31,0,0.6,0.05,0.88,0.15C42.79,116.28,42.83,116.29,42.88,116.3z"/>
					<path class="st5" d="M43.6,113.84c-0.29,0.6-0.58,1.2-0.86,1.81c-0.43-0.13-0.91-0.16-1.41-0.08
						c-1.58,0.26-2.67,1.64-2.71,3.21c0.01,0.61,0.19,1.19,0.48,1.68c-1.14,0.74-2.27,1.48-3.41,2.22
						c-0.62-1.07-1.24-2.15-1.86-3.22c0.72-1.68,1.62-3.11,2.89-4.42c1.32-1.35,2.81-2.51,4.36-3.59c0.13-0.09,0.27-0.19,0.4-0.28
						C41.85,112.34,42.63,113.26,43.6,113.84z"/>
					<path class="st0" d="M42.84,93.78c-2.32,2.32-4.64,4.64-6.95,6.95c-0.31,0.31-0.62,0.62-0.93,0.93
						c-0.34-0.3-0.73-0.54-1.17-0.71c-1.06-0.4-2.23-0.3-3.2,0.21c-0.01-0.02-0.02-0.04-0.03-0.07c-1.17-1.79-2.34-3.59-3.51-5.38
						c0.95-0.68,1.54-1.8,1.57-3.01c0-0.23-0.03-0.45-0.07-0.67c0,0,0.01,0,0.01,0c4.45,0.03,8.9,0.06,13.36,0.09
						c0.06,0,0.1-0.01,0.14-0.04c0.08,0.42,0.23,0.84,0.46,1.21C42.61,93.48,42.72,93.63,42.84,93.78z"/>
					<path class="st0" d="M42.75,73.69c0.04,0.09,0.12,0.14,0.19,0.15c-0.4,0.28-0.76,0.61-1.08,0.99c-0.15,0.18-0.28,0.37-0.4,0.57
						c-3.68-1.22-7.36-2.43-11.04-3.65c0.03-0.22,0.05-0.45,0.05-0.68c-0.04-2.23-1.41-4.23-3.52-4.99
						c-0.26-0.09-0.54-0.17-0.81-0.22c0.92-3.73,1.84-7.46,2.77-11.19c0.64,0.12,1.3,0.12,1.95-0.01c0.96-0.19,1.81-0.64,2.5-1.26
						c0,0.03,0.01,0.06,0.03,0.09C36.51,60.22,39.63,66.95,42.75,73.69z"/>
					<path class="st0" d="M35.59,106.79c2.12,1.13,4.24,2.25,6.37,3.38c-0.15,0.1-0.31,0.2-0.46,0.31c0,0-0.01,0-0.01,0.01
						c-0.03,0.02-0.07,0.05-0.1,0.07c-1.71,1.15-3.38,2.4-4.85,3.86c-1.33,1.32-2.31,2.75-3.07,4.43c-0.21-0.35-0.41-0.71-0.61-1.06
						c-1.72-2.98-3.44-5.96-5.16-8.94c0.64-0.53,1.27-1.06,1.91-1.58c0.89,0.93,2.22,1.38,3.52,1.14
						C34.16,108.21,35.03,107.61,35.59,106.79z"/>
					<path class="st0" d="M41.84,81.51c-4.87,2.78-9.74,5.56-14.61,8.34c-0.29-0.24-0.63-0.44-1-0.58
						c-0.45-0.17-0.93-0.25-1.41-0.23c0.23-4.23,0.46-8.46,0.69-12.69c0.23-0.01,0.46-0.04,0.69-0.09c2.05-0.4,3.61-1.99,4.1-3.95
						c3.63,1.2,7.25,2.39,10.88,3.59c-0.74,1.58-0.68,3.48,0.24,5.01C41.55,81.12,41.69,81.32,41.84,81.51z"/>
					<path class="st0" d="M41.03,35.62c-2.92,2.51-5.84,5.02-8.76,7.53c-0.43,0.37-0.86,0.74-1.28,1.1
						c-0.01,0.01-0.02,0.02-0.03,0.04c-1.91-0.41-3.97,0.29-5.22,1.82c-1.4,1.71-1.59,4.19-0.44,6.09c0.7,1.15,1.8,1.97,3.05,2.33
						c-0.93,3.75-1.85,7.5-2.78,11.25c-1.69-0.12-3.4,0.59-4.49,1.93c-1.4,1.72-1.59,4.19-0.44,6.09c0.92,1.53,2.56,2.46,4.3,2.55
						c-0.23,4.25-0.46,8.51-0.7,12.76c-0.83,0.16-1.61,0.61-2.16,1.28c-0.97,1.19-1.1,2.91-0.3,4.22c0.06,0.11,0.13,0.21,0.21,0.3
						c-0.57,0.36-1.15,0.72-1.72,1.07c-0.37-0.65-0.75-1.29-1.12-1.94c-2.56-4.43-5.12-8.86-7.68-13.3
						c-2.14-3.71-4.28-7.41-6.42-11.12c-1.27-2.2-2.54-4.4-3.81-6.61c-0.14-0.25-0.28-0.49-0.43-0.74c1.17-2.02,2.33-4.04,3.5-6.06
						c2.84-4.92,5.69-9.85,8.53-14.77c3.45-5.97,6.89-11.94,10.34-17.91c1.64-2.84,3.28-5.68,4.92-8.52
						c0.02,0.2,0.05,0.41,0.06,0.58c0.03,0.46,0.07,0.91,0.12,1.37c0.14,1.32,0.37,2.64,0.71,3.93c0.59,2.23,1.52,4.39,2.88,6.25
						c1.24,1.69,2.8,3.1,4.59,4.17C37.43,33.28,39.1,34.7,41.03,35.62z"/>
					<path class="st7" d="M42.11,19.52c-1.43,0.2-2.8,0.82-3.91,1.74c-1.37,1.14-2.19,2.77-2.49,4.51c-2.1-2.4-3.59-5.44-3.61-8.67
						C35.55,17.28,38.98,18.05,42.11,19.52z"/>
					<path class="st0" d="M30.06,101.39c0.02,0.03,0.04,0.05,0.06,0.07c-0.26,0.19-0.49,0.41-0.7,0.66
						c-1.03,1.25-1.17,3.06-0.34,4.45c0.05,0.09,0.11,0.17,0.16,0.25c-0.61,0.51-1.22,1.01-1.83,1.52
						c-0.22-0.39-0.44-0.77-0.67-1.16c-2.06-3.57-4.12-7.13-6.18-10.7c0.61-0.38,1.21-0.76,1.82-1.13c0.85,0.82,2.07,1.2,3.26,0.97
						c0.32-0.06,0.63-0.16,0.91-0.3C27.72,97.81,28.89,99.6,30.06,101.39z"/>
				</g>
			</g>
		</g>
		<g>
			<g>
				<g>
					<path class="st8" d="M74.44,18.38c-1.36-0.37-2.8-0.47-4.19-0.28c1.78-1.18,3.03-3.32,2.73-5.44
						c-2.82,0.46-5.72,1.73-7.73,3.77l0.81-4.04c-1.72,1.13-3.05,2.83-3.73,4.77c-0.28,1.13-0.72,2.24-0.68,4.31
						c2.35-0.25,4.49-1.23,5.4,0.58c1.24,2.47,3.83,2.15,3.83,2.15C70.74,21.78,72.23,19.35,74.44,18.38z"/>
				</g>
				<g>
					<path class="st8" d="M49.85,57.82c-5.95-9.89-1.52-11.59-1.18-15.68c0.28-3.39-2.25-15.7,13.89-21.27
						c-2.26-0.16-5.56,1.44-7.51,2.59c-3.19,1.87-5.73,3.91-7.11,7.34c-1.38,3.45-0.38,7.48-1.66,10.97
						c-0.4,1.1-0.97,2.14-1.49,3.19c-2.82,5.66-1.1,12.68,3.75,16.98c0.89,0.79,2.14,1.53,3.19,2.09c1.91,1.01,4.12,1.3,6.19,1.94
						c1.13,0.35,2.22,0.8,3.26,1.36C57.52,65.22,52.73,62.62,49.85,57.82z"/>
				</g>
				<g>
					<path class="st8" d="M63.5,64.84c-1.16-0.21-2.24-0.55-3.16-0.99c-2.72-1.29-6.41-4.82-4.22-10.75c0,0-2.05,5.69,4.91,8.49
						c0.54,0.22,1.09,0.4,1.64,0.55C62.67,62.14,62.26,63.41,63.5,64.84z"/>
				</g>
				<g>
					<path class="st8" d="M56.55,8.92c-3.82,2.29-2.15,5.54-1.03,6.39c0.94,0.72,1.51,1.69,1.72,2.8c0.21,1.11,0.13,2.25,0.04,3.37
						c-0.01,0.19-0.03,0.38-0.14,0.54c-0.09,0.13-0.24,0.21-0.39,0.29c-0.49,0.26-0.98,0.51-1.47,0.77
						c0.22-1.71,0.12-3.46-0.29-5.14c-0.15-0.62-0.37-1.26-0.86-1.66c-0.26-0.21-0.58-0.34-0.86-0.51
						c-1.43-0.88-1.79-2.98-0.99-4.46s1.46-2.47,4.19-2.4"/>
				</g>
				<g>
					<path class="st8" d="M79.83,9.01c-2.12,0.33-3.27,2.51-3.27,4.44c0,3.19,1.75,1.71,1.34,3.99c-0.07,1.05-0.66,3.96-1.93,4.27
						c-0.14,0.04-1.81-0.47-2.92-0.7c1.51-1.29,2.8-2.22,3.06-4.99c-0.57-0.68-1.08-1.44-1.3-2.31c-0.33-1.28,0.06-2.72,0.99-3.67
						C76.74,9.1,78.42,8.67,79.83,9.01"/>
				</g>
				<g>
					<path class="st8" d="M72.05,66.93c-2.81,2.11-5.52,1.87-8.01,0.29c-0.47,0.6-0.13,1.01,1.04,1.58c1.65,0.8,4.34,0.88,6.51-0.5
						C72.31,67.85,72.41,67.76,72.05,66.93z"/>
				</g>
			</g>
			<g>
				<path class="st8" d="M60.08,69.85c1.74,1.64,3.99,2.73,6.35,3.09c2.37,0.35,4.84-0.04,6.98-1.1c0.67-0.33,1.33-0.75,1.69-1.4
					c0.69-1.22,0.11-2.78,0.43-4.15c-0.79,0.07-1.27,0.86-1.74,1.5c-1.06,1.44-2.67,2.46-4.43,2.81s-3.63,0.01-5.16-0.92
					c-0.78-0.48-1.47-1.1-2.23-1.62c-0.76-0.52-1.62-0.95-2.54-0.96c0.16,0.9,0.31,1.8,0.47,2.7"/>
			</g>
			<path class="st9" d="M71.88,72.46c0.17-0.72-0.09-1.48-0.57-2.15c-0.38,0.2-0.77,0.37-1.2,0.5c-1.08,0.32-2.42,0.39-3.57,0.23
				c-0.2,0.67-0.23,1.33,0.03,1.91C68.22,73.14,70.3,72.96,71.88,72.46z"/>
			<path class="st9" d="M46.78,49.47c-0.79-0.65-1.82-1.02-2.9-1c-0.01,0-0.27,0-0.28,0c-0.44,2.72,0.08,5.61,1.26,8.25
				c0.04,0.08,0.08,0.17,0.12,0.25c1.34-0.38,2.56-1.42,3.06-2.65C47.17,52.34,46.83,50.78,46.78,49.47z"/>
			<path class="st9" d="M50.86,63.26c0.18-0.41,0.32-1.01,0.32-1.48c0-1.87-1.39-3.34-3.26-3.34c-0.68,0-1.31,0.2-1.84,0.54
				C47.18,60.85,48.86,62.45,50.86,63.26z"/>
			<path class="st10" d="M64.09,64.93c2.73,0.48,5.04,0.75,7.47,0c-1.01-0.88-2.21-1.28-3.54-1.34
				C66.69,63.54,65.17,64.14,64.09,64.93"/>
			<g>
				<path class="st11" d="M32.33,16.93c-0.04,0.83,4.99,1.9,5.08,5.98c1.25-2.31,3.15-2.97,5.6-3.34c-1.36-0.71-0.12-0.17-1.48-0.71
					C38.99,17.48,32.33,16.93,32.33,16.93z"/>
			</g>
			<g>
				<path class="st11" d="M100.75,17.1c0,0-4.34,2.78-2.76,8.57c-0.07-0.97-2.98-5.07-7.05-5.17C93.37,18.3,99.47,16.86,100.75,17.1
					z"/>
			</g>
			<g>
				<path class="st8" d="M57.89,50.2c-0.09,0.68-0.15,1.38,0.08,2.02c0.23,0.64,0.85,1.19,1.53,1.12c0.46-0.05,0.86-0.37,1.14-0.74
					c0.79-1.04,0.85-2.57,0.14-3.67c-0.04,0.51-0.08,1.03-0.31,1.49c-0.23,0.46-0.69,0.83-1.2,0.8c-0.57-0.04-0.99-0.54-1.32-1.02"
					/>
			</g>
			<g>
				<path class="st8" d="M74.8,50.2c-0.09,0.68-0.26,1.43,0.08,2.02c0.98,1.67,2.5,1.77,2.95,0.22c0.24-0.85,0.36-2.4-1.14-3.69
					c-0.04,0.51,0,2.51-0.51,2.47c-0.57-0.04-0.99-0.54-1.32-1.02"/>
			</g>
			<g>
				<path class="st12" d="M52.15,44.67c-2.51-2.88-0.95-6.49-0.95-6.49c-1.13,1.3-1.59,3.15-1.21,4.83
					c0.38,1.68,1.59,3.15,3.17,3.84c1.58,0.69,3.48,0.81,4.97-0.05C55.87,47.25,53.56,46.3,52.15,44.67z"/>
			</g>
			<g>
				<path class="st12" d="M76.68,44.76c-2.44-2.94-0.59-7.07-0.59-7.07c-1.13,1.3-2.17,3.64-1.79,5.32
					c0.38,1.68,1.64,3.04,3.17,3.84c1.7,0.88,3.7,1.14,6.71-1.02C81.29,46.79,78.25,46.65,76.68,44.76z"/>
			</g>
		</g>
		<path class="st13" d="M143.76,62.05c-0.36-0.82-0.92-1.6-1.37-2.37c-2.35-4.06-4.69-8.12-7.04-12.19
			c-3.37-5.84-6.74-11.67-10.11-17.5c-3.3-5.71-6.6-11.43-9.9-17.14c-2.14-3.7-4.27-7.4-6.41-11.1c-0.3-0.52-0.6-1.04-0.9-1.56
			c-0.03-0.06-0.08-0.1-0.13-0.12c0,0,0,0,0,0c-0.01-0.01-0.02-0.01-0.04-0.01c-0.03-0.01-0.05-0.01-0.09-0.01H76.24
			c-0.03,0-0.05,0-0.08,0H39.15c-0.9,0-1.87-0.1-2.77,0c-0.04,0-0.08,0-0.12,0c-0.1,0-0.2,0.06-0.25,0.14
			c-1.19,2.06-2.37,4.11-3.56,6.17c-2.85,4.94-5.7,9.87-8.55,14.81c-3.43,5.95-6.87,11.9-10.31,17.85
			c-2.98,5.16-5.96,10.33-8.94,15.49c-0.98,1.71-1.97,3.41-2.96,5.12c-0.45,0.79-1.03,1.58-1.39,2.41c-0.01,0.04-0.04,0.07-0.06,0.1
			c-0.05,0.09-0.05,0.2,0,0.29c1.2,2.08,2.4,4.15,3.6,6.23c2.86,4.96,5.73,9.92,8.59,14.88c3.47,6,6.93,12.01,10.4,18.01
			c2.97,5.14,5.94,10.29,8.91,15.43c0.97,1.68,1.94,3.35,2.9,5.03c0.43,0.74,0.8,1.63,1.33,2.3c0.28,0.37,0.96,0.22,1.39,0.22h70.02
			c0.53,0,0.65-0.1,0.91-0.56c0.6-1.04,1.2-2.08,1.8-3.12c2.54-4.4,5.08-8.8,7.63-13.21c3.4-5.9,6.81-11.79,10.21-17.69
			c3.21-5.56,6.42-11.12,9.63-16.68c1.92-3.32,3.83-6.64,5.75-9.96C143.52,62.94,143.95,62.48,143.76,62.05z M100.77,0.62
			c0,0.01,0.01,0.03,0.02,0.05c0.45,0.81,0.89,1.61,1.34,2.42c-0.51,0.46-0.83,1.12-0.83,1.84c0,0.14,0.01,0.29,0.04,0.43
			c-2.9,0.43-5.79,0.87-8.69,1.3c-0.35,0.05-0.71,0.1-1.06,0.16c-0.29-1.17-1.11-2.16-2.28-2.6c-1.46-0.55-3.16-0.09-4.14,1.12
			c-0.02,0.02-0.04,0.05-0.06,0.07c-0.01-0.01-0.03-0.02-0.05-0.03c-2.54-1.54-5.08-3.08-7.62-4.62c-0.07-0.04-0.14-0.09-0.21-0.13
			H100.77z M81.28,107.27c0.09,0.15,0.18,0.29,0.29,0.42c-1.57,1.13-3.15,2.25-4.72,3.37c-0.17-2.44-0.56-4.87-0.89-7.29
			c-0.12-0.86-0.22-1.71-0.32-2.57c1.61,0.9,3.22,1.81,4.83,2.71c0.03,0.02,0.06,0.03,0.09,0.03
			C80.43,105.08,80.67,106.26,81.28,107.27z M80.66,103.36c-1.7-0.95-3.4-1.91-5.1-2.86c-0.57-5.2-0.83-10.44-0.79-15.67
			c1.53,0.02,3.07,0.04,4.6,0.07c-0.04,1.01,0.21,2.03,0.75,2.92c0.97,1.59,2.71,2.54,4.53,2.55c-0.01,0.03-0.02,0.06-0.02,0.1
			c0.05,2.96,0.09,5.92,0.14,8.88c-1.18,0.24-2.27,0.87-3.05,1.83C81.19,101.82,80.84,102.57,80.66,103.36z M50.1,107.57
			c1.75-0.87,3.5-1.74,5.24-2.61c1.17,1.8,3.5,2.72,5.65,1.88c0.52-0.2,0.98-0.49,1.37-0.84c0,0.01,0.01,0.01,0.01,0.02
			c1.86,1.49,3.71,2.99,5.57,4.48c0.04,0.03,0.09,0.05,0.13,0.06c-0.48,0.57-0.76,1.31-0.78,2.1c0,0.09,0.01,0.17,0.02,0.26
			c-2.18,0.17-4.36,0.34-6.55,0.51c-0.21-1.72-1.78-3.24-3.76-2.9c-1.21,0.2-2.13,1.06-2.52,2.15c-1.32-0.58-2.65-1.17-3.97-1.75
			C50.78,109.82,50.65,108.61,50.1,107.57z M35.36,102.07c2.3-2.3,4.61-4.61,6.91-6.91c0.33-0.33,0.65-0.65,0.98-0.98
			c0.5,0.43,1.11,0.72,1.75,0.84c0,0.01,0,0.03,0,0.04c0.33,3.6,0.66,7.2,0.98,10.8c0.05,0.52,0.09,1.04,0.14,1.56
			c0.01,0.07,0.03,0.12,0.06,0.16c-1.24,0.71-2.47,1.45-3.68,2.23c-2.21-1.17-4.42-2.35-6.63-3.52c0.26-0.52,0.4-1.1,0.42-1.71
			C36.28,103.65,35.94,102.76,35.36,102.07z M94.71,48.93c-0.88,0.65-1.77,1.3-2.65,1.95c-0.03-0.58-0.11-1.16-0.24-1.75
			c-0.26-1.18-0.71-2.3-1.17-3.42c-0.36-0.86-0.78-1.75-0.92-2.68c-0.14-0.87-0.03-1.8-0.08-2.68c-0.04-0.67-0.1-1.33-0.18-1.99
			c0.58,0.43,1.3,0.45,1.98,0.05c0.62-0.37,1.03-0.95,1.26-1.61c1.63-0.67,3.11-1.67,4.21-3.03c0.13,1.07,0.98,1.96,2.05,2.14
			c-0.18,2.65-0.35,5.3-0.53,7.94c-1.19-0.1-2.41,0.39-3.18,1.33C94.4,46.24,94.2,47.7,94.71,48.93z M87.85,58.82
			c-1.8-0.38-3.55,0.64-4.19,2.26c-0.22-0.05-0.44-0.1-0.66-0.15c0.02-0.12,0.04-0.25,0.04-0.37c0-1.07-0.9-1.98-1.98-1.98
			c-1.08,0-1.89,0.86-1.97,1.9c0,0.02-0.01,0.05-0.01,0.08c0,0.03,0,0.05,0.01,0.08c0.08,1.04,0.89,1.9,1.97,1.9
			c0.75,0,1.41-0.43,1.74-1.06c0.23,0.05,0.46,0.1,0.68,0.15c-0.1,0.47-0.12,0.97-0.03,1.5c0.01,0.03,0.02,0.06,0.03,0.08
			c-0.92,0.5-1.88,0.93-2.87,1.3c-1.25,0.47-2.54,0.83-3.82,1.19c-0.34,0.09-0.69,0.18-1.03,0.3c-0.03,0-0.05,0.01-0.08,0.03
			c-0.41,0.14-0.79,0.32-1.13,0.61c-0.88,0.76-1.49,1.79-2.37,2.56c-1.38,1.2-3.15,1.64-4.95,1.53c-1.71-0.1-3.18-0.8-4.45-1.92
			c-0.82-0.72-1.61-1.68-2.7-1.98c-1.05-0.29-2.1-0.52-3.14-0.87c-1.59-0.54-3.15-1.17-4.65-1.92c-0.4-0.2-0.79-0.4-1.18-0.62
			c0.29-0.68,0.38-1.42,0.27-2.12c0,0,0.01,0,0.01,0c0.19-0.08,0.38-0.16,0.56-0.24c0.03-0.01,0.05-0.03,0.06-0.05
			c0.33,0.63,1,1.07,1.75,1.07c1.08,0,1.89-0.86,1.97-1.9c0.01-0.02,0.01-0.05,0.01-0.08c0-0.03,0-0.05-0.01-0.08
			c-0.08-1.04-0.89-1.9-1.97-1.9c-1.07,0-1.98,0.9-1.98,1.98c0,0.15,0.02,0.29,0.05,0.43c-0.06,0-0.12,0.01-0.18,0.03
			c-0.14,0.06-0.28,0.12-0.42,0.18c-0.19-0.57-0.51-1.09-0.98-1.52c-0.93-0.85-2.19-1.13-3.36-0.85c-0.17-0.45-0.34-0.9-0.51-1.35
			c0-0.01-0.01-0.02-0.01-0.03c1.59-0.97,2.55-2.8,2.3-4.74c-0.32-2.44-2.47-4.19-4.9-4.16c0.35-1.59,1.01-3.11,1.91-4.48
			c0.94-1.43,0.92-3.28,1.02-4.93c0.13-2.16,0.26-4.37,0.94-6.45c1.82-5.6,7.16-9.13,12.64-10.53c1.13-0.29,2.27-0.5,3.42-0.65
			c0.36-0.05,0.37-0.62,0-0.58c-0.63,0.08-1.26,0.19-1.89,0.31c0.01-0.06,0-0.12-0.02-0.17c0.03-0.04,0.05-0.09,0.05-0.16
			c0.08-2.88,1.53-5.59,3.83-7.28c-0.44,1.14-0.66,2.34-0.65,3.58c0,0.24,0.32,0.4,0.49,0.2c1.91-2.13,4.51-3.56,7.34-3.99
			c0.04,2.08-1.1,4.04-2.95,5.02c-0.29,0.15-0.09,0.63,0.22,0.53c1.21-0.39,2.42-0.45,3.58-0.01c-1.03,0.45-1.88,1.19-2.45,2.11
			c-0.02,0.02-0.03,0.04-0.04,0.07c-0.6,1.01-0.84,2.21-0.6,3.46c0.07,0.36,0.63,0.21,0.56-0.15c-0.21-1.04-0.01-2.05,0.47-2.9
			c3.88,0.58,7.7,1.93,10.71,4.52c0.12,0.23,0.26,0.45,0.41,0.65c0.43,0.57,0.94,1.06,1.41,1.58c0.64,0.7,1.19,1.46,1.63,2.31
			c0.83,1.46,1.43,3.02,1.96,4.6c0.3,0.91,0.52,1.94,1.01,2.79c0,0.02,0,0.05,0,0.08c0.14,0.88,0.23,1.76,0.28,2.65
			c0.05,0.83,0,1.66,0.05,2.49c0.06,0.87,0.4,1.71,0.72,2.51c0.45,1.1,0.89,2.19,1.21,3.3c-2.26-0.04-4.34,1.5-4.83,3.77
			c-0.45,2.1,0.56,4.17,2.35,5.2C88.36,57.97,88.07,58.37,87.85,58.82z M88.2,59.51c-1.2,1.37-2.62,2.49-4.19,3.41
			C83.63,60.52,86,58.67,88.2,59.51z M82.47,60.56c0,1.81-2.72,1.8-2.8,0C79.74,58.77,82.46,58.75,82.47,60.56z M74.22,88.76
			c-1.54-0.69-2.55-2.24-2.49-3.96c0.06-1.62,1.08-3.02,2.54-3.65C74.18,83.69,74.16,86.23,74.22,88.76z M67.96,100.85
			c-1.34,0.32-2.67,0.64-4.01,0.96c-0.04-0.32-0.12-0.64-0.23-0.96c-0.11-0.31-0.26-0.62-0.44-0.91c-0.43-0.67-1-1.21-1.67-1.58
			c0-0.01,0.01-0.01,0.01-0.02c0.76-1.22,1.52-2.45,2.28-3.67c0.07,0.03,0.15,0.07,0.22,0.09c1.04,0.39,2.2,0.27,3.14-0.28
			c0.01,0.01,0.01,0.02,0.02,0.03c0.66,0.82,1.31,1.63,1.97,2.45c-0.88,0.68-1.42,1.76-1.45,2.91
			C67.82,100.21,67.88,100.53,67.96,100.85z M41.99,91.57c-0.03-0.01-0.05-0.01-0.08-0.01c-4.45-0.03-8.9-0.06-13.36-0.09
			c-0.06,0-0.11,0.02-0.15,0.04c-0.16-0.46-0.41-0.89-0.73-1.25c4.86-2.77,9.72-5.55,14.58-8.32c1,0.98,2.38,1.54,3.79,1.53
			c-0.01,0.03-0.02,0.06-0.02,0.09c-0.09,1.39-0.17,2.79-0.26,4.18c-1.11-0.02-2.22,0.46-2.94,1.35
			C42.24,89.8,41.96,90.69,41.99,91.57z M59.18,67.37c0.73,3.61,1.24,7.23,1.51,10.88c-3.15-0.18-6.3-0.35-9.44-0.53
			c-0.01,0-0.01,0-0.02,0c-0.2-1.99-1.47-3.74-3.36-4.48c1-3.1,2-6.2,3-9.3c2.36,1.34,4.95,2.34,7.53,3.07
			c0.26,0.07,0.53,0.14,0.79,0.2C59.18,67.26,59.17,67.31,59.18,67.37z M66.54,74.03c-0.76,0.76-1.53,1.51-2.3,2.27
			c0,0-0.01,0.01-0.01,0.01c-0.8-0.85-1.99-1.3-3.22-1.15c-0.3-2.62-0.73-5.23-1.25-7.82c0.01,0,0.01,0,0.02,0
			c0.54,0.12,0.98,0.42,1.4,0.78c1.07,0.91,2.02,1.93,3.32,2.53c0.49,0.22,1.01,0.39,1.54,0.5C65.75,72.18,65.97,73.23,66.54,74.03z
			 M46.57,83.44c0.14-0.01,0.28-0.04,0.42-0.06c2.44-0.47,4.17-2.64,4.26-5.08c3.16,0.18,6.32,0.35,9.48,0.53
			c0.14,2.11,0.21,4.24,0.19,6.37c-0.01,1.51-0.03,3.06-0.12,4.61c-0.05-0.05-0.12-0.09-0.21-0.07c-3.76,0.43-7.52,0.87-11.28,1.3
			c-0.16-1.37-1.04-2.57-2.36-3.07c-0.21-0.08-0.42-0.13-0.63-0.17c0.09-1.41,0.18-2.82,0.26-4.23
			C46.59,83.51,46.58,83.47,46.57,83.44z M49.33,91.61c3.75-0.43,7.51-0.86,11.26-1.3c0.08-0.01,0.14-0.04,0.19-0.09
			c-0.23,3.13-0.84,6.23-2.5,8.91c-0.17,0.28-0.35,0.55-0.54,0.8c-2.87-2.42-5.74-4.84-8.61-7.25c-0.01-0.01-0.01-0.01-0.02-0.01
			C49.22,92.34,49.3,91.98,49.33,91.61z M61.48,86.85c0.03-1.47,0.03-2.94,0.01-4.41c0.34,0,0.67-0.04,0.99-0.13
			c0.47,1.89,0.94,3.79,1.41,5.69c-1.27,0.59-2.1,1.9-2.14,3.33c0.03,1.25,0.64,2.39,1.65,3.06c-0.76,1.22-1.52,2.44-2.27,3.66
			c-0.01,0.02-0.02,0.04-0.03,0.06c-0.46-0.19-0.94-0.31-1.45-0.35C61.16,94.38,61.41,90.5,61.48,86.85z M61.47,81.86
			c-0.04-1.55-0.12-3.1-0.25-4.65c-0.04-0.5-0.09-0.99-0.15-1.48c1.8-0.24,3.52,1.08,3.56,2.97C64.68,80.5,63.2,81.85,61.47,81.86z
			 M50.62,63.13c-0.99-0.58-1.93-1.22-2.77-1.99c-0.62-0.56-1.15-1.2-1.61-1.9c1.17-0.64,2.62-0.55,3.63,0.37
			C50.85,60.52,51.12,61.92,50.62,63.13z M45.92,58.76c-0.25-0.41-0.48-0.83-0.69-1.26c0.23-0.07,0.44-0.15,0.65-0.24
			c0.16,0.43,0.32,0.86,0.48,1.29C46.21,58.61,46.06,58.68,45.92,58.76z M44.98,56.97c-0.04-0.08-0.08-0.17-0.12-0.25
			c-0.88-1.95-1.39-4.08-1.36-6.23c0.01-0.62,0.07-1.24,0.17-1.84c0.03,0.01,0.06,0.01,0.09,0.01c2.18-0.04,4.12,1.54,4.37,3.74
			C48.36,54.51,46.98,56.42,44.98,56.97z M45.67,59.44c0.9,1.43,2.14,2.53,3.53,3.48c0.38,0.25,0.76,0.5,1.15,0.73
			c-1.01,3.14-2.02,6.28-3.04,9.41c-1.38-0.37-2.86-0.14-4.07,0.57c0.03-0.07,0.03-0.15-0.01-0.23c-3.12-6.73-6.24-13.47-9.36-20.2
			c-0.04-0.09-0.11-0.13-0.18-0.14c0.67-0.74,1.14-1.67,1.33-2.67c2.64,0.39,5.28,0.77,7.92,1.16c0.04,0.73,0.15,1.46,0.3,2.18
			C43.7,55.75,44.56,57.69,45.67,59.44z M46.36,95.02c1.09-0.21,1.98-0.9,2.49-1.82c2.84,2.39,5.68,4.79,8.53,7.18
			c-0.66,0.81-1.43,1.5-2.32,2.1c-1.25,0.83-2.56,1.56-3.87,2.29c-1.5,0.84-3.01,1.67-4.5,2.52c-0.32-3.56-0.65-7.11-0.97-10.67
			c-0.05-0.51-0.09-1.03-0.14-1.54C45.84,95.09,46.1,95.08,46.36,95.02z M58.08,100.43c0.51-0.67,0.94-1.38,1.31-2.12
			c1.59,0.06,3.03,0.98,3.69,2.45c0.66,1.47,0.37,3.25-0.7,4.44c-1.06,1.18-2.73,1.65-4.25,1.21c-1.54-0.45-2.63-1.77-2.91-3.33
			C56.29,102.34,57.28,101.49,58.08,100.43z M65.42,94.41c-1.72,0-3.05-1.4-3.09-3.09c0.04-1.69,1.38-3.09,3.09-3.09
			c1.69,0,3.09,1.41,3.09,3.09C68.51,93,67.1,94.42,65.42,94.41z M64.72,87.72c-0.1,0.02-0.19,0.04-0.29,0.07
			c-0.47-1.89-0.94-3.79-1.41-5.68c0.61-0.27,1.14-0.7,1.52-1.24c2.23,1.08,4.46,2.15,6.69,3.23c-0.04,0.23-0.07,0.47-0.08,0.71
			c-0.04,1.04,0.28,2.02,0.84,2.83c-0.04,0-0.08,0.02-0.12,0.05c-1.05,0.69-2.09,1.38-3.14,2.07c-0.05-0.11-0.11-0.22-0.17-0.32
			C67.77,88.12,66.22,87.44,64.72,87.72z M71.38,83.53c-2.18-1.05-4.36-2.1-6.54-3.16c0.27-0.55,0.41-1.17,0.37-1.83
			c-0.05-0.67-0.27-1.28-0.62-1.79c0.02-0.01,0.04-0.03,0.06-0.05c0.75-0.75,1.51-1.49,2.26-2.24c0.68,0.67,1.66,1.05,2.74,0.88
			c0.41-0.06,0.78-0.2,1.1-0.38c0.96,1.95,1.92,3.91,2.88,5.86C72.57,81.42,71.76,82.38,71.38,83.53z M69.39,74.8
			c-1.98,0.17-3.31-1.75-2.76-3.55c1.16,0.16,2.37,0.08,3.47-0.25c0.43-0.13,0.82-0.3,1.2-0.5C72.5,72.17,71.49,74.62,69.39,74.8z
			 M52.37,60.09c0-1.81,2.72-1.8,2.8,0C55.09,61.89,52.38,61.91,52.37,60.09z M52.51,15.94c0.43,0.37,1,0.48,1.44,0.82
			c0.54,0.42,0.64,1.22,0.76,1.85c0.29,1.54,0.26,3.12-0.04,4.66c-0.01,0.03-0.01,0.05-0.01,0.07c-0.85,0.47-1.65,1-2.41,1.59
			c0.43-0.71,0.68-1.52,0.45-2.34c-0.31-1.16-1.31-1.69-2.37-1.56c-0.53-0.58-1.09-1.13-1.67-1.65c0.62-2.3,1.55-4.51,2.8-6.5
			C51.35,14,51.63,15.17,52.51,15.94z M83.07,11.59c-0.06-0.15-0.13-0.3-0.2-0.44c1.91,2.11,3.51,4.6,4.44,7.3
			c-0.04,0.01-0.08,0.03-0.12,0.06c-1.2,0.96-2.29,2.02-3.28,3.19c-0.03,0.03-0.04,0.06-0.05,0.09c-0.52,0.02-1.02,0.23-1.42,0.72
			c-0.5,0.61-0.6,1.33-0.46,2.04c-0.58-0.44-1.18-0.84-1.8-1.2c0-0.03,0-0.06,0-0.09c-0.27-1.36-0.33-2.75-0.13-4.13
			c0.08-0.56,0.18-1.13,0.37-1.66c0.25-0.71,0.78-0.86,1.39-1.18C83.48,15.43,83.7,13.18,83.07,11.59z M92.06,20.98
			c1.32,0.16,2.63,0.72,3.65,1.56c2.64,2.16,3.17,6.29,1.74,9.3c-0.05,0.1-0.1,0.19-0.15,0.29c-0.06,0.1-0.12,0.2-0.17,0.3
			c-0.97,1.66-2.5,2.88-4.25,3.67c0.01-0.08,0.02-0.15,0.03-0.23c0.15-1.61-0.38-3.38-0.93-4.87c-0.59-1.61-1.37-3.15-2.35-4.56
			c-0.96-1.38-2.11-2.78-3.46-3.8c-0.12-0.09-0.26-0.18-0.39-0.27C87.69,21.48,89.96,20.73,92.06,20.98z M91.13,20.36
			c3.53-2.03,7.56-3.05,11.62-3.26c-0.02,3.51-1.77,6.78-4.17,9.27c-0.62-2.96-2.88-5.29-5.95-5.88
			C92.14,20.4,91.63,20.36,91.13,20.36z M92.14,36.69c-0.14,0.39-0.36,0.74-0.7,1.02c-0.23,0.2-0.53,0.37-0.84,0.43
			c-0.62,0.1-1.03-0.38-1.31-0.87c-0.53-0.95-0.77-2.11-1.12-3.13c-0.51-1.48-1.1-2.93-1.87-4.29c-0.59-1.15-1.4-2.09-2.27-3.02
			c-0.41-0.44-0.86-0.92-1.16-1.47c-0.01-0.05-0.03-0.1-0.08-0.14c-0.18-0.35-0.3-0.73-0.31-1.14c-0.02-0.74,0.43-1.52,1.18-1.69
			c0.44-0.1,0.89,0,1.31,0.2c0.04,0.03,0.08,0.05,0.12,0.06c0.26,0.13,0.5,0.3,0.72,0.46c1.22,0.91,2.27,2.18,3.15,3.41
			c1.72,2.39,2.99,5.28,3.33,8.22c0.06,0.55,0.06,1.13-0.08,1.67C92.15,36.48,92.12,36.59,92.14,36.69z M85.14,22.05
			c-0.2-0.08-0.4-0.15-0.6-0.19c0.9-1.03,1.89-1.98,2.96-2.85c0.19,0.62,0.35,1.26,0.46,1.9C86.97,21.21,86.02,21.62,85.14,22.05z
			 M82.04,15.42c-0.62,0.6-1.55,0.64-1.99,1.45c-0.47,0.85-0.57,1.98-0.65,2.93c-0.09,1.07-0.03,2.13,0.15,3.18
			c-1.8-0.97-3.76-1.65-5.77-2.1c0.69-0.53,1.26-1.18,1.69-1.96c0.47-0.87,0.75-1.82,1.15-2.73c0.05-0.11,0.06-0.26-0.04-0.35
			c-1.2-1.03-2.04-2.88-1.49-4.45c0.6-1.71,2.72-2.6,4.41-2.26c1.79,0.36,3.17,2.02,3.33,3.81C82.89,13.82,82.68,14.8,82.04,15.42z
			 M79,8.5c-1.74-0.11-3.65,0.84-4.38,2.47c-0.78,1.74,0.06,3.92,1.39,5.16c-0.31,0.74-0.56,1.52-0.91,2.24
			c-0.06,0.11-0.12,0.22-0.18,0.33c-0.47,0.83-1.11,1.5-1.92,2.02c-0.34-0.07-0.67-0.12-1.01-0.18c0.62-0.82,1.52-1.45,2.56-1.75
			c0.1-0.03,0.17-0.11,0.19-0.2c0.04-0.12,0-0.26-0.12-0.33c-1.03-0.56-2.12-0.75-3.23-0.63c1.39-1.25,2.18-3.12,2.03-5.01
			c-0.01-0.14-0.12-0.31-0.29-0.29c-2.84,0.37-5.48,1.66-7.5,3.67c0.08-1.21,0.4-2.38,0.96-3.48c0.13-0.25-0.13-0.54-0.39-0.39
			c-2.87,1.68-4.73,4.76-4.91,8.07c-0.71-0.52-1.27-1.16-1.65-1.98c-0.32-0.68-0.53-1.41-0.81-2.1c1.21-1.13,1.97-2.96,1.58-4.61
			c-0.41-1.72-2.17-2.85-3.85-3.02c-0.54-0.06-1.08-0.01-1.58,0.13c1.53-1.37,3.29-2.49,5.3-3.27c3.83-1.47,8.25-1.77,12.22-0.72
			c2.94,0.78,5.65,2.26,7.98,4.2C80.03,8.66,79.53,8.53,79,8.5z M59.48,10.8c1.08,1.63,0.16,3.9-1.19,5.06
			c-0.1,0.09-0.09,0.24-0.04,0.35c0.37,0.85,0.6,1.76,1.03,2.58c0.47,0.89,1.17,1.57,1.99,2.12c-2.06,0.45-4.09,1.14-5.96,2.1
			c0.31-1.84,0.29-3.82-0.29-5.6c-0.28-0.87-0.82-1.18-1.6-1.56c-0.87-0.42-1.31-1.29-1.39-2.23c-0.06-0.78,0.12-1.56,0.48-2.25
			c0.38-0.5,0.79-0.99,1.21-1.45c0.3-0.23,0.62-0.42,0.97-0.56C56.37,8.67,58.47,9.29,59.48,10.8z M49.7,21.17
			c-0.05,0.02-0.1,0.03-0.14,0.05c-0.03,0.01-0.07,0.03-0.1,0.05c-0.02-0.03-0.05-0.05-0.09-0.07c-0.33-0.16-0.67-0.32-1.01-0.48
			c0.05-0.24,0.11-0.49,0.17-0.73C48.92,20.37,49.32,20.77,49.7,21.17z M51.92,22.21c0.8,1.23-0.18,2.61-1.01,3.5
			c-0.98,1.04-1.93,2.02-2.61,3.29c-1.2,2.03-1.88,4.24-2.69,6.44c-0.34,0.92-0.99,2.21-2.14,1.63c-0.89-0.45-1.28-1.44-1.3-2.39
			c-0.03-1.4,0.42-2.88,0.89-4.18c0.53-1.45,1.24-2.84,2.09-4.12c0.83-1.25,1.82-2.39,2.92-3.42
			C48.98,22.11,50.91,20.67,51.92,22.21z M89.07,57.78c0.12,0.05,0.23,0.1,0.35,0.14c-0.26,0.4-0.54,0.78-0.84,1.14
			c-0.06-0.03-0.12-0.05-0.18-0.07C88.6,58.57,88.87,58.19,89.07,57.78z M86.81,52.33c0.5-2.01,2.37-3.28,4.39-3.19
			c0.24,0.98,0.37,1.99,0.3,3.04c-0.11,1.89-0.81,3.65-1.77,5.26c-0.03-0.02-0.06-0.04-0.1-0.06
			C87.54,56.68,86.27,54.48,86.81,52.33z M98.74,27.5c-0.01-0.14-0.02-0.28-0.04-0.42c2.66-2.63,4.63-6.19,4.63-10
			c0.34-0.01,0.69-0.02,1.03-0.02c0.37,0,0.37-0.58,0-0.58c-4.9,0.01-9.87,1.13-14.07,3.71c-0.19-0.89-0.47-1.77-0.81-2.62
			c0.01,0,0.02-0.01,0.02-0.01c2.48-1.56,5.3-2.7,8.16-3.31c2.72-0.58,5.4-0.38,8.08,0.29c0.33,0.08,0.41,0.09,0.39,0.46
			c-0.01,0.34-0.04,0.67-0.06,1.01c-0.06,0.74-0.14,1.47-0.25,2.2c-0.18,1.19-0.44,2.36-0.8,3.5c-0.6,1.93-1.5,3.78-2.73,5.39
			c-1.06,1.38-2.36,2.55-3.82,3.49C98.73,29.58,98.81,28.53,98.74,27.5z M89.77,20.48c-0.42,0.07-0.84,0.16-1.26,0.27
			c-0.62-3.46-2.41-6.67-4.65-9.34c-2.58-3.06-5.93-5.51-9.71-6.85C66.89,2,58.3,3.96,53.12,9.66c-0.37,0.33-0.7,0.72-0.96,1.15
			c-2.18,2.83-3.61,6.2-4.36,9.69c-0.48-0.2-0.98-0.38-1.48-0.53c1.87-7.66,7.59-14.23,15.27-16.41c4.35-1.23,9.07-1.15,13.32,0.43
			c3.81,1.41,7.15,3.93,9.79,6.99C87.03,13.67,89.04,16.95,89.77,20.48z M46.42,17.59c-0.57-0.39-1.16-0.76-1.77-1.11
			c-0.03-1.56-0.05-3.12-0.07-4.68c0-0.01,0-0.02,0-0.03c0.32,0.03,0.65,0.01,0.97-0.05c1.12-0.21,2.01-0.93,2.52-1.87
			c0.74,0.23,1.48,0.45,2.22,0.68C48.62,12.65,47.31,15.05,46.42,17.59z M46.17,18.11c0.02,0.02,0.05,0.03,0.07,0.04
			c-0.18,0.55-0.33,1.1-0.47,1.67c-0.83-0.22-1.67-0.35-2.51-0.36c-3.93-2.05-8.36-2.96-12.77-2.97c-0.37,0-0.37,0.57,0,0.58
			c0.34,0,0.69,0.01,1.03,0.02c0.01,3.55,1.71,6.87,4.09,9.44c-0.12,1.31,0.04,2.66,0.47,3.88c-2.92-1.97-4.99-4.9-6.12-8.25
			c-0.37-1.11-0.65-2.26-0.86-3.41c-0.12-0.71-0.22-1.42-0.29-2.14c-0.03-0.33-0.06-0.66-0.08-0.98c-0.01-0.17-0.02-0.34-0.03-0.51
			c-0.01-0.27-0.08-0.37,0.14-0.5c0.14-0.08,0.37-0.09,0.53-0.13c0.35-0.08,0.69-0.17,1.04-0.24c0.79-0.16,1.58-0.27,2.39-0.32
			c1.37-0.09,2.75,0.01,4.1,0.28C40.19,14.84,43.42,16.21,46.17,18.11z M35.71,25.77c-2.1-2.4-3.59-5.44-3.61-8.67
			c3.46,0.18,6.88,0.95,10.01,2.42c-1.43,0.2-2.8,0.82-3.91,1.74C36.84,22.4,36.02,24.03,35.71,25.77z M36.2,26.66
			c0.19-3.26,2.44-5.88,5.65-6.51c0.43-0.09,0.86-0.12,1.3-0.13c0.04,0.01,0.09,0.01,0.13,0c1.92,0.02,3.91,0.76,5.58,1.57
			c-1.2,0.73-2.2,1.91-3.05,2.96c-2.12,2.6-3.71,5.84-4.15,9.19c-0.07,0.5-0.08,1.02,0,1.52c-1.84-0.79-3.46-2.05-4.46-3.81
			C36.36,30.01,36.1,28.32,36.2,26.66z M41.82,35.95c0.15,0.41,0.37,0.8,0.7,1.13c0.58,0.59,1.5,0.98,2.28,0.55
			c1.07-0.59,1.39-2.08,1.76-3.16c0,0.02-0.01,0.04-0.01,0.06c-0.36,2.26-0.28,4.57-0.63,6.83c-0.06,0.38-0.13,0.76-0.26,1.13
			c-0.16,0.44-0.44,0.8-0.68,1.2c-0.66,1.07-1.19,2.22-1.54,3.43c-0.36,1.25-0.52,2.55-0.49,3.84c-2.61-0.38-5.22-0.76-7.82-1.14
			c0.01-0.12,0.02-0.23,0.02-0.35c-0.04-2.23-1.41-4.23-3.52-4.99c2.91-2.5,5.82-5,8.73-7.5l1.28-1.1
			C41.68,35.9,41.75,35.93,41.82,35.95z M33.36,53.4c0,0.03,0.01,0.06,0.03,0.09c3.12,6.73,6.24,13.47,9.36,20.2
			c0.04,0.09,0.12,0.14,0.19,0.15c-0.4,0.28-0.76,0.61-1.08,0.99c-0.15,0.18-0.28,0.37-0.4,0.57c-3.68-1.22-7.36-2.43-11.04-3.65
			c0.03-0.22,0.05-0.45,0.05-0.68c-0.04-2.23-1.41-4.23-3.52-4.99c-0.26-0.09-0.54-0.17-0.81-0.22c0.92-3.73,1.84-7.46,2.77-11.19
			c0.64,0.12,1.3,0.12,1.95-0.01C31.82,54.47,32.67,54.02,33.36,53.4z M26.2,76.26c2.05-0.4,3.61-1.99,4.1-3.95
			c3.63,1.2,7.25,2.39,10.88,3.59c-0.74,1.58-0.68,3.48,0.24,5.01c0.13,0.21,0.27,0.41,0.42,0.59c-4.87,2.78-9.74,5.56-14.61,8.34
			c-0.29-0.24-0.63-0.44-1-0.58c-0.45-0.17-0.93-0.25-1.41-0.23c0.23-4.23,0.46-8.46,0.69-12.69C25.74,76.33,25.97,76.31,26.2,76.26
			z M28.62,92.71c0-0.23-0.03-0.45-0.07-0.67c0,0,0.01,0,0.01,0c4.45,0.03,8.9,0.06,13.36,0.09c0.06,0,0.1-0.01,0.14-0.04
			c0.08,0.42,0.23,0.84,0.46,1.21c0.1,0.16,0.21,0.32,0.33,0.46c-2.32,2.32-4.64,4.64-6.95,6.95c-0.31,0.31-0.62,0.62-0.93,0.93
			c-0.34-0.3-0.73-0.54-1.17-0.71c-1.06-0.4-2.23-0.3-3.2,0.21c-0.01-0.02-0.02-0.04-0.03-0.07c-1.17-1.79-2.34-3.59-3.51-5.38
			C27.99,95.05,28.59,93.93,28.62,92.71z M48.79,106.78c0.01,0.01,0.01,0.02,0.02,0.02c2.03,1.99,1.58,5.46-1.01,6.73
			c-2.37,1.17-5.13-0.23-5.82-2.68C44.18,109.38,46.48,108.06,48.79,106.78z M49.8,107.08c-0.14-0.21-0.31-0.4-0.49-0.59
			c0.61-0.34,1.22-0.68,1.83-1.02c1.19-0.66,2.41-1.3,3.55-2.04c0.08,0.36,0.2,0.71,0.36,1.03C53.3,105.33,51.55,106.2,49.8,107.08z
			 M57.56,111.06c1.46,0,2.69,1.22,2.68,2.68c0,1.46-1.22,2.68-2.68,2.68c-1.49,0-2.64-1.22-2.68-2.68
			C54.91,112.28,56.06,111.06,57.56,111.06z M60.06,115.83c0.47-0.56,0.69-1.19,0.73-1.82c2.21-0.17,4.42-0.35,6.63-0.52
			c0.19,0.71,0.61,1.34,1.19,1.78c-1.1,1.66-2.19,3.32-3.29,4.97c-0.5-0.35-1.13-0.57-1.83-0.57c-0.71,0-1.34,0.22-1.84,0.58
			c-0.83-1.2-1.65-2.4-2.48-3.6c-0.02-0.02-0.03-0.04-0.05-0.06C59.47,116.4,59.79,116.14,60.06,115.83z M67.88,112.66
			c0.04-1.47,1.19-2.68,2.68-2.68c1.46,0,2.69,1.22,2.68,2.68c0,1.46-1.22,2.68-2.68,2.68C69.07,115.34,67.92,114.12,67.88,112.66z
			 M70.02,109.45c-0.61,0.1-1.15,0.37-1.58,0.75c-0.02-0.04-0.04-0.07-0.08-0.11c-1.86-1.49-3.71-2.99-5.57-4.48
			c-0.01,0-0.01-0.01-0.02-0.01c0.79-0.89,1.23-2.05,1.23-3.23c0.04,0.01,0.07,0.01,0.12,0c1.35-0.32,2.7-0.65,4.06-0.97
			c0.39,0.86,1.1,1.56,2.03,1.91c0.35,0.13,0.71,0.2,1.07,0.22c0,0,0,0.01,0,0.01c-0.22,1.95-0.44,3.91-0.67,5.87
			C70.41,109.4,70.22,109.41,70.02,109.45z M68.39,99.87c0.04-1.69,1.38-3.09,3.09-3.09c1.68,0,3.09,1.41,3.09,3.09
			c0,1.68-1.41,3.1-3.09,3.09C69.77,102.96,68.43,101.56,68.39,99.87z M70.78,96.27c-0.37,0.07-0.72,0.2-1.04,0.37
			c-0.67-0.83-1.34-1.66-2-2.49c0.19-0.15,0.37-0.32,0.52-0.52c0.76-0.94,1-2.2,0.68-3.33c1.08-0.71,2.15-1.42,3.23-2.13
			c0.07-0.04,0.1-0.1,0.12-0.17c0.52,0.6,1.18,1.08,1.95,1.38c0,0.07,0,0.14,0,0.21c0.08,2.88,0.25,5.75,0.51,8.61
			c-0.04-0.08-0.08-0.16-0.13-0.23C73.83,96.67,72.28,95.99,70.78,96.27z M74.29,80.53c-0.05,0.02-0.1,0.04-0.14,0.06
			c0,0,0-0.01,0-0.01c-0.97-1.98-1.94-3.96-2.91-5.93c1.23-1.05,1.53-2.97,0.55-4.42c0.7-0.46,1.31-1.04,1.87-1.69
			c0.57-0.66,1.07-1.43,1.87-1.81C74.88,71.3,74.47,75.91,74.29,80.53z M75.34,73.27c2.12,2.47,4.24,4.95,6.35,7.42
			c-0.42,0.28-0.81,0.63-1.14,1.03c-0.62,0.76-1,1.66-1.13,2.6c-1.55-0.02-3.1-0.04-4.65-0.07c0.02-1.47,0.06-2.94,0.12-4.4
			C74.99,77.66,75.14,75.46,75.34,73.27z M82.18,80.4c-0.01-0.02-0.02-0.04-0.04-0.06c-2.21-2.58-4.42-5.16-6.62-7.74
			c-0.04-0.04-0.07-0.07-0.11-0.08c0.19-2.01,0.43-4.02,0.71-6.02c0.96-0.31,1.94-0.54,2.9-0.83c2.44-0.76,4.83-1.79,6.9-3.28
			c0.02,0.05,0.06,0.09,0.12,0.12c2.71,1.59,5.41,3.18,8.12,4.78c-0.61,1.52-0.51,3.3,0.36,4.73c0.15,0.24,0.31,0.47,0.5,0.68
			c-2.2,2.34-4.39,4.67-6.59,7.01c-0.29,0.31-0.59,0.63-0.88,0.94c-0.34-0.23-0.72-0.42-1.12-0.56
			C85.02,79.59,83.47,79.73,82.18,80.4z M94.96,65.93c-0.21,0.26-0.4,0.54-0.55,0.83c-2.67-1.57-5.35-3.14-8.02-4.72
			c0.61-0.47,1.19-0.98,1.72-1.54c0.73-0.76,1.37-1.6,1.94-2.49c0.22-0.35,0.42-0.7,0.6-1.06c1.71,2.72,3.42,5.44,5.13,8.17
			C95.49,65.35,95.21,65.62,94.96,65.93z M90.98,56.38c-0.01-0.01-0.02-0.02-0.03-0.04c0.7-1.52,1.1-3.12,1.12-4.77c0,0,0,0,0,0
			c0.97-0.71,1.93-1.42,2.9-2.13c0.8,1.29,2.34,1.97,3.84,1.68c1.01-0.19,1.83-0.79,2.36-1.6c2.6,1.63,5.21,3.26,7.81,4.88
			c0.05,0.03,0.09,0.04,0.14,0.04c-0.65,1.14-0.66,2.6,0.03,3.74c0.25,0.41,0.57,0.76,0.95,1.04c-0.02,0.01-0.04,0.03-0.06,0.04
			c-2.3,2.21-4.6,4.42-6.89,6.63c-0.59-0.72-1.37-1.3-2.3-1.63c-1.53-0.55-3.23-0.33-4.57,0.5C94.5,61.99,92.74,59.19,90.98,56.38z
			 M110.3,40.77c0.07,0.11,0.15,0.22,0.23,0.33c-3.1,1.51-6.2,3.01-9.29,4.52c-0.41-0.69-1.05-1.24-1.84-1.54
			c-0.13-0.05-0.26-0.09-0.4-0.12c0.18-2.67,0.36-5.34,0.54-8.01c0.91-0.06,1.65-0.6,2.03-1.36c2.83,0.98,5.65,1.95,8.47,2.93
			C109.63,38.56,109.7,39.78,110.3,40.77z M109.44,53.97c-0.02,0.03-0.04,0.05-0.06,0.08c-0.02-0.05-0.06-0.1-0.12-0.14
			c-2.61-1.63-5.21-3.26-7.82-4.89c0,0,0,0,0,0c0.21-0.46,0.33-0.98,0.34-1.51c-0.01-0.49-0.11-0.96-0.29-1.39
			c3.14-1.53,6.27-3.05,9.41-4.58c0.01,0,0.01-0.01,0.02-0.01c0.68,0.64,1.58,1,2.52,1.01c0,0.02-0.01,0.03-0.01,0.05
			c-0.22,3.36-0.44,6.71-0.66,10.06c0,0,0,0,0,0C111.54,52.49,110.25,52.98,109.44,53.97z M110.61,36.54
			c-0.12,0.14-0.22,0.29-0.31,0.45c-2.84-0.98-5.68-1.96-8.53-2.95c0.05-0.18,0.07-0.37,0.08-0.57c-0.05-1.35-1.09-2.48-2.48-2.48
			c-0.19,0-0.38,0.02-0.56,0.07c3.23-2.08,5.48-5.25,6.67-8.89c0.2-0.6,0.37-1.21,0.51-1.83c0.02,0,0.04,0.01,0.06,0.01h1
			c0.1,0.69,0.33,1.37,0.7,1.99c1.12,1.84,3.28,2.82,5.4,2.49c0.04,3.46,0.09,6.92,0.13,10.37
			C112.26,35.25,111.27,35.73,110.61,36.54z M108.19,16.25c-0.82,1-1.22,2.27-1.18,3.53h-0.88c0.1-0.47,0.19-0.94,0.26-1.41
			c0.1-0.65,0.18-1.3,0.24-1.96c0.04-0.4,0.06-0.8,0.09-1.2c0.01-0.27,0.1-0.62-0.05-0.86c-0.2-0.31-0.71-0.35-1.04-0.43
			c-0.77-0.18-1.54-0.35-2.32-0.46c-1.44-0.19-2.89-0.21-4.33-0.02c-3.02,0.39-6.06,1.5-8.73,3.01c-0.41-1.75-0.82-3.51-1.23-5.26
			c1.57-0.44,2.64-1.91,2.68-3.54c0-0.09-0.01-0.19-0.02-0.28c2.88-0.43,5.76-0.86,8.63-1.29c0.4-0.06,0.79-0.12,1.19-0.18
			c0.39,0.88,1.27,1.5,2.27,1.5c0.51,0,0.97-0.16,1.36-0.41c1.63,2.61,3.26,5.22,4.89,7.84C109.32,15.15,108.69,15.63,108.19,16.25z
			 M51.75,0.62h24.37c2.52,1.53,5.04,3.05,7.55,4.58c0.37,0.22,0.73,0.44,1.1,0.66c0.01,0.01,0.02,0.01,0.03,0.01
			c-0.62,1.13-0.62,2.55,0.06,3.67c0.75,1.23,2.17,1.91,3.59,1.75c0.42,1.82,0.85,3.64,1.27,5.45c-0.15,0.09-0.31,0.18-0.46,0.28
			c-0.84-1.94-2-3.75-3.27-5.38c-2.53-3.24-5.8-5.98-9.57-7.66c-8.21-3.67-18.2-1.72-24.49,4.68c-0.44,0.45-0.86,0.91-1.26,1.39
			c-0.01-0.01-0.03-0.01-0.04-0.02c-0.78-0.24-1.56-0.48-2.34-0.72c0.13-0.38,0.21-0.79,0.22-1.21c-0.02-1.09-0.5-2.1-1.29-2.78
			c1.5-1.56,2.99-3.12,4.49-4.68C51.73,0.64,51.74,0.63,51.75,0.62z M32.12,8.07c0.98-1.69,1.95-3.38,2.93-5.08
			c0.31-0.53,0.62-1.07,0.92-1.6c0.13-0.22,0.38-0.52,0.45-0.77c0.3,0.06,0.68,0,0.98,0h13.55c-1.38,1.44-2.76,2.89-4.15,4.33
			c-0.01,0.01-0.03,0.03-0.04,0.05c-0.2-0.12-0.41-0.23-0.64-0.32c-1.46-0.55-3.16-0.09-4.14,1.12c-0.97,1.19-1.1,2.91-0.3,4.22
			c0.52,0.86,1.38,1.45,2.33,1.68C44.01,11.73,44,11.76,44,11.81c0.02,1.45,0.05,2.9,0.07,4.36c-2.03-1.08-4.23-1.9-6.46-2.41
			c-2.91-0.67-5.78-0.49-8.66,0.23c-0.09,0.02-0.19,0.05-0.29,0.08C29.81,12.06,30.96,10.07,32.12,8.07z M19.15,94.05
			c-2.56-4.43-5.12-8.86-7.68-13.3c-2.14-3.71-4.28-7.41-6.42-11.12c-1.27-2.2-2.54-4.4-3.81-6.61c-0.14-0.25-0.28-0.49-0.43-0.74
			c1.17-2.02,2.33-4.04,3.5-6.06l8.53-14.77c3.45-5.97,6.89-11.94,10.34-17.91c1.64-2.84,3.28-5.68,4.92-8.52
			c0.02,0.2,0.05,0.41,0.06,0.58c0.03,0.46,0.07,0.91,0.12,1.37c0.14,1.32,0.37,2.64,0.71,3.93c0.59,2.23,1.52,4.39,2.88,6.25
			c1.24,1.69,2.8,3.1,4.59,4.17c0.96,1.95,2.63,3.37,4.57,4.29c-2.92,2.51-5.84,5.02-8.76,7.53c-0.43,0.37-0.86,0.74-1.28,1.1
			c-0.01,0.01-0.02,0.02-0.03,0.04c-1.91-0.41-3.97,0.29-5.22,1.82c-1.4,1.71-1.59,4.19-0.44,6.09c0.7,1.15,1.8,1.97,3.05,2.33
			c-0.93,3.75-1.85,7.5-2.78,11.25c-1.69-0.12-3.4,0.59-4.49,1.93c-1.4,1.72-1.59,4.19-0.44,6.09c0.92,1.53,2.56,2.46,4.3,2.55
			c-0.23,4.25-0.46,8.51-0.7,12.76c-0.83,0.16-1.61,0.61-2.16,1.28c-0.97,1.19-1.1,2.91-0.3,4.22c0.06,0.11,0.13,0.21,0.21,0.3
			c-0.57,0.36-1.15,0.72-1.72,1.07C19.9,95.34,19.53,94.69,19.15,94.05z M26.74,107.18c-2.06-3.57-4.12-7.13-6.18-10.7
			c0.61-0.38,1.21-0.76,1.82-1.13c0.85,0.82,2.07,1.2,3.26,0.97c0.32-0.06,0.63-0.16,0.91-0.3c1.17,1.79,2.34,3.58,3.51,5.37
			c0.02,0.03,0.04,0.05,0.06,0.07c-0.26,0.19-0.49,0.41-0.7,0.66c-1.03,1.25-1.17,3.06-0.34,4.45c0.05,0.09,0.11,0.17,0.16,0.25
			c-0.61,0.51-1.22,1.01-1.83,1.52C27.18,107.95,26.96,107.57,26.74,107.18z M32.86,117.79c-1.72-2.98-3.44-5.96-5.16-8.94
			c0.64-0.53,1.27-1.06,1.91-1.58c0.89,0.93,2.22,1.38,3.52,1.14c1.04-0.19,1.91-0.79,2.47-1.61c2.12,1.13,4.24,2.25,6.37,3.38
			c-0.15,0.1-0.31,0.2-0.46,0.31c0,0-0.01,0-0.01,0.01c-0.03,0.02-0.07,0.05-0.1,0.07c-1.71,1.15-3.38,2.4-4.85,3.86
			c-1.33,1.32-2.31,2.75-3.07,4.43C33.27,118.5,33.06,118.14,32.86,117.79z M35.69,122.69c-0.62-1.07-1.24-2.15-1.86-3.22
			c0.72-1.68,1.62-3.11,2.89-4.42c1.32-1.35,2.81-2.51,4.36-3.59c0.13-0.09,0.27-0.19,0.4-0.28c0.37,1.16,1.14,2.08,2.12,2.66
			c-0.29,0.6-0.58,1.2-0.86,1.81c-0.43-0.13-0.91-0.16-1.41-0.08c-1.58,0.26-2.67,1.64-2.71,3.21c0.01,0.61,0.19,1.19,0.48,1.68
			C37.96,121.21,36.82,121.95,35.69,122.69z M42.88,116.3c0.97,0.41,1.68,1.38,1.67,2.48c0,1.46-1.22,2.68-2.68,2.68
			c-1.49,0-2.64-1.22-2.68-2.68c0.04-1.47,1.19-2.68,2.68-2.68c0.31,0,0.6,0.05,0.88,0.15C42.79,116.28,42.83,116.29,42.88,116.3z
			 M38.12,123.95c-0.48,0-1.2-0.13-1.69-0.02c-0.06-0.11-0.18-0.26-0.21-0.31c-0.08-0.15-0.17-0.29-0.25-0.44
			c1.15-0.75,2.31-1.5,3.46-2.25c0.34,0.4,0.78,0.71,1.31,0.91c1.28,0.48,2.76,0.07,3.63-0.97c1.43-1.72,0.63-4.13-1.1-5.01
			c0.28-0.59,0.56-1.17,0.84-1.76c1.22,0.54,2.66,0.58,3.98-0.08c1.12-0.56,1.89-1.49,2.27-2.55c1.33,0.59,2.65,1.17,3.98,1.76
			c0,0,0,0,0,0c-0.03,0.16-0.05,0.33-0.05,0.5c0.03,1.04,0.51,2.01,1.32,2.61c-0.81,1.26-1.61,2.52-2.42,3.79
			c-0.48-0.3-1.04-0.47-1.68-0.47c-2.28,0-3.69,2.24-3.08,4.28H38.12z M54,123.95h-4.96c-0.68-1.74,0.56-3.71,2.48-3.71
			S54.68,122.22,54,123.95z M54.6,123.95c0.38-1.28-0.02-2.63-0.94-3.46c0.82-1.28,1.63-2.56,2.45-3.83c0.1,0.05,0.21,0.1,0.32,0.14
			c0.72,0.27,1.5,0.26,2.2,0.01c0,0.04,0.02,0.09,0.05,0.13c0.85,1.23,1.69,2.46,2.54,3.68c-0.81,0.84-1.16,2.12-0.8,3.33H54.6z
			 M65.98,123.95h-4.96c-0.68-1.74,0.56-3.71,2.48-3.71C65.41,120.25,66.66,122.22,65.98,123.95z M69.99,123.95
			c-0.06-1.17-0.21-2.34-0.59-3.45c-0.12-0.35-0.68-0.2-0.56,0.15c0.37,1.07,0.51,2.18,0.57,3.3h-2.84c0.37-1.22,0.01-2.5-0.81-3.34
			c1.11-1.68,2.23-3.36,3.34-5.05c0.1,0.05,0.21,0.1,0.32,0.14c0.56,0.21,1.15,0.25,1.72,0.14c0.26,1.5,0.52,3.01,0.79,4.51
			c-0.53,0.21-0.88,0.71-0.95,1.3c-0.01,0.03-0.01,0.05-0.01,0.09c0,0.03,0,0.06,0.01,0.09c0.08,0.77,0.67,1.4,1.48,1.4
			c0.81,0,1.49-0.68,1.49-1.49c0-0.79-0.64-1.45-1.42-1.48c-0.01,0-0.02,0-0.03,0c-0.26-1.52-0.53-3.04-0.79-4.57
			c0.52-0.19,0.99-0.52,1.36-0.96c1.64-1.96,0.36-4.84-1.9-5.28c0.22-1.97,0.45-3.95,0.67-5.92v-0.02c0.95-0.1,1.86-0.56,2.48-1.32
			c0.33-0.41,0.56-0.88,0.69-1.38c0.02,0.21,0.04,0.41,0.07,0.62c0.43,3.66,1.12,7.3,1.26,10.98c0.07,2.01-0.02,4.04-0.48,6
			c-0.47,2.02-1.34,3.86-2.52,5.55H69.99z M73.38,121.75c0,1.18-1.76,1.17-1.82,0C71.62,120.58,73.38,120.57,73.38,121.75z
			 M74.03,123.95c0.91-1.36,1.59-2.81,2.06-4.33c0.22,1.44,0.35,2.88,0.42,4.33H74.03z M107.56,124.07c-0.01-0.02,0-0.04,0.01-0.05
			C107.56,124.04,107.55,124.06,107.56,124.07z M141.23,65.74c-1.78,3.08-3.55,6.16-5.33,9.24c-2.4,4.16-4.8,8.32-7.2,12.48
			c-2.6,4.5-5.2,9-7.8,13.51c-2.34,4.05-4.68,8.1-7.01,12.15c-1.63,2.82-3.25,5.63-4.88,8.45c-0.41,0.7-0.81,1.41-1.22,2.11
			c-0.02,0.03-0.12,0.17-0.18,0.27c-0.53-0.11-1.24,0.01-1.76,0.01H77.09c-0.09-1.86-0.28-3.71-0.61-5.54
			c-0.01-0.04-0.02-0.07-0.03-0.09c0.28-1.23,0.44-2.49,0.48-3.79c0.03-0.93,0.01-1.86-0.03-2.79c0,0,0.01,0,0.01-0.01
			c1.68-1.2,3.36-2.4,5.03-3.6c1.23,1.32,3.1,1.94,4.91,1.59c2.48-0.48,4.23-2.7,4.27-5.2c-0.04-2.23-1.41-4.23-3.52-4.99
			c-0.73-0.26-1.5-0.35-2.24-0.28c-0.05-2.93-0.09-5.86-0.14-8.8c0-0.05-0.01-0.09-0.03-0.12c0.17-0.02,0.34-0.04,0.5-0.07
			c2.48-0.48,4.23-2.7,4.27-5.2c-0.03-1.6-0.74-3.09-1.93-4.08c2.2-2.35,4.41-4.69,6.61-7.04c0.26-0.28,0.53-0.56,0.79-0.84
			c1.23,1.15,2.97,1.68,4.67,1.36c2.48-0.48,4.23-2.7,4.27-5.2c-0.02-1.05-0.33-2.05-0.88-2.89c2.32-2.23,4.64-4.46,6.96-6.7
			c0.06-0.05,0.08-0.12,0.09-0.18c0.74,0.4,1.61,0.56,2.47,0.4c1.74-0.33,2.94-1.88,2.98-3.61c-0.04-1.53-0.95-2.9-2.39-3.45
			c-0.08-0.03-0.17-0.06-0.25-0.08c0.02-0.03,0.03-0.07,0.03-0.12c0.22-3.36,0.44-6.71,0.66-10.06c0-0.03,0-0.06-0.01-0.09
			c0.05-0.01,0.1-0.01,0.15-0.02c1.74-0.33,2.94-1.88,2.98-3.61c-0.03-1.53-0.94-2.9-2.39-3.44c-0.29-0.11-0.59-0.18-0.89-0.21
			c-0.04-3.49-0.09-6.97-0.13-10.46c0-0.02,0-0.04-0.01-0.06c2.26-0.63,3.83-2.75,3.87-5.1c-0.01-0.97-0.29-1.91-0.76-2.71
			c-0.61-1.03-1.57-1.86-2.76-2.28c-1.15-0.41-2.39-0.39-3.51,0c-1.66-2.67-3.33-5.33-4.99-8c0.41-0.44,0.66-1.04,0.68-1.68
			c-0.05-1.35-1.09-2.48-2.48-2.48c-0.42,0-0.82,0.11-1.17,0.3c-0.39-0.71-0.79-1.42-1.18-2.13h6.2c1.16,2.01,2.32,4.02,3.48,6.03
			c1.95,3.39,3.91,6.77,5.87,10.16c0.89,1.55,1.79,3.1,2.68,4.65c3.44,5.95,6.87,11.9,10.31,17.85c2.98,5.16,5.96,10.33,8.94,15.49
			c0.99,1.71,1.97,3.41,2.96,5.12c0.3,0.52,0.6,1.04,0.9,1.56c0.14,0.23,0.27,0.61,0.46,0.81C142.56,63.44,141.9,64.59,141.23,65.74
			z M100.18,14.63c0,0,0.49,0.29,1.09,0.29c0.6,0,1.09-0.28,1.09-0.28s-0.49-0.29-1.09-0.29C100.67,14.35,100.18,14.63,100.18,14.63
			z M99.53,15.35c-0.47,0.07-0.8,0.4-0.8,0.4s0.42,0.23,0.89,0.16c0.47-0.07,0.8-0.4,0.8-0.4S100,15.28,99.53,15.35z M97.58,14.81
			c-0.51,0.11-0.87,0.48-0.87,0.48s0.47,0.19,0.99,0.08c0.51-0.11,0.87-0.48,0.87-0.48S98.09,14.7,97.58,14.81z M95.73,16.37
			c-0.53,0.15-0.89,0.55-0.89,0.55s0.51,0.15,1.05,0c0.53-0.15,0.89-0.55,0.89-0.55S96.27,16.22,95.73,16.37z M86.28,41.84
			c-0.03-2.51-1.57-4.78-3.92-5.68c-2.41-0.92-5.22-0.16-6.85,1.83c-1.6,1.96-1.82,4.78-0.52,6.96c0.33,0.55,0.74,1.03,1.21,1.44
			c-1.58-0.27-3.29,0.38-4.58,1.29c-2.73-1.78-6.37-1.85-9.16-0.19c-0.84-0.7-1.93-1.06-3.01-0.99c1.34-1.13,2.18-2.84,2.21-4.67
			c-0.03-2.51-1.57-4.78-3.92-5.68c-2.41-0.92-5.22-0.16-6.85,1.83c-1.6,1.96-1.82,4.78-0.52,6.96c1.3,2.17,3.85,3.31,6.33,2.86
			c0.02,0,0.04-0.01,0.06-0.01c-0.52,0.58-0.89,1.3-1.03,2.08c-0.14,0.75-0.04,1.45,0.17,2.17c0.26,0.85-0.37,1.75-0.47,2.61
			c-0.19,1.56,0.33,3.15,1.22,4.43c1.35,1.93,3.38,2.98,5.58,3.54c0,0,0,0,0,0.01c-0.11,2.77,3.06,4.97,5.65,4.69
			c2.7-0.3,4.63-2.32,5.45-4.8c1.26-0.38,2.45-0.93,3.53-1.74c1.46-1.09,2.63-2.59,3.1-4.37c0.46-1.75,0.25-3.66-0.75-5.19
			c0.53-1.23,0.14-2.61-0.72-3.58c0.91,0.27,1.89,0.34,2.85,0.17C84.18,47.29,86.24,44.72,86.28,41.84z M51.32,45.34
			c-1.47-1.77-1.66-4.35-0.48-6.32c1.17-1.96,3.51-3.02,5.76-2.58c2.59,0.5,4.43,2.79,4.47,5.4c-0.03,2.3-1.46,4.4-3.65,5.18
			C55.25,47.78,52.78,47.11,51.32,45.34z M67.96,66.73c-1.26,0.18-2.71-0.31-3.76-1.2c0.03-0.02,0.06-0.04,0.09-0.08
			c0.76-0.98,2.22-1.25,3.39-1.3c1.21-0.04,2.43,0.23,3.39,1C70.24,65.98,69.19,66.55,67.96,66.73z M71.45,64.73
			c-1.13-0.89-2.53-1.23-3.95-1.14c-1.36,0.08-2.83,0.44-3.7,1.56c-0.62-0.66-1.02-1.49-1.02-2.39c1.02,0.22,2.06,0.34,3.08,0.4
			c2.22,0.13,4.57,0.09,6.76-0.45C72.34,63.44,71.95,64.14,71.45,64.73z M78.6,51.1c-0.04,0.09-0.06,0.21,0,0.29
			c1.87,2.68,0.9,6.23-1.38,8.32c-2.54,2.34-6.09,2.92-9.42,2.92c-3.22,0-6.95-0.3-9.49-2.52c-1.1-0.96-1.93-2.25-2.25-3.68
			c-0.15-0.69-0.18-1.42-0.03-2.11c0.14-0.67,0.57-1.31,0.49-2.01c-0.04-0.4-0.23-0.76-0.29-1.16c-0.06-0.43-0.04-0.87,0.05-1.29
			c0.18-0.79,0.61-1.54,1.24-2.06c1.34-1.1,3.39-0.94,4.65,0.21c0.11,0.1,0.23,0.09,0.33,0.04c0.06,0.01,0.12,0,0.18-0.04
			c2.69-1.63,6.19-1.52,8.78,0.26c0.08,0.05,0.21,0.06,0.29,0c1.44-1.07,3.48-1.86,5.23-1.04C78.37,47.89,79.34,49.65,78.6,51.1z
			 M82.05,47.01c-2.17,0.77-4.63,0.09-6.1-1.68c-1.47-1.77-1.66-4.35-0.48-6.32c1.17-1.96,3.51-3.02,5.75-2.58
			c2.59,0.5,4.43,2.79,4.47,5.4C85.67,44.13,84.24,46.24,82.05,47.01z M84.18,48.52c-0.11-0.1-0.25-0.16-0.37-0.21
			c-0.12-0.05-0.21-0.09-0.21-0.09s-0.01,0.02-0.02,0.07s-0.01,0.1-0.01,0.18c0.01,0.15,0.07,0.35,0.23,0.49
			c0.16,0.14,0.37,0.18,0.51,0.17c0.07-0.01,0.13-0.02,0.17-0.03c0.04-0.01,0.06-0.02,0.06-0.02s-0.05-0.09-0.12-0.2
			C84.37,48.75,84.29,48.62,84.18,48.52z M75.4,32.4c1.2-1.07,3.11-1.12,4.61-0.83c1.52,0.29,2.92,1.02,4.03,2.09
			c0.27,0.26,0.68-0.15,0.41-0.41c-1.28-1.22-2.89-2.03-4.64-2.3c-1.63-0.25-3.54-0.11-4.82,1.04C74.71,32.24,75.12,32.65,75.4,32.4
			z M82.82,49.03c-0.07-0.11-0.18-0.19-0.27-0.27c-0.1-0.08-0.17-0.14-0.17-0.14s-0.01,0.02-0.04,0.05
			c-0.02,0.04-0.05,0.09-0.07,0.16c-0.04,0.13-0.04,0.34,0.08,0.51c0.12,0.17,0.31,0.25,0.45,0.26c0.07,0.01,0.13,0,0.17,0
			c0.04-0.01,0.06-0.01,0.06-0.01s-0.03-0.09-0.07-0.21C82.93,49.27,82.9,49.14,82.82,49.03z M81.56,50.7
			c-0.06-0.14-0.13-0.32-0.22-0.48c-0.1-0.16-0.22-0.3-0.31-0.43c-0.05-0.06-0.09-0.11-0.12-0.15c-0.03-0.04-0.05-0.06-0.05-0.06
			s-0.02,0.02-0.04,0.07c-0.02,0.04-0.05,0.11-0.07,0.2c-0.04,0.17-0.03,0.43,0.1,0.66c0.14,0.23,0.36,0.36,0.53,0.41
			c0.09,0.02,0.16,0.03,0.21,0.03c0.05,0,0.08,0,0.08,0s-0.01-0.03-0.03-0.07C81.62,50.84,81.59,50.78,81.56,50.7z M79.27,24.99
			c0.16,0.11,0.35,0.26,0.57,0.38c0.22,0.12,0.45,0.21,0.63,0.28c0.09,0.03,0.17,0.06,0.22,0.08c0.06,0.02,0.09,0.03,0.09,0.03
			s-0.01-0.03-0.02-0.09c-0.01-0.06-0.04-0.14-0.09-0.23c-0.09-0.19-0.27-0.42-0.55-0.57c-0.27-0.15-0.57-0.18-0.78-0.16
			c-0.1,0.01-0.19,0.03-0.24,0.05c-0.06,0.02-0.09,0.03-0.09,0.03s0.03,0.02,0.07,0.06C79.13,24.88,79.19,24.93,79.27,24.99z
			 M76.88,25.11c-0.08,0.01-0.12,0.02-0.12,0.02s0.04,0.03,0.1,0.07c0.07,0.04,0.16,0.1,0.28,0.18c0.23,0.15,0.53,0.34,0.87,0.53
			c0.34,0.19,0.66,0.35,0.9,0.48c0.12,0.06,0.22,0.11,0.29,0.15c0.07,0.04,0.11,0.05,0.11,0.05s-0.02-0.04-0.05-0.12
			c-0.03-0.07-0.09-0.18-0.17-0.3c-0.16-0.24-0.43-0.54-0.81-0.76c-0.38-0.22-0.78-0.29-1.07-0.31
			C77.08,25.09,76.96,25.1,76.88,25.11z M75.89,48.14c-1.31-0.3-2.04,0.62-1.98,1.85c0.06,1.2,0.73,2.4,1.78,3.02
			c1.26,0.74,2.05-0.99,2.13-2.01c0-0.04,0-0.07-0.01-0.1C77.81,49.67,77.17,48.43,75.89,48.14z M76.38,23.83
			c0.53,0.13,1.04-0.03,1.04-0.03s-0.36-0.39-0.9-0.52c-0.53-0.13-1.03,0.03-1.03,0.03S75.84,23.69,76.38,23.83z M71.62,67.21
			c-2.15,1.56-5.1,1.66-7.34,0.24c-0.31-0.2-0.6,0.3-0.29,0.5c2.4,1.52,5.62,1.43,7.93-0.24C72.21,67.49,71.92,66.99,71.62,67.21z
			 M68.87,40.8c0.13,0.13,0.23,0.18,0.23,0.18s0.02-0.12,0.03-0.29c0.01-0.17,0.01-0.38-0.04-0.6c-0.05-0.22-0.15-0.41-0.23-0.56
			c-0.08-0.15-0.15-0.24-0.15-0.24s-0.07,0.1-0.13,0.27c-0.06,0.17-0.1,0.41-0.04,0.67C68.6,40.47,68.75,40.67,68.87,40.8z
			 M68,38.84c0.04,0.03,0.06,0.04,0.06,0.04s0.03-0.11,0.06-0.26c0.03-0.15,0.07-0.32,0.07-0.51c0-0.18-0.04-0.36-0.07-0.51
			c-0.03-0.15-0.06-0.26-0.06-0.26s-0.02,0.01-0.06,0.04c-0.04,0.03-0.09,0.07-0.15,0.13c-0.11,0.12-0.23,0.34-0.23,0.58
			c0,0.25,0.11,0.46,0.22,0.59C67.91,38.77,67.96,38.81,68,38.84z M66.72,41.39c0.01,0.18,0.04,0.3,0.04,0.3s0.11-0.07,0.23-0.21
			c0.12-0.14,0.26-0.36,0.31-0.64c0.05-0.27,0.01-0.53-0.06-0.71c-0.06-0.18-0.13-0.28-0.13-0.28s-0.07,0.11-0.15,0.27
			c-0.08,0.16-0.17,0.38-0.22,0.62C66.69,40.97,66.7,41.21,66.72,41.39z M66.53,38.08c0,0,0.09-0.06,0.19-0.18
			c0.1-0.12,0.2-0.29,0.23-0.5c0.03-0.21-0.03-0.41-0.1-0.54c-0.07-0.14-0.14-0.22-0.14-0.22s-0.07,0.08-0.15,0.21
			c-0.08,0.13-0.16,0.3-0.18,0.49c-0.02,0.19,0.02,0.37,0.06,0.51C66.48,37.98,66.53,38.08,66.53,38.08z M65.55,40.89
			c0,0,0.1-0.09,0.21-0.26c0.11-0.17,0.22-0.43,0.24-0.72c0.02-0.3-0.06-0.56-0.15-0.75c-0.09-0.18-0.18-0.28-0.18-0.28
			s-0.05,0.12-0.11,0.31c-0.06,0.18-0.12,0.42-0.13,0.69c-0.02,0.26,0.02,0.51,0.05,0.7C65.51,40.76,65.55,40.89,65.55,40.89z
			 M59.27,48.14c-1.28,0.3-1.93,1.53-1.92,2.76c-0.01,0.03-0.01,0.06-0.01,0.1c0.07,1.02,0.87,2.74,2.13,2.01
			c1.05-0.61,1.72-1.82,1.78-3.02C61.31,48.76,60.58,47.83,59.27,48.14z M50.47,34.26c2.01-2.51,5.46-3.29,8.34-1.82
			c0.33,0.17,0.62-0.33,0.29-0.5c-3.09-1.58-6.86-0.81-9.04,1.91C49.84,34.13,50.24,34.54,50.47,34.26z M56.63,24.46
			c0,0-0.55,0.03-1.03,0.36c-0.48,0.33-0.7,0.83-0.7,0.83s0.55-0.03,1.03-0.36C56.4,24.96,56.63,24.46,56.63,24.46z M55.64,27.22
			c0.44-0.22,0.68-0.66,0.68-0.66s-0.49-0.07-0.93,0.15c-0.44,0.22-0.68,0.66-0.68,0.66S55.19,27.44,55.64,27.22z M53.41,27.09
			c0.19-0.17,0.35-0.36,0.48-0.51c0.12-0.15,0.2-0.26,0.2-0.26s-0.03,0-0.09-0.01c-0.06,0-0.15,0-0.25,0.02
			c-0.2,0.03-0.48,0.13-0.72,0.33c-0.23,0.21-0.36,0.47-0.42,0.67c-0.03,0.1-0.04,0.19-0.05,0.24c-0.01,0.06-0.01,0.09-0.01,0.09
			s0.12-0.07,0.28-0.17C53.01,27.39,53.22,27.26,53.41,27.09z M51.8,48.4c-0.33,0.38-0.39,0.87-0.39,0.87s0.48-0.12,0.82-0.5
			c0.33-0.38,0.39-0.87,0.39-0.87S52.13,48.02,51.8,48.4z M50.13,48.31c0,0,0.44-0.04,0.72-0.33c0.29-0.29,0.32-0.73,0.32-0.73
			s-0.44,0.04-0.72,0.33C50.16,47.87,50.13,48.31,50.13,48.31z M49.36,46.87c-0.17,0.11-0.28,0.27-0.35,0.4
			c-0.07,0.13-0.09,0.24-0.09,0.24s0.11,0.01,0.25,0c0.14-0.01,0.32-0.05,0.48-0.15c0.16-0.1,0.27-0.24,0.35-0.37
			c0.08-0.12,0.12-0.22,0.12-0.22s-0.1-0.03-0.25-0.03C49.72,46.74,49.53,46.76,49.36,46.87z M38.65,16.51
			c0.56,0.16,1.08,0.01,1.08,0.01s-0.37-0.4-0.93-0.56c-0.56-0.16-1.08-0.01-1.08-0.01S38.1,16.36,38.65,16.51z M35.48,14.79
			c0,0,0.38,0.34,0.89,0.41c0.51,0.07,0.96-0.16,0.96-0.16s-0.38-0.34-0.89-0.4C35.93,14.57,35.48,14.79,35.48,14.79z M34.11,15.77
			c0,0,0.47,0.37,1.12,0.48c0.64,0.11,1.22-0.08,1.22-0.08s-0.48-0.37-1.12-0.48C34.68,15.58,34.11,15.77,34.11,15.77z M33.39,14.39
			c-0.53-0.02-0.98,0.25-0.98,0.25s0.42,0.3,0.96,0.32c0.53,0.02,0.97-0.25,0.97-0.25S33.92,14.41,33.39,14.39z"/>
	</g>
	<g>
		<path class="st2" d="M85.77,67.31c-0.07,2.24-0.1,3.81-0.1,4.71c0,0.95,0.02,1.82,0.06,2.62l-2.05,0.13l-0.08-3.28l-0.33,0.03
			c-0.21,0.97-0.4,1.94-0.57,2.91c-0.42-0.04-0.83-0.06-1.25-0.06c-0.42,0-0.83,0.02-1.25,0.06l-1.32-4.21l0.16,4.78l-1.89,0.02
			l-0.2-7.55c1.37-0.02,2.54-0.09,3.51-0.2l1.06,4.51l1.19-4.51L85.77,67.31z"/>
		<path class="st2" d="M90.45,66.41c0,0.49-0.18,0.87-0.55,1.11c-0.32,0.22-0.74,0.32-1.26,0.32c-0.99,0-1.49-0.49-1.49-1.46
			c0-0.47,0.2-0.83,0.59-1.07c0.32-0.21,0.74-0.31,1.24-0.31C89.96,65,90.45,65.47,90.45,66.41z M89.95,68.44l0.02,0.97
			c0.01,1.34,0.02,1.99,0.02,1.93v3.13l-2.45,0.05c0.07-0.85,0.1-2.06,0.1-3.63c0-0.74-0.01-1.52-0.02-2.34L89.95,68.44z"/>
		<path class="st2" d="M93.53,72.65c0.54-0.06,0.84-0.5,0.89-1.31l2.37-0.13c-0.11,1.22-0.28,2.05-0.51,2.48
			c-0.38,0.72-1.09,1.08-2.15,1.08c-1.14,0-1.94-0.34-2.4-1.01c-0.38-0.56-0.57-1.44-0.57-2.64c0-1.03,0.18-1.91,0.54-2.66
			c0.47-0.96,1.16-1.44,2.08-1.44c0.81,0,1.45,0.28,1.93,0.83c0.45,0.52,0.68,1.19,0.68,2.02v0.11l-2.12,0.04l0.01-0.11
			c0-0.2-0.07-0.37-0.22-0.51c-0.15-0.15-0.32-0.22-0.51-0.22c-0.26,0-0.45,0.27-0.58,0.81c-0.08,0.52-0.13,0.91-0.14,1.18
			C92.77,72.09,93,72.58,93.53,72.65z"/>
		<path class="st2" d="M104.25,71.18c0,2.34-1,3.51-2.99,3.51c-0.48,0-0.8-0.24-0.95-0.73c-0.11-0.63-0.19-1.1-0.24-1.42
			c-0.09-0.53-0.3-0.84-0.63-0.92c-0.1,0.56-0.15,1.53-0.15,2.91h-2.21l0.17-3.54c0.08-1.5,0.12-2.68,0.12-3.55
			c0-0.67-0.03-1.09-0.08-1.28c0.49,0,1.23-0.01,2.21-0.03c0.98-0.02,1.72-0.03,2.21-0.03c1.59,0,2.38,0.58,2.38,1.75
			c0,0.72-0.32,1.37-0.95,1.97c-0.55,0.51-1.21,0.88-1.98,1.1c0.27,0.36,0.43,0.61,0.47,0.77c0.01,0.07,0.02,0.36,0.02,0.88
			l0.1,0.24l0.12,0.03c0.17-0.1,0.25-0.44,0.25-1.02c0-0.23-0.01-0.53-0.04-0.9C103.31,70.92,104.03,71.01,104.25,71.18z
			 M101.14,69.23c0.7-0.32,1.08-0.71,1.15-1.15c0-0.47-0.5-0.7-1.5-0.7c-0.34,0-0.73,0.03-1.19,0.09l-0.04,2.28
			C100.29,69.55,100.82,69.38,101.14,69.23z"/>
		<path class="st2" d="M110.1,67.71c0.41,0.66,0.62,1.55,0.62,2.66c0,1.15-0.17,2.11-0.5,2.89c-0.46,1.05-1.19,1.57-2.2,1.57
			c-1.07,0-1.93-0.47-2.57-1.4c-0.56-0.82-0.84-1.79-0.84-2.93c0-0.99,0.28-1.88,0.83-2.67c0.61-0.89,1.4-1.33,2.34-1.33
			C108.83,66.5,109.6,66.9,110.1,67.71z M108.86,71.61c0.13-0.39,0.19-0.86,0.19-1.43c0-1.33-0.42-2-1.25-2
			c-0.43,0-0.78,0.25-1.03,0.74c-0.21,0.41-0.31,0.85-0.31,1.33c0,0.54,0.1,1.02,0.31,1.44c0.26,0.53,0.64,0.8,1.14,0.8
			C108.35,72.49,108.67,72.2,108.86,71.61z"/>
		<path class="st2" d="M113.03,70.59c-0.8-0.14-1.32-0.31-1.56-0.5c-0.35-0.28-0.53-0.8-0.53-1.57c0-0.83,0.28-1.51,0.84-2.03
			c0.56-0.52,1.26-0.79,2.09-0.79c0.74,0,1.33,0.33,1.76,1c0.36,0.57,0.55,1.24,0.55,2.03l-0.06,0.13h-0.91
			c-0.47,0-0.82-0.01-1.05-0.04l0.01-0.04c-0.03-0.43-0.15-0.73-0.34-0.88c-0.08-0.06-0.18-0.09-0.28-0.1
			c-0.17,0.02-0.31,0.08-0.44,0.19c-0.12,0.1-0.18,0.24-0.18,0.41c0,0.04,0,0.09,0.01,0.14c-0.01,0.04-0.01,0.08-0.01,0.11
			c0,0.41,0.36,0.6,1.08,0.58c0.79,0.18,1.35,0.43,1.67,0.77c0.37,0.38,0.56,0.96,0.56,1.74c0,0.79-0.26,1.48-0.78,2.07
			c-0.54,0.61-1.2,0.92-1.99,0.92c-0.86,0-1.51-0.31-1.96-0.93c-0.39-0.55-0.59-1.27-0.59-2.16c0-0.26,0.04-0.46,0.12-0.61
			c0.26,0,0.55,0,0.86,0c0.21,0.01,0.43,0.01,0.66,0.02c0.2,0,0.3,0,0.28,0c-0.01,0.16-0.02,0.3-0.02,0.44
			c0,0.97,0.3,1.47,0.91,1.52c0.55-0.06,0.82-0.36,0.82-0.9c0-0.12-0.01-0.25-0.04-0.4C114.54,71.23,114.05,70.86,113.03,70.59z"/>
		<path class="st2" d="M122.22,67.71c0.41,0.66,0.62,1.55,0.62,2.66c0,1.15-0.17,2.11-0.5,2.89c-0.46,1.05-1.19,1.57-2.2,1.57
			c-1.07,0-1.93-0.47-2.57-1.4c-0.56-0.82-0.84-1.79-0.84-2.93c0-0.99,0.28-1.88,0.83-2.67c0.61-0.89,1.4-1.33,2.34-1.33
			C120.94,66.5,121.72,66.9,122.22,67.71z M120.97,71.61c0.13-0.39,0.19-0.86,0.19-1.43c0-1.33-0.42-2-1.25-2
			c-0.43,0-0.78,0.25-1.03,0.74c-0.21,0.41-0.31,0.85-0.31,1.33c0,0.54,0.1,1.02,0.31,1.44c0.26,0.53,0.64,0.8,1.14,0.8
			C120.46,72.49,120.78,72.2,120.97,71.61z"/>
		<path class="st2" d="M127.47,69.15l0.05,1.56l-1.07,0.17l0.26,3.73l-2.57,0.23l0.05-0.97c0.03-0.39,0.04-0.71,0.04-0.97
			c0-0.7-0.05-1.3-0.16-1.8l-0.99,0.03l-0.03-1.85l0.89-0.12c-0.05-0.45-0.08-0.69-0.08-0.71c0-1.23,0.27-2.1,0.82-2.61
			c0.53-0.49,1.41-0.73,2.66-0.73c0.66,0,1.29,0.07,1.91,0.22l-0.54,1.68c-0.14-0.03-0.24-0.04-0.32-0.04
			c-0.06,0-0.15,0.01-0.26,0.02c-0.11,0.01-0.2,0.02-0.26,0.02c-0.18-0.04-0.34-0.06-0.5-0.06c-0.89,0-1.34,0.58-1.34,1.74
			c0,0.16,0.01,0.31,0.03,0.46H127.47z"/>
		<path class="st2" d="M130.98,69.84l-1.53-0.03v-3.25c0.3,0.01,0.62,0.01,0.97,0.01c0.38,0,0.93-0.01,1.66-0.03
			c0.86-0.01,1.41-0.02,1.65-0.02l1.23,0.01c0,0.36-0.01,0.91-0.02,1.64c-0.01,0.73-0.02,1.28-0.02,1.64h-1.95l-0.09,4.68
			l-0.06,0.03h-2.01L130.98,69.84z"/>
		<path class="st2" d="M89.79,83.25l-0.58,0.09c0.02,0.17,0.02,0.43,0.01,0.77c-0.01,0.19-0.08,0.45-0.21,0.78
			c-0.13,0.33-0.21,0.51-0.25,0.53c-0.51,0.73-1.31,1.09-2.39,1.09c-0.82,0-1.44-0.41-1.85-1.24c-0.33-0.64-0.5-1.41-0.5-2.29
			c0-1.14,0.18-2.05,0.55-2.73c0.47-0.88,1.23-1.32,2.28-1.32c0.78,0,1.32,0.26,1.62,0.77c0.24,0.4,0.35,1.01,0.35,1.83l-2.05,0.35
			v0.03c-0.19-0.57-0.45-0.86-0.79-0.86c-0.2,0-0.32,0.11-0.38,0.32c-0.02,0.09-0.03,0.27-0.03,0.54c0,1.53,0.25,2.3,0.74,2.3
			c0.3,0,0.48-0.03,0.54-0.08c0.07-0.1,0.1-0.22,0.1-0.35c0-0.05-0.01-0.11-0.02-0.16l-0.72,0.1c0-0.49-0.02-0.91-0.07-1.26
			c0.11,0,0.56-0.05,1.35-0.15c0.64-0.07,1.04-0.1,1.2-0.1l1.14-0.15C89.79,82.38,89.77,82.77,89.79,83.25z"/>
		<path class="st2" d="M97.31,82.23c0,2.34-1,3.51-2.99,3.51c-0.48,0-0.8-0.24-0.95-0.73c-0.11-0.63-0.19-1.1-0.24-1.42
			c-0.09-0.53-0.3-0.84-0.63-0.92c-0.1,0.56-0.15,1.53-0.15,2.91h-2.21l0.17-3.54c0.08-1.5,0.12-2.68,0.12-3.55
			c0-0.67-0.03-1.09-0.08-1.28c0.49,0,1.23-0.01,2.21-0.03c0.98-0.02,1.72-0.03,2.21-0.03c1.59,0,2.38,0.58,2.38,1.75
			c0,0.72-0.32,1.37-0.95,1.97c-0.55,0.51-1.21,0.88-1.98,1.1c0.27,0.36,0.43,0.61,0.47,0.77c0.01,0.07,0.02,0.36,0.02,0.88
			l0.1,0.24l0.12,0.03c0.17-0.1,0.25-0.44,0.25-1.02c0-0.23-0.01-0.53-0.04-0.9C96.36,81.98,97.08,82.06,97.31,82.23z M94.19,80.29
			c0.7-0.32,1.08-0.71,1.15-1.15c0-0.47-0.5-0.7-1.5-0.7c-0.34,0-0.73,0.03-1.19,0.09l-0.04,2.28
			C93.34,80.61,93.87,80.44,94.19,80.29z"/>
		<path class="st2" d="M102.48,78.6c0.56,0.43,0.84,0.94,0.84,1.53c0,2.07-0.05,3.77-0.15,5.1c-1.07,0.5-2.15,0.75-3.25,0.75
			c-0.67,0-1.2-0.16-1.59-0.47c-0.44-0.34-0.66-0.84-0.66-1.49c0-0.54,0.21-1,0.63-1.37c0.33-0.24,1.34-0.79,3.04-1.64
			c0.01-0.24-0.03-0.48-0.13-0.73c-0.12-0.29-0.3-0.44-0.54-0.44c-0.34,0-0.51,0.26-0.51,0.79c0,0.19,0.02,0.38,0.06,0.56
			c-0.27-0.03-0.54-0.05-0.8-0.05c-0.43,0-0.84,0.06-1.24,0.17c-0.04-0.14-0.07-0.23-0.09-0.29c0-1.01,0.19-1.75,0.57-2.22
			c0.43-0.53,1.13-0.79,2.12-0.79C101.39,78.02,101.95,78.21,102.48,78.6z M101.44,82.77c-0.92,0.22-1.55,0.51-1.9,0.87
			c-0.14,0.15-0.22,0.3-0.24,0.47c0.05,0.25,0.29,0.38,0.71,0.38c0.36,0,0.84-0.1,1.43-0.31V82.77z"/>
		<path class="st2" d="M109.75,78.55c0.56,0.5,0.84,1.08,0.84,1.74c0,1.16-0.26,1.98-0.77,2.46c-0.51,0.48-1.34,0.71-2.5,0.71
			c-0.28,0-0.62-0.01-1.01-0.03l-0.08,2.63l-2.35-0.08l0.14-2.45c0.06-1.03,0.09-1.84,0.09-2.44c0-0.42-0.03-0.97-0.09-1.64
			l-0.14-1.63h4.01C108.57,77.8,109.19,78.05,109.75,78.55z M107.41,81.69c0.8,0,1.18-0.41,1.13-1.24
			c-0.18-0.86-0.66-1.29-1.46-1.29c-0.25,0-0.52,0.05-0.81,0.15l0.16,2.19C106.81,81.63,107.13,81.69,107.41,81.69z"/>
		<path class="st2" d="M114.98,83.52c0.05-0.43,0.08-0.91,0.11-1.43c0.01-0.97-0.26-1.46-0.79-1.46c-0.31,0-0.7,0.18-1.17,0.55
			c-0.03,0.38-0.07,0.76-0.11,1.15c-0.06,0.62-0.09,1.04-0.09,1.27c0.01,0.78,0.02,1.25,0.02,1.41v0.03l-2.01-0.25l0.24-8.28h2.09
			v2.42c0.55-0.34,1.13-0.51,1.72-0.52c1.66-0.02,2.49,1.26,2.49,3.84c0,0.33-0.03,0.91-0.08,1.74c-0.04,0.63-0.06,1.08-0.05,1.37
			l-2.79,0.49C114.75,85.35,114.88,84.57,114.98,83.52z"/>
	</g>
	<path class="st13" d="M79.34,39.58c-0.02,0-0.05-0.01-0.07-0.01c-0.03,0-0.05,0-0.07,0c-0.2,0.01-0.4,0.04-0.6,0.09
		c-0.24,0.06-0.28,0.41-0.07,0.53c1.14,0.63-0.29,2.07-0.92,0.92c-0.12-0.22-0.47-0.17-0.53,0.07c-0.53,2.08,1.84,3.85,3.6,2.45
		C82.36,42.3,81.36,39.72,79.34,39.58z M54.7,39.58c-0.02,0-0.05-0.01-0.07-0.01c-0.02,0-0.05,0-0.07,0
		c-0.19,0.01-0.36,0.04-0.55,0.08c-0.25,0.06-0.27,0.4-0.07,0.53c1.04,0.66-0.31,2.05-0.99,0.99c-0.13-0.2-0.47-0.18-0.53,0.07
		c-0.49,2.07,1.87,3.79,3.62,2.4C57.72,42.3,56.72,39.72,54.7,39.58z"/>
</g>
</svg>
