<svg xmlns="http://www.w3.org/2000/svg" viewBox="0 0 233.53 233.53"><defs><style>.cls-1{fill:#03787c;}</style></defs><g id="Layer_2" data-name="Layer 2"><g id="Layer_1-2" data-name="Layer 1"><g id="PS_-_Teal" data-name="PS - Teal"><path class="cls-1" d="M64.16,55.3q0-11.41-13.49-11.41H44V67h6.65Q64.17,67,64.16,55.3Z"/><path class="cls-1" d="M233.53,0H0V140.81H0v92.72H233.53V0ZM157.75,31.09h26.47q28.35,0,28.35,23.59a22.52,22.52,0,0,1-8.13,18q-8.15,6.89-21.74,6.88h-8.06v25.5H157.75ZM91.31,52.25h16.53v8.36h.21A19,19,0,0,1,125.26,51q17.79,0,17.79,21.78V105.1H126.57V75.73q0-12.27-8.89-12.28a8.88,8.88,0,0,0-7.06,3.25A12.28,12.28,0,0,0,107.84,75V105.1H91.31ZM27.13,31.09H53.6Q82,31.09,82,54.68a22.52,22.52,0,0,1-8.13,18q-8.14,6.89-21.74,6.88H44v25.5H27.13Zm199.4,195.44H7V140.81H226.53Z"/><path class="cls-1" d="M194.78,55.3q0-11.41-13.49-11.41h-6.65V67h6.65Q194.79,67,194.78,55.3Z"/><path class="cls-1" d="M91.91,190.6v17H80.79V158.26H98.2q18.64,0,18.65,15.72a15.07,15.07,0,0,1-5.35,12q-5.35,4.6-14.3,4.6Zm0-23.81v15.38h4.37q8.86,0,8.87-7.78,0-7.6-8.87-7.6Z"/><path class="cls-1" d="M121.8,205.7v-11a21.19,21.19,0,0,0,6.51,3.77,20.81,20.81,0,0,0,7.08,1.25,16,16,0,0,0,3.67-.37,9,9,0,0,0,2.61-1.05,4.66,4.66,0,0,0,1.57-1.59,4,4,0,0,0,.52-2,4.3,4.3,0,0,0-.83-2.58,9,9,0,0,0-2.25-2.09,24,24,0,0,0-3.39-1.86q-2-.9-4.23-1.83a21.45,21.45,0,0,1-8.62-5.88,12.8,12.8,0,0,1-2.84-8.39,12.76,12.76,0,0,1,5.76-11.19,19.17,19.17,0,0,1,6.18-2.63,31.8,31.8,0,0,1,7.43-.84,44.75,44.75,0,0,1,6.83.46,26.94,26.94,0,0,1,5.48,1.43v10.29a16,16,0,0,0-2.7-1.51,20.75,20.75,0,0,0-3-1.09,22.44,22.44,0,0,0-3.08-.63,21.4,21.4,0,0,0-2.9-.21,15.2,15.2,0,0,0-3.44.36,8.63,8.63,0,0,0-2.62,1,5,5,0,0,0-1.65,1.56,3.71,3.71,0,0,0-.58,2,3.9,3.9,0,0,0,.65,2.22,7.25,7.25,0,0,0,1.86,1.85,18.78,18.78,0,0,0,2.92,1.72c1.15.57,2.44,1.15,3.89,1.74a45.31,45.31,0,0,1,5.31,2.63,18.91,18.91,0,0,1,4,3.15,12.42,12.42,0,0,1,2.58,4,14.29,14.29,0,0,1,.89,5.25,14.09,14.09,0,0,1-1.56,6.93,12.76,12.76,0,0,1-4.25,4.54,18.49,18.49,0,0,1-6.25,2.5,36.36,36.36,0,0,1-7.51.75,41.78,41.78,0,0,1-7.73-.69A23,23,0,0,1,121.8,205.7Z"/></g></g></g></svg>