<svg xmlns="http://www.w3.org/2000/svg" width="256" height="221.702" viewBox="0 0 256 221.702">
  <defs>
    <style>
      .a {
        fill: #41a4ed;
      }

      .b {
        fill: #2b7cd2;
      }

      .c {
        fill: #0358a6;
      }

      .d {
        fill: #103f90;
      }

      .e {
        fill: #163870;
      }

      .f {
        fill: #112d56;
      }

      .g {
        fill: #0078d3;
      }

      .h {
        fill: #2770c0;
      }

      .i {
        fill: #036dc0;
      }

      .j {
        fill: #fff;
      }
    </style>
  </defs>
  <title>graph_color256</title>
  <polygon class="a" points="68.451 7.384 188.32 7.384 87.05 44.735 68.451 7.384"/>
  <polyline class="a" points="248.558 111.257 199.256 111.263 188.32 7.384 248.558 111.257"/>
  <polyline class="b" points="87.05 44.735 188.32 7.384 199.256 111.263 87.05 44.735"/>
  <polyline class="c" points="87.05 44.735 89.86 175.035 199.073 111.255 87.05 44.735"/>
  <polygon class="d" points="8.477 111.255 87.05 44.735 89.877 175.035 8.477 111.255"/>
  <polyline class="d" points="89.878 175.034 199.256 111.263 188.356 215.141 89.878 175.034"/>
  <polygon class="e" points="8.477 111.255 89.877 175.035 68.451 215.142 8.477 111.255"/>
  <polygon class="f" points="68.451 215.142 89.877 175.035 188.356 215.141 68.451 215.142"/>
  <polygon class="g" points="8.477 111.255 68.451 7.384 87.05 44.735 8.477 111.255"/>
  <polyline class="g" points="188.356 215.141 248.446 111.255 199.256 111.255 188.356 215.141"/>
  <polyline class="h" points="199.255 111.259 199.255 111.263 199.256 111.263 199.255 111.259"/>
  <polyline class="i" points="248.446 111.255 199.256 111.255 199.255 111.259 199.255 111.263 188.356 215.141 248.446 111.255"/>
  <path class="j" d="M253.652,106.784,194.348,4.067,192,0H64L61.652,4.067,2.348,106.784,0,110.851l2.348,4.067,59.3,102.718L64,221.7H192l2.348-4.066,59.3-102.718L256,110.851Zm-8.591,1.388-40,.006a9.978,9.978,0,0,0-3.546-4.331L192.363,16.9ZM98.286,166.517a9.907,9.907,0,0,0-4.55-2.524L91.391,57.322a9.938,9.938,0,0,0,4.82-3.468L187,107.662a9.86,9.86,0,0,0-.545,7.447Zm93.245-63.38L98.211,47.829a9.907,9.907,0,0,0-.4-2.733l87.877-32.4,9.416,89.453A9.847,9.847,0,0,0,191.531,103.137ZM94.1,39.852a9.876,9.876,0,0,0-5.825-1.9c-.16,0-.317.016-.475.024L72.972,8.134H180.134Zm-12.69,15.21a9.926,9.926,0,0,0,3.774,2.268l2.356,107.124a9.916,9.916,0,0,0-2.484,1.491l-69.9-54.767ZM89.589,183.4a9.827,9.827,0,0,0,8.644-2.61l80.5,32.779H73.473Zm96.145,26.322-84.59-34.444a9.253,9.253,0,0,0,.006-3.252l89-51.891a9.878,9.878,0,0,0,4.795,1.8ZM67.272,10.6l14.71,29.6a9.8,9.8,0,0,0-3.51,9.221L12.684,105.149ZM13.278,117.582l68.449,53.632a9.835,9.835,0,0,0,2.41,9.23l-16.612,31.1Zm179.236,86.964,8.833-84.189a9.936,9.936,0,0,0,4.21-5.976l39.017-.007Z"/>
</svg>
