<svg id="Layer_1" data-name="Layer 1" xmlns="http://www.w3.org/2000/svg" xmlns:xlink="http://www.w3.org/1999/xlink" viewBox="0 0 50.61 48.78"><defs><style>.cls-1{fill:#036c70;}.cls-2{fill:#1a9ba1;}.cls-3{fill:#37c6d0;}.cls-4{fill:none;}.cls-5{opacity:0.1;}.cls-5,.cls-6{isolation:isolate;}.cls-6{opacity:0.2;}.cls-7{fill:url(#linear-gradient);}.cls-8{fill:#fff;}.cls-9{fill:#e0eaf5;}.cls-10,.cls-11,.cls-12,.cls-9{fill-rule:evenodd;}.cls-10{fill:#2671be;}.cls-11{fill:#fdfdfe;}.cls-12{fill:#fcfdfd;}</style><linearGradient id="linear-gradient" x1="5.82" y1="39.41" x2="20.18" y2="14.55" gradientTransform="matrix(1, 0, 0, -1, 0, 50.98)" gradientUnits="userSpaceOnUse"><stop offset="0" stop-color="#058f92"/><stop offset="0.5" stop-color="#038489"/><stop offset="1" stop-color="#026d71"/></linearGradient></defs><circle class="cls-1" cx="24" cy="15" r="12"/><circle class="cls-2" cx="34" cy="26" r="11"/><circle class="cls-3" cx="25.5" cy="36.5" r="8.5"/><path class="cls-4" d="M0,0H48V48H0Z"/><path class="cls-5" d="M26,13.83V35.17A1.85,1.85,0,0,1,24.17,37H17c0-.17,0-.33,0-.5a4.18,4.18,0,0,1,0-.5,8.46,8.46,0,0,1,5.09-7.29V26.85a12,12,0,0,1-10-13.71.68.68,0,0,1,0-.14,8.45,8.45,0,0,1,.21-1H24.17A1.83,1.83,0,0,1,26,13.83Z"/><path class="cls-6" d="M23.17,13h-11A12,12,0,0,0,22,26.83l.6.09C19.47,28.39,17.21,32.56,17,36a4.18,4.18,0,0,0,0,.5c0,.17,0,.33,0,.5a6.67,6.67,0,0,0,.13,1h6A1.85,1.85,0,0,0,25,36.17V14.83A1.83,1.83,0,0,0,23.17,13Z"/><path class="cls-6" d="M23.17,13h-11A12,12,0,0,0,22,26.83l.4.06c-3,1.58-5.17,5.74-5.36,9.11h6.15A1.84,1.84,0,0,0,25,34.17V14.83A1.83,1.83,0,0,0,23.17,13Z"/><path class="cls-6" d="M22.17,13h-10A12,12,0,0,0,21,26.63,16.55,16.55,0,0,0,17,36h5.15A1.83,1.83,0,0,0,24,34.17V14.83A1.83,1.83,0,0,0,22.17,13Z"/><rect class="cls-7" x="2" y="13" width="22" height="22" rx="1.83"/><path class="cls-8" d="M10.19,23.78a3.48,3.48,0,0,1-1-1.11,3.11,3.11,0,0,1-.37-1.52,2.94,2.94,0,0,1,.68-2A4,4,0,0,1,11.26,18a7.93,7.93,0,0,1,2.47-.39,9.44,9.44,0,0,1,3.25.46v2.3a5.06,5.06,0,0,0-1.47-.6,7.17,7.17,0,0,0-1.72-.21A3.74,3.74,0,0,0,12,20a1.14,1.14,0,0,0-.7,1.06,1.05,1.05,0,0,0,.3.75,2.66,2.66,0,0,0,.8.57c.33.17.83.39,1.5.67l.21.08A11.89,11.89,0,0,1,16,24a3.33,3.33,0,0,1,1.12,1.12,3.17,3.17,0,0,1,.4,1.7,3.14,3.14,0,0,1-.63,2.05A3.64,3.64,0,0,1,15.21,30a7.45,7.45,0,0,1-2.43.35,11.67,11.67,0,0,1-2.2-.18,7.41,7.41,0,0,1-1.78-.52V27.25a5.75,5.75,0,0,0,1.8.86,7,7,0,0,0,2,.32,3.43,3.43,0,0,0,1.8-.38A1.22,1.22,0,0,0,15,27a1.13,1.13,0,0,0-.34-.82,3.46,3.46,0,0,0-.94-.66c-.4-.2-1-.46-1.76-.79A10.24,10.24,0,0,1,10.19,23.78Z"/><path class="cls-9" d="M37.49,24.81H48.2c2.12,0,2.72.72,2.26,2.82q-2,9.21-4.09,18.4c-.44,1.94-1.45,2.73-3.49,2.74q-10.71,0-21.43,0c-2.33,0-2.95-.8-2.44-3q2-9,4.12-18c.52-2.29,1.32-2.92,3.64-2.93Z"/><path class="cls-10" d="M32.09,48.05c-3.57,0-7.14,0-10.71,0-1.81,0-2.14-.44-1.74-2.21,1.39-6,2.81-12,4.16-18a2.53,2.53,0,0,1,2.88-2.31c7.14.06,14.28,0,21.42,0,1.8,0,2.1.39,1.69,2.21q-1.95,8.84-3.95,17.68c-.5,2.21-1.08,2.63-3.4,2.63C39,48.06,35.54,48.05,32.09,48.05Z"/><path class="cls-11" d="M35.13,36.28c-.24-.28-.5-.6-.78-.91-1.58-1.76-3.14-3.52-4.75-5.25-.74-.79-1-1.56-.09-2.34A1.61,1.61,0,0,1,32,28c2.23,2.47,4.46,4.95,6.73,7.38.84.91.64,1.53-.29,2.21q-5.35,3.89-10.68,7.83c-.8.59-1.56.73-2.21-.14s-.05-1.53.69-2.07q4-2.88,7.89-5.8C34.54,37.1,35.06,36.94,35.13,36.28Z"/><path class="cls-12" d="M36.26,45.57c-1,0-1.92,0-2.88,0a1.14,1.14,0,0,1-1.22-1.27c0-.76.39-1.33,1.16-1.35,2.1-.06,4.21,0,6.31,0a1.1,1.1,0,0,1,1.15,1.15,1.33,1.33,0,0,1-1.28,1.47c-1.07.06-2.16,0-3.24,0Z"/></svg>