<?xml version="1.0" encoding="UTF-8" standalone="no"?>
<!DOCTYPE svg PUBLIC "-//W3C//DTD SVG 1.1//EN" "http://www.w3.org/Graphics/SVG/1.1/DTD/svg11.dtd">

<!-- Created with Vectornator (http://vectornator.io/) -->
<svg height="100%" stroke-miterlimit="10" style="fill-rule:nonzero;clip-rule:evenodd;stroke-linecap:round;stroke-linejoin:round;" version="1.1" viewBox="0 0 32 32" width="100%" xml:space="preserve" xmlns="http://www.w3.org/2000/svg" xmlns:vectornator="http://vectornator.io" xmlns:xlink="http://www.w3.org/1999/xlink">
<metadata>
<vectornator:setting key="IsTimeLapseWatermarkDisabled" value="false"/>
<vectornator:setting key="UndoHistoryDisabled" value="true"/>
<vectornator:setting key="VNDimensionsVisible" value="true"/>
<vectornator:setting key="VNSnapToGuides" value="true"/>
<vectornator:setting key="WDCMYKEnabledKey" value="false"/>
<vectornator:setting key="WDDisplayWhiteBackground" value="false"/>
<vectornator:setting key="WDDynamicGuides" value="false"/>
<vectornator:setting key="WDGuidesVisible" value="true"/>
<vectornator:setting key="WDIsolateActiveLayer" value="false"/>
<vectornator:setting key="WDOutlineMode" value="false"/>
<vectornator:setting key="WDRulersVisible" value="true"/>
<vectornator:setting key="WDSnapToEdges" value="false"/>
<vectornator:setting key="WDSnapToGrid" value="false"/>
<vectornator:setting key="WDSnapToPoints" value="false"/>
<vectornator:setting key="WDUnits" value="Points"/>
</metadata>
<defs>
<linearGradient gradientTransform="matrix(1 0 0 1 0 0)" gradientUnits="userSpaceOnUse" id="LinearGradient" x1="26.802" x2="9.398" y1="36.441" y2="6.297">
<stop offset="0.096" stop-color="#30e5d0"/>
<stop offset="1" stop-color="#0c34fb"/>
</linearGradient>
</defs>
<g id="Untitled" vectornator:layerName="Untitled">
<path d="M1.33 4L28.67 4C29.4045 4 30 4.59546 30 5.33L30 26.67C30 27.4045 29.4045 28 28.67 28L1.33 28C0.595461 28 1.63239e-07 27.4045 5.23269e-08 26.67L5.23269e-08 5.33C1.55339e-07 4.59546 0.595461 4 1.33 4Z" fill="url(#LinearGradient)" fill-rule="evenodd" opacity="1" stroke="none"/>
<path d="M4.6 12.55C5.56349 12.5283 6.49914 12.874 7.217 13.517C7.9 14.083 10.165 16.271 10.6 16.783C11.3141 17.7372 12.6211 18.0214 13.667 17.45C14.083 17.217 14.292 17.127 14.425 17.054C14.57 16.9822 14.743 16.9976 14.873 17.094C15.001 17.191 14.968 17.431 14.909 17.561C14.3883 18.9283 13.0801 19.8343 11.617 19.841C10.6795 19.8468 9.77368 19.5023 9.077 18.875C7.86525 17.7528 6.71078 16.5703 5.618 15.332C5.21157 14.8082 4.58501 14.5026 3.922 14.505C3.30369 14.52 2.70842 14.7426 2.232 15.137C2.0164 15.2881 1.78976 15.4228 1.554 15.54C1.4163 15.5993 1.25622 15.5656 1.154 15.456C0.960997 15.228 1.14 15.006 1.204 14.896C1.79551 13.53 3.11304 12.6198 4.6 12.55Z" fill="#ffffff" fill-rule="evenodd" opacity="1" stroke="none"/>
<path d="M30 5.33L30 6.5L19.86 16.64C19.85 16.66 19.83 16.67 19.81 16.69C19.78 16.7006 19.7527 16.7177 19.73 16.74L16.21 17.49C16.1017 17.5075 15.9939 17.4556 15.94 17.36L15.91 17.3L15.08 17.36C14.9444 17.3567 14.8223 17.2768 14.765 17.1538C14.7078 17.0308 14.7252 16.8859 14.81 16.78L15.41 16.19L15.38 16.13C15.3433 16.0261 15.3752 15.9104 15.46 15.84L16.18 14.44L17.15 14.16C17.17 14.13 17.18 14.11 17.2 14.08C17.22 14.06 17.23 14.04 17.25 14.02L27.28 4L28.67 4C29.4032 4.00329 29.9967 4.59683 30 5.33Z" fill="#000000" fill-rule="evenodd" opacity="0.3" stroke="none"/>
<path d="M16.519 16.673L15.148 17.307C15.0186 17.3515 14.8751 17.3184 14.7784 17.2216C14.6816 17.1249 14.6485 16.9814 14.693 16.852L15.327 15.482L16.519 16.673Z" fill="#1e2021" fill-rule="evenodd" opacity="1" stroke="none"/>
<path d="M18.933 15.688L31.937 2.684C32.0226 2.57833 32.0209 2.42675 31.933 2.323C31.3205 1.44336 30.5566 0.679499 29.677 0.067C29.5733-0.0208804 29.4217-0.02256 29.316 0.063L16.312 13.067C16.295 13.0842 16.2793 13.1026 16.265 13.122L16.937 14.924L18.878 15.734C18.8974 15.72 18.9158 15.7046 18.933 15.688Z" fill="#333333" fill-rule="evenodd" opacity="1" stroke="none"/>
<path d="M16.265 13.122C16.2459 13.1478 16.2291 13.1752 16.215 13.204L15.566 14.528L14.969 15.747C14.9132 15.8428 14.9249 15.9636 14.998 16.047L15.953 17.003C16.0368 17.0752 16.1572 17.0865 16.253 17.031L17.473 16.434L18.796 15.785C18.825 15.7712 18.8525 15.7544 18.878 15.735L16.265 13.122Z" fill="#cccccc" fill-rule="evenodd" opacity="1" stroke="none"/>
</g>
<g id="Layer-1" vectornator:layerName="Layer 1">
<g opacity="1">
<path d="M16.0098 29.9902C16.0098 25.1333 16.0145 20.2763 16 15.4195C15.999 15.0704 16.0702 14.9989 16.4194 15C21.1397 15.0146 25.8602 15.0146 30.5805 15C30.9297 14.9989 31.001 15.0704 31 15.4195C30.9855 20.2763 30.9902 25.1333 30.9902 29.9902C30.8283 30.0906 30.6484 30.0466 30.4768 30.0467C25.8256 30.0492 21.1744 30.0492 16.5232 30.0467C16.3516 30.0466 16.1716 30.0906 16.0098 29.9902Z" fill="#2671be" fill-rule="evenodd" opacity="0" stroke="none"/>
<path d="M24.3949 18.6471C25.5455 18.6467 26.6962 18.6432 27.8469 18.6481C28.531 18.6509 28.7238 18.8795 28.5764 19.555C28.1445 21.5335 27.703 23.51 27.2555 25.485C27.114 26.1093 26.7889 26.365 26.1321 26.367C23.8308 26.3738 21.5294 26.3746 19.2281 26.3667C18.4759 26.364 18.278 26.1092 18.4401 25.3964C18.8798 23.4603 19.3219 21.5249 19.7676 19.5902C19.9373 18.853 20.1924 18.6505 20.9428 18.6484C22.0935 18.6451 23.2442 18.6475 24.3949 18.6471Z" fill="#e0eaf5" fill-rule="evenodd" opacity="1" stroke="none"/>
<path d="M22.656 26.1369C21.5052 26.1365 20.3543 26.1418 19.2036 26.1342C18.62 26.1304 18.5139 25.9927 18.6453 25.422C19.0906 23.4863 19.5503 21.5539 19.9857 19.616C20.1025 19.0962 20.3544 18.8665 20.9112 18.8717C23.2126 18.893 25.5144 18.8785 27.816 18.8809C28.3932 18.8814 28.4901 19.0049 28.3605 19.5903C27.9399 21.4908 27.5165 23.3908 27.0857 25.2891C26.9245 25.9995 26.7388 26.135 25.9914 26.1367C24.8796 26.139 23.7677 26.1373 22.656 26.1369Z" fill="#2671be" fill-rule="evenodd" opacity="1" stroke="none"/>
<path d="M23.6352 22.3434C23.5581 22.2529 23.4733 22.1487 23.3836 22.0491C22.8749 21.4841 22.3707 20.9148 21.853 20.3582C21.6161 20.1035 21.5406 19.8561 21.8251 19.6047C22.1063 19.3562 22.3825 19.3782 22.6405 19.6641C23.3588 20.4601 24.0763 21.257 24.8065 22.0421C25.0791 22.3353 25.0156 22.5347 24.7153 22.752C23.5628 23.5862 22.4167 24.4295 21.2719 25.2744C21.0146 25.4643 20.7692 25.5119 20.5614 25.2313C20.3321 24.9218 20.5442 24.7377 20.7821 24.5645C21.6328 23.9448 22.4819 23.3229 23.3273 22.696C23.4451 22.6087 23.6142 22.5578 23.6352 22.3434Z" fill="#fdfdfe" fill-rule="evenodd" opacity="1" stroke="none"/>
<path d="M23.9996 25.3371C23.6898 25.3371 23.3795 25.3478 23.0704 25.3337C22.8237 25.3226 22.6753 25.1847 22.6784 24.925C22.6814 24.6794 22.8052 24.4947 23.0516 24.488C23.7288 24.4699 24.4069 24.4738 25.0843 24.487C25.2996 24.4912 25.4585 24.6315 25.4572 24.8558C25.4557 25.1131 25.3203 25.3125 25.0447 25.3291C24.6975 25.3501 24.3481 25.3343 23.9996 25.3343C23.9996 25.3352 23.9996 25.3362 23.9996 25.3371Z" fill="#fcfdfd" fill-rule="evenodd" opacity="1" stroke="none"/>
</g>
<g opacity="1">
<path d="M16.0098 29.9902C16.0098 25.1333 16.0145 20.2763 16 15.4195C15.999 15.0704 16.0702 14.9989 16.4194 15C21.1397 15.0146 25.8602 15.0146 30.5805 15C30.9297 14.9989 31.001 15.0704 31 15.4195C30.9855 20.2763 30.9902 25.1333 30.9902 29.9902C30.8283 30.0906 30.6484 30.0466 30.4768 30.0467C25.8256 30.0492 21.1744 30.0492 16.5232 30.0467C16.3516 30.0466 16.1716 30.0906 16.0098 29.9902Z" fill="#2671be" fill-rule="evenodd" opacity="0" stroke="none"/>
<path d="M24.3949 18.6471C25.5455 18.6467 26.6962 18.6432 27.8469 18.6481C28.531 18.6509 28.7238 18.8795 28.5764 19.555C28.1445 21.5335 27.703 23.51 27.2555 25.485C27.114 26.1093 26.7889 26.365 26.1321 26.367C23.8308 26.3738 21.5294 26.3746 19.2281 26.3667C18.4759 26.364 18.278 26.1092 18.4401 25.3964C18.8798 23.4603 19.3219 21.5249 19.7676 19.5902C19.9373 18.853 20.1924 18.6505 20.9428 18.6484C22.0935 18.6451 23.2442 18.6475 24.3949 18.6471Z" fill="#e0eaf5" fill-rule="evenodd" opacity="1" stroke="none"/>
<path d="M22.656 26.1369C21.5052 26.1365 20.3543 26.1418 19.2036 26.1342C18.62 26.1304 18.5139 25.9927 18.6453 25.422C19.0906 23.4863 19.5503 21.5539 19.9857 19.616C20.1025 19.0962 20.3544 18.8665 20.9112 18.8717C23.2126 18.893 25.5144 18.8785 27.816 18.8809C28.3932 18.8814 28.4901 19.0049 28.3605 19.5903C27.9399 21.4908 27.5165 23.3908 27.0857 25.2891C26.9245 25.9995 26.7388 26.135 25.9914 26.1367C24.8796 26.139 23.7677 26.1373 22.656 26.1369Z" fill="#2671be" fill-rule="evenodd" opacity="1" stroke="none"/>
<path d="M23.6352 22.3434C23.5581 22.2529 23.4733 22.1487 23.3836 22.0491C22.8749 21.4841 22.3707 20.9148 21.853 20.3582C21.6161 20.1035 21.5406 19.8561 21.8251 19.6047C22.1063 19.3562 22.3825 19.3782 22.6405 19.6641C23.3588 20.4601 24.0763 21.257 24.8065 22.0421C25.0791 22.3353 25.0156 22.5347 24.7153 22.752C23.5628 23.5862 22.4167 24.4295 21.2719 25.2744C21.0146 25.4643 20.7692 25.5119 20.5614 25.2313C20.3321 24.9218 20.5442 24.7377 20.7821 24.5645C21.6328 23.9448 22.4819 23.3229 23.3273 22.696C23.4451 22.6087 23.6142 22.5578 23.6352 22.3434Z" fill="#fdfdfe" fill-rule="evenodd" opacity="1" stroke="none"/>
<path d="M23.9996 25.3371C23.6898 25.3371 23.3795 25.3478 23.0704 25.3337C22.8237 25.3226 22.6753 25.1847 22.6784 24.925C22.6814 24.6794 22.8052 24.4947 23.0516 24.488C23.7288 24.4699 24.4069 24.4738 25.0843 24.487C25.2996 24.4912 25.4585 24.6315 25.4572 24.8558C25.4557 25.1131 25.3203 25.3125 25.0447 25.3291C24.6975 25.3501 24.3481 25.3343 23.9996 25.3343C23.9996 25.3352 23.9996 25.3362 23.9996 25.3371Z" fill="#fcfdfd" fill-rule="evenodd" opacity="1" stroke="none"/>
</g>
</g>
</svg>
