<svg xmlns="http://www.w3.org/2000/svg" viewBox="0 0 233.53 233.53"><defs><style>.cls-1{fill:#2673ba;}</style></defs><g id="Layer_2" data-name="Layer 2"><g id="Layer_1-2" data-name="Layer 1"><path class="cls-1" d="M107.08,205.57q-5.16,2.61-13.46,2.6-10.83,0-17-6.63t-6.2-17.67q0-11.76,7-19.07t18.11-7.32a32.82,32.82,0,0,1,11.62,1.81v10.63A20,20,0,0,0,96.31,167a14,14,0,0,0-10.7,4.34q-4.06,4.33-4.07,11.75,0,7.11,3.84,11.34a13.31,13.31,0,0,0,10.34,4.22,21.37,21.37,0,0,0,11.36-3.15Z"/><polygon class="cls-1" points="143.32 207.32 115.28 207.32 115.28 158.3 125.89 158.3 125.89 198.36 143.32 198.36 143.32 207.32"/><rect class="cls-1" x="149.65" y="158.3" width="10.6" height="49.01"/><path class="cls-1" d="M64.16,55.3q0-11.41-13.49-11.41H44V67h6.65Q64.16,67,64.16,55.3Z"/><path class="cls-1" d="M233.53,0H0V233.53H233.53ZM157.75,31.09h26.47q28.35,0,28.35,23.59a22.49,22.49,0,0,1-8.13,18q-8.15,6.9-21.74,6.89h-8.06v25.5H157.75ZM91.31,52.25h16.53v8.36h.21A19,19,0,0,1,125.26,51q17.79,0,17.79,21.78V105.1H126.57V75.73q0-12.27-8.89-12.28a8.88,8.88,0,0,0-7.06,3.25A12.28,12.28,0,0,0,107.84,75V105.1H91.31ZM27.13,31.09H53.6Q82,31.09,82,54.68q0,11.15-8.14,18T52.08,79.6H44v25.5H27.13Zm199.4,195.44H7V140.81H226.53Z"/><path class="cls-1" d="M194.78,55.3q0-11.41-13.49-11.41h-6.65V67h6.65Q194.79,67,194.78,55.3Z"/></g></g></svg>