<svg xmlns="http://www.w3.org/2000/svg" viewBox="0 0 233.53 233.53"><g id="Layer_2" data-name="Layer 2"><g id="Layer_1-2" data-name="Layer 1"><g id="PS_-_Black" data-name="PS - Black"><path d="M64.16,55.3q0-11.41-13.49-11.41H44V67h6.65Q64.17,67,64.16,55.3Z"/><path d="M233.53,0H0V140.81H0v92.72H233.53V0ZM157.75,31.09h26.47q28.35,0,28.35,23.59a22.52,22.52,0,0,1-8.13,18q-8.15,6.89-21.74,6.88h-8.06v25.5H157.75ZM91.31,52.25h16.53v8.36h.21A19,19,0,0,1,125.26,51q17.79,0,17.79,21.78V105.1H126.57V75.73q0-12.27-8.89-12.28a8.88,8.88,0,0,0-7.06,3.25A12.28,12.28,0,0,0,107.84,75V105.1H91.31ZM27.13,31.09H53.6Q82,31.09,82,54.68a22.52,22.52,0,0,1-8.13,18q-8.14,6.89-21.74,6.88H44v25.5H27.13Zm199.4,195.44H7V140.81H226.53Z"/><path d="M194.78,55.3q0-11.41-13.49-11.41h-6.65V67h6.65Q194.79,67,194.78,55.3Z"/></g><path d="M86.5,208.47H75.29V178.31q0-4.89.42-10.79h-.28a52.78,52.78,0,0,1-1.59,6.67L62,208.47H52.75l-12-33.92a64.55,64.55,0,0,1-1.58-7h-.32q.45,7.44.46,13.07v27.88H29.06V158.06H45.68L56,187.94a42.44,42.44,0,0,1,1.79,7.21H58a72.54,72.54,0,0,1,2-7.28l10.3-29.81H86.5Z"/><path d="M96.31,206.82v-9.67a19.5,19.5,0,0,0,11.81,3.69,10.69,10.69,0,0,0,6.63-1.82,6.08,6.08,0,0,0,2.37-5.1,5.82,5.82,0,0,0-2.93-5.21,15.31,15.31,0,0,0-8.07-1.82h-4.68v-8.51h4.33q9.84,0,9.84-6.54,0-6.15-7.56-6.15A17.21,17.21,0,0,0,98.21,169v-9.07a27.19,27.19,0,0,1,12.37-2.68q7.74,0,12,3.48a11.11,11.11,0,0,1,4.31,9q0,9.89-10,12.38v.17a13.63,13.63,0,0,1,8.44,3.89,10.94,10.94,0,0,1,3.09,7.89,13.51,13.51,0,0,1-5.17,11.18q-5.16,4.11-14.27,4.11Q101.2,209.35,96.31,206.82Z"/><path d="M169.75,191.7a18.38,18.38,0,0,1-1.3,7,16.64,16.64,0,0,1-9.14,9.34,19,19,0,0,1-14.6-.23,15.3,15.3,0,0,1-5.68-4.59,21.38,21.38,0,0,1-3.55-7.36,36.44,36.44,0,0,1-1.23-9.88,40.58,40.58,0,0,1,1.6-11.8,26.77,26.77,0,0,1,4.57-9,20.43,20.43,0,0,1,7.19-5.82,21.36,21.36,0,0,1,9.49-2.06,23.82,23.82,0,0,1,9.07,1.38v9.28a16.6,16.6,0,0,0-8.37-2.18,11.69,11.69,0,0,0-5.1,1.09,11.17,11.17,0,0,0-3.92,3.09,15,15,0,0,0-2.56,4.83,21.68,21.68,0,0,0-1,6.32h.22q3.58-5,10.58-5a13.81,13.81,0,0,1,5.66,1.12,12.2,12.2,0,0,1,4.32,3.18,14.69,14.69,0,0,1,2.78,4.94A19.67,19.67,0,0,1,169.75,191.7Zm-10.86.71q0-8.13-6.64-8.13a6.47,6.47,0,0,0-2.75.57,6.07,6.07,0,0,0-2.11,1.58,7.35,7.35,0,0,0-1.35,2.41,9.33,9.33,0,0,0-.47,3.07,11.76,11.76,0,0,0,.49,3.48,9.12,9.12,0,0,0,1.39,2.83,6.78,6.78,0,0,0,2.12,1.92,5.44,5.44,0,0,0,2.75.7,5.94,5.94,0,0,0,2.72-.61,6.25,6.25,0,0,0,2.08-1.72,7.89,7.89,0,0,0,1.31-2.68A11.94,11.94,0,0,0,158.89,192.41Z"/><path d="M177.14,207.17v-9.49a20.69,20.69,0,0,0,11,3.16,10.29,10.29,0,0,0,6.87-2.09,7,7,0,0,0,2.48-5.68q0-7.48-10.58-7.48a77.88,77.88,0,0,0-9,.59l1.9-28.12h26.68v9.07H188.28l-.7,10.09c1.8-.14,3.36-.21,4.67-.21q7.77,0,12.17,4.08t4.39,11a16.18,16.18,0,0,1-5.24,12.47q-5.23,4.83-14.2,4.83A30.41,30.41,0,0,1,177.14,207.17Z"/></g></g></svg>